<svg width="24" height="24" viewBox="0 0 24 24" fill="none" xmlns="http://www.w3.org/2000/svg">
<g clip-path="url(#clip0_4293_1664)">
<path d="M13.6036 16.9089C13.3583 16.9318 13.112 16.8765 12.9 16.7507C12.7451 16.5917 12.6709 16.371 12.6982 16.1507C12.7039 15.9674 12.7258 15.7848 12.7636 15.6053C12.8002 15.3993 12.8475 15.1954 12.9054 14.9944L13.5491 12.7798C13.6154 12.5612 13.6593 12.3364 13.68 12.1089C13.68 11.8635 13.7127 11.6943 13.7127 11.5962C13.7264 11.1587 13.5396 10.7389 13.2054 10.4562C12.7944 10.1406 12.2825 9.98551 11.7654 10.0198C11.3949 10.0254 11.0272 10.0861 10.6745 10.1998C10.289 10.3198 9.88358 10.4634 9.45814 10.6307L9.27271 11.3507C9.39814 11.3071 9.55091 11.258 9.72542 11.2035C9.89192 11.1541 10.0645 11.1284 10.2381 11.1271C10.4817 11.1007 10.7269 11.1605 10.9309 11.2962C11.0694 11.4615 11.1344 11.6763 11.1109 11.8907C11.1103 12.0742 11.0901 12.257 11.0509 12.4362C11.0127 12.6271 10.9636 12.8289 10.9036 13.0416L10.2545 15.2671C10.2022 15.4739 10.1603 15.6833 10.1291 15.8943C10.1036 16.075 10.0908 16.2573 10.0909 16.4398C10.0882 16.8803 10.2896 17.2972 10.6363 17.5689C11.0537 17.8893 11.5729 18.0482 12.0981 18.0161C12.4679 18.0237 12.8365 17.9703 13.189 17.8579C13.4981 17.7525 13.9108 17.6016 14.4272 17.4052L14.6018 16.7179C14.4619 16.776 14.3179 16.8234 14.1709 16.8597C13.985 16.9022 13.7941 16.9187 13.6036 16.9089Z" fill="white"/>
<path d="M14.2854 6.40909C13.9886 6.13647 13.5974 5.98979 13.1945 6.00001C12.7918 5.99092 12.401 6.13745 12.1036 6.40909C11.5583 6.87925 11.4974 7.70242 11.9676 8.24772C12.0095 8.29632 12.055 8.34175 12.1036 8.38365C12.7248 8.93926 13.6642 8.93926 14.2854 8.38365C14.8306 7.90886 14.8878 7.08198 14.413 6.53673C14.3735 6.49131 14.3308 6.44865 14.2854 6.40909Z" fill="white"/>
<path d="M12 0C5.37258 0 0 5.37258 0 12C0 18.6274 5.37258 24 12 24C18.6274 24 24 18.6274 24 12C24 5.37258 18.6274 0 12 0ZM12 22.9091C5.97506 22.9091 1.09092 18.0249 1.09092 12C1.09092 5.97506 5.97506 1.09092 12 1.09092C18.0249 1.09092 22.9091 5.97506 22.9091 12C22.9091 18.0249 18.0249 22.9091 12 22.9091Z" fill="white"/>
</g>
<defs>
<clipPath id="clip0_4293_1664">
<rect width="24" height="24" fill="white"/>
</clipPath>
</defs>
</svg>
