<svg width="18" height="18" viewBox="0 0 18 18" fill="none" xmlns="http://www.w3.org/2000/svg">
<path d="M12.4639 0C12.5058 0 12.5477 0 12.592 0C12.6947 1.2694 12.2102 2.21789 11.6213 2.90476C11.0435 3.58688 10.2523 4.24845 8.97267 4.14807C8.88731 2.89685 9.37262 2.01871 9.96069 1.33342C10.5061 0.69477 11.5059 0.126466 12.4639 0Z" fill="black"/>
<path d="M16.3377 13.2125C16.3377 13.2252 16.3377 13.2362 16.3377 13.2481C15.9781 14.3373 15.4651 15.2708 14.8391 16.137C14.2676 16.9235 13.5673 17.9819 12.3169 17.9819C11.2364 17.9819 10.5187 17.2871 9.41135 17.2681C8.23996 17.2492 7.59578 17.8491 6.52477 18C6.40226 18 6.27975 18 6.1596 18C5.37315 17.8862 4.73845 17.2634 4.27606 16.7022C2.9126 15.0439 1.85899 12.9019 1.66296 10.1608C1.66296 9.89202 1.66296 9.62407 1.66296 9.35533C1.74596 7.39354 2.69919 5.79849 3.96622 5.02547C4.6349 4.61445 5.55415 4.2643 6.57773 4.4208C7.01641 4.48878 7.46457 4.63896 7.8574 4.78755C8.22969 4.93062 8.69524 5.18434 9.13629 5.1709C9.43506 5.16221 9.73226 5.0065 10.0334 4.89663C10.9155 4.5781 11.7802 4.21293 12.92 4.38445C14.2898 4.59153 15.262 5.20015 15.8627 6.13916C14.7039 6.87661 13.7878 7.98792 13.9443 9.8857C14.0835 11.6096 15.0857 12.6181 16.3377 13.2125Z" fill="black"/>
</svg>
