<svg width="24" height="24" viewBox="0 0 24 24" fill="none" xmlns="http://www.w3.org/2000/svg">
<path d="M4.84036 5.96151H4.31643C3.81869 5.96151 3.4137 5.55651 3.4137 5.05874V2.59316C3.4137 2.09539 3.81869 1.69043 4.31643 1.69043H4.84036C5.33813 1.69043 5.74312 2.09539 5.74312 2.59316V5.05874C5.74312 5.55651 5.33813 5.96151 4.84036 5.96151ZM4.31643 2.38485C4.20156 2.38485 4.10812 2.47828 4.10812 2.59316V5.05874C4.10812 5.17362 4.20156 5.2671 4.31643 5.2671H4.84036C4.95524 5.2671 5.04871 5.17363 5.04871 5.05874V2.59316C5.04871 2.47828 4.95525 2.38485 4.84036 2.38485H4.31643Z" fill="white"/>
<path d="M11.1426 5.96151H10.6187C10.1209 5.96151 9.71594 5.55651 9.71594 5.05874V2.59316C9.71594 2.09539 10.1209 1.69043 10.6187 1.69043H11.1426C11.6404 1.69043 12.0454 2.09539 12.0454 2.59316V5.05874C12.0454 5.55651 11.6404 5.96151 11.1426 5.96151ZM10.6187 2.38485C10.5038 2.38485 10.4104 2.47828 10.4104 2.59316V5.05874C10.4104 5.17362 10.5038 5.2671 10.6187 5.2671H11.1426C11.2575 5.2671 11.351 5.17363 11.351 5.05874V2.59316C11.351 2.47828 11.2575 2.38485 11.1426 2.38485H10.6187Z" fill="white"/>
<path d="M17.4449 5.96151H16.9209C16.4231 5.96151 16.0182 5.55651 16.0182 5.05874V2.59316C16.0182 2.09539 16.4232 1.69043 16.9209 1.69043H17.4449C17.9426 1.69043 18.3476 2.09539 18.3476 2.59316V5.05874C18.3476 5.55651 17.9426 5.96151 17.4449 5.96151ZM16.9209 2.38485C16.806 2.38485 16.7126 2.47828 16.7126 2.59316V5.05874C16.7126 5.17362 16.806 5.2671 16.9209 5.2671H17.4449C17.5597 5.2671 17.6532 5.17363 17.6532 5.05874V2.59316C17.6532 2.47828 17.5597 2.38485 17.4449 2.38485H16.9209Z" fill="white"/>
<path d="M20.2141 7.18563H1.54718C1.35538 7.18563 1.19995 7.03019 1.19995 6.8384C1.19995 6.64665 1.35539 6.49121 1.54718 6.49121H20.2141C20.4059 6.49121 20.5613 6.64665 20.5613 6.8384C20.5613 7.03019 20.4059 7.18563 20.2141 7.18563Z" fill="white"/>
<path d="M5.78133 11.3841H3.17754C2.98575 11.3841 2.83032 11.2287 2.83032 11.037V8.43316C2.83032 8.24137 2.98576 8.08594 3.17754 8.08594H5.78134C5.9731 8.08594 6.12853 8.24137 6.12853 8.43316V11.037C6.12853 11.2287 5.97309 11.3841 5.78133 11.3841ZM3.52473 10.6897H5.43411V8.78035H3.52473V10.6897Z" fill="white"/>
<path d="M10.0488 11.3841H7.445C7.25321 11.3841 7.09778 11.2287 7.09778 11.037V8.43316C7.09778 8.24137 7.25321 8.08594 7.445 8.08594H10.0488C10.2406 8.08594 10.396 8.24137 10.396 8.43316V11.037C10.396 11.2287 10.2406 11.3841 10.0488 11.3841ZM7.79219 10.6897H9.70157V8.78035H7.79219V10.6897Z" fill="white"/>
<path d="M14.3164 11.3841H11.7126C11.5208 11.3841 11.3654 11.2287 11.3654 11.037V8.43316C11.3654 8.24137 11.5208 8.08594 11.7126 8.08594H14.3164C14.5081 8.08594 14.6636 8.24137 14.6636 8.43316V11.037C14.6636 11.2287 14.5081 11.3841 14.3164 11.3841ZM12.0598 10.6897H13.9691V8.78035H12.0598V10.6897Z" fill="white"/>
<path d="M5.78133 15.0779H3.17754C2.98575 15.0779 2.83032 14.9224 2.83032 14.7306V12.127C2.83032 11.9352 2.98576 11.7798 3.17754 11.7798H5.78134C5.9731 11.7798 6.12853 11.9352 6.12853 12.127V14.7306C6.12853 14.9224 5.97309 15.0779 5.78133 15.0779ZM3.52473 14.3834H5.43411V12.4742H3.52473V14.3834Z" fill="white"/>
<path d="M10.0488 15.0779H7.445C7.25321 15.0779 7.09778 14.9224 7.09778 14.7306V12.127C7.09778 11.9352 7.25321 11.7798 7.445 11.7798H10.0488C10.2406 11.7798 10.396 11.9352 10.396 12.127V14.7306C10.396 14.9224 10.2406 15.0779 10.0488 15.0779ZM7.79219 14.3834H9.70157V12.4742H7.79219V14.3834Z" fill="white"/>
<path d="M14.3164 15.0779H11.7126C11.5208 15.0779 11.3654 14.9224 11.3654 14.7306V12.127C11.3654 11.9352 11.5208 11.7798 11.7126 11.7798H14.3164C14.5081 11.7798 14.6636 11.9352 14.6636 12.127V14.7306C14.6636 14.9224 14.5081 15.0779 14.3164 15.0779ZM12.0598 14.3834H13.9691V12.4742H12.0598V14.3834Z" fill="white"/>
<path d="M5.78133 18.7717H3.17754C2.98575 18.7717 2.83032 18.6163 2.83032 18.4245V15.8208C2.83032 15.6291 2.98576 15.4736 3.17754 15.4736H5.78134C5.9731 15.4736 6.12853 15.6291 6.12853 15.8208V18.4245C6.12853 18.6163 5.97309 18.7717 5.78133 18.7717ZM3.52473 18.0773H5.43411V16.168H3.52473V18.0773Z" fill="white"/>
<path d="M16.7939 13.2272C16.705 13.2272 16.6162 13.1933 16.5484 13.1254C16.2891 12.8663 16.1461 12.5215 16.1461 12.1548C16.1461 11.7879 16.2891 11.4431 16.5484 11.1838L18.6629 9.06936C19.1981 8.53417 20.0691 8.53417 20.6045 9.06936C20.6696 9.13446 20.7062 9.22276 20.7062 9.31483C20.7062 9.40694 20.6696 9.49524 20.6045 9.56035L17.0394 13.1254C16.9716 13.1933 16.8827 13.2272 16.7939 13.2272ZM19.6337 9.36205C19.4599 9.36205 19.2861 9.42811 19.1538 9.56035L17.0394 11.6749C16.9112 11.8031 16.8405 11.9734 16.8405 12.1548C16.8405 12.2117 16.8476 12.2677 16.8612 12.3216L19.8002 9.38266C19.7456 9.36883 19.6897 9.36205 19.6337 9.36205Z" fill="white"/>
<path d="M9.80656 20.2142C9.7177 20.2142 9.62888 20.1803 9.56105 20.1125C9.02587 19.5773 9.02587 18.7063 9.56105 18.171L11.6756 16.0564C12.2107 15.5211 13.0819 15.5208 13.6172 16.0564C13.7528 16.192 13.7528 16.4117 13.6172 16.5474L10.052 20.1125C9.98421 20.1803 9.89539 20.2142 9.80656 20.2142ZM12.6465 16.3489C12.4726 16.3489 12.2989 16.4151 12.1666 16.5474L10.052 18.662C9.87723 18.8369 9.81795 19.0843 9.87422 19.3082L12.8129 16.3696C12.7584 16.3559 12.7024 16.3489 12.6465 16.3489Z" fill="white"/>
<path d="M12.3605 22.3095C11.6426 22.3095 10.9677 22.03 10.46 21.5223L9.56624 20.6285C9.43104 20.4934 9.35657 20.3136 9.35657 20.1225C9.35657 19.9313 9.43103 19.7516 9.56638 19.6164L13.1212 16.0616C13.3911 15.7912 13.863 15.7912 14.1331 16.0616C14.4795 16.4082 15.0833 16.4079 15.4297 16.0616L16.5536 14.938C16.911 14.5804 16.911 13.9987 16.5536 13.6413C16.2746 13.3625 16.2744 12.9084 16.5533 12.6294L20.1084 9.07448C20.3875 8.79522 20.8417 8.79575 21.1203 9.07448L22.0141 9.96827C23.062 11.0161 23.062 12.7211 22.0141 13.769L14.2608 21.5223C13.7532 22.03 13.0784 22.3095 12.3605 22.3095ZM13.6271 16.5473C13.6123 16.5525 10.0572 20.1076 10.0572 20.1076C10.0502 20.1148 10.0502 20.1305 10.0572 20.1376L10.951 21.0313C11.3275 21.4078 11.828 21.6151 12.3605 21.6151C12.8928 21.6151 13.3933 21.4078 13.7698 21.0313L21.5231 13.278C22.3003 12.5008 22.3003 11.2364 21.5231 10.4592L20.6293 9.56544C20.6209 9.55744 20.6078 9.55716 20.5993 9.56544L17.0444 13.1203C17.0363 13.1285 17.0361 13.142 17.0444 13.1502C17.6726 13.7785 17.6728 14.8007 17.0445 15.4289L15.9207 16.5526C15.6165 16.857 15.2119 17.0246 14.7814 17.0246C14.3511 17.0246 13.9465 16.857 13.6421 16.5526C13.6386 16.5491 13.6328 16.5473 13.6271 16.5473Z" fill="white"/>
<path d="M8.57193 20.0889H2.16035C1.63087 20.0889 1.19995 19.658 1.19995 19.1285V4.67461C1.19995 4.14513 1.63087 3.71436 2.16035 3.71436H3.76088C3.95268 3.71436 4.10811 3.86979 4.10811 4.06158V5.20575C4.10811 5.23962 4.13563 5.26732 4.16955 5.26732H4.98712C5.02104 5.26732 5.0487 5.23962 5.0487 5.20575V4.06158C5.0487 3.86979 5.20413 3.71436 5.3959 3.71436H10.0631C10.2549 3.71436 10.4104 3.86979 10.4104 4.06158V5.20575C10.4104 5.23962 10.438 5.26732 10.4719 5.26732H11.2894C11.3233 5.26732 11.3509 5.23962 11.3509 5.20575V4.06158C11.3509 3.86979 11.5063 3.71436 11.6981 3.71436H16.3654C16.5572 3.71436 16.7126 3.86979 16.7126 4.06158V5.20575C16.7126 5.23962 16.7403 5.26732 16.7742 5.26732H17.5917C17.6256 5.26732 17.6532 5.23962 17.6532 5.20575V4.06158C17.6532 3.86979 17.8086 3.71436 18.0004 3.71436H19.6009C20.1304 3.71436 20.5613 4.14513 20.5613 4.67461V8.07548C20.5613 8.26727 20.4059 8.42271 20.2141 8.42271C20.0223 8.42271 19.8669 8.26727 19.8669 8.07548V4.67461C19.8669 4.52799 19.7476 4.40878 19.6009 4.40878H18.3476V5.20575C18.3476 5.62266 18.0085 5.96174 17.5917 5.96174H16.7742C16.3573 5.96174 16.0182 5.62266 16.0182 5.20575V4.40878H12.0454V5.20575C12.0454 5.62266 11.7063 5.96174 11.2894 5.96174H10.4719C10.055 5.96174 9.71595 5.62266 9.71595 5.20575V4.40878H5.74312V5.20575C5.74312 5.62266 5.40404 5.96174 4.98713 5.96174H4.16956C3.75278 5.96174 3.4137 5.62266 3.4137 5.20575V4.40878H2.16035C2.01375 4.40878 1.8944 4.52799 1.8944 4.67461V19.1285C1.8944 19.2752 2.01375 19.3945 2.16035 19.3945H8.57193C8.76368 19.3945 8.91912 19.5499 8.91912 19.7417C8.91912 19.9335 8.76368 20.0889 8.57193 20.0889Z" fill="white"/>
<path d="M15.9802 11.1536C15.7884 11.1536 15.6329 10.9981 15.6329 10.8064V8.43316C15.6329 8.24137 15.7884 8.08594 15.9802 8.08594H18.365C18.5568 8.08594 18.7122 8.24137 18.7122 8.43316C18.7122 8.62492 18.5568 8.78035 18.365 8.78035H16.3273V10.8064C16.3273 10.9981 16.1719 11.1536 15.9802 11.1536Z" fill="white"/>
<path d="M8.61494 18.7717H7.445C7.25321 18.7717 7.09778 18.6163 7.09778 18.4245V15.8208C7.09778 15.6291 7.25321 15.4736 7.445 15.4736H10.0488C10.2406 15.4736 10.396 15.6291 10.396 15.8208V16.7225C10.396 16.9143 10.2406 17.0697 10.0488 17.0697C9.857 17.0697 9.70157 16.9143 9.70157 16.7225V16.168H7.79219V18.0773H8.61494C8.8067 18.0773 8.96213 18.2327 8.96213 18.4245C8.96213 18.6163 8.8067 18.7717 8.61494 18.7717Z" fill="white"/>
</svg>
