<svg width="17" height="17" viewBox="0 0 17 17" fill="none" xmlns="http://www.w3.org/2000/svg">
<g clip-path="url(#clip0_4262_582)">
<path d="M9.00482 13.4877C9.00482 13.7696 8.84196 14.0256 8.58709 14.1452C8.48855 14.1918 8.38296 14.2143 8.27806 14.2143C8.11193 14.2143 7.94735 14.1572 7.81442 14.047L3.84219 10.7554H1.72658C1.32537 10.7557 1 10.4302 1 10.029V7.13417C1 6.73279 1.32537 6.40742 1.72658 6.40742H3.84237L7.81459 3.11586C8.03162 2.93598 8.33257 2.89763 8.58727 3.01801C8.84196 3.13753 9.00499 3.39377 9.00499 3.67546L9.00482 13.4877ZM11.7971 12.3523C11.7794 12.3535 11.7624 12.3542 11.7449 12.3542C11.5529 12.3542 11.3679 12.2784 11.2312 12.1415L11.134 12.044C10.8791 11.7896 10.8492 11.3867 11.0638 11.0975C11.608 10.3638 11.8952 9.49416 11.8952 8.58184C11.8952 7.60057 11.5691 6.68017 10.9521 5.92005C10.7171 5.63113 10.7388 5.21152 11.0021 4.9484L11.0991 4.85124C11.2442 4.70609 11.4387 4.62698 11.6492 4.63954C11.8542 4.64986 12.0456 4.74633 12.1756 4.90524C13.0316 5.95255 13.4837 7.22412 13.4837 8.58201C13.4837 9.8467 13.0838 11.0505 12.3272 12.0627C12.2008 12.2314 12.0075 12.3374 11.7971 12.3523ZM14.8012 14.5978C14.6698 14.7531 14.4797 14.8463 14.2763 14.8549C14.2663 14.8552 14.2562 14.8556 14.2459 14.8556C14.0534 14.8556 13.8687 14.7796 13.732 14.6428L13.6366 14.5474C13.3698 14.2808 13.3518 13.8545 13.5943 13.566C14.7661 12.1723 15.4117 10.4023 15.4117 8.58184C15.4117 6.68825 14.7205 4.86534 13.466 3.44897C13.2116 3.16143 13.2245 2.72617 13.4952 2.45445L13.5905 2.35901C13.7318 2.21696 13.9155 2.13871 14.1262 2.14542C14.3262 2.15109 14.5153 2.23949 14.6483 2.3891C16.1647 4.09645 17 6.29598 17 8.58184C17.0003 10.7812 16.2194 12.9178 14.8012 14.5978Z" fill="#232232"/>
</g>
<defs>
<clipPath id="clip0_4262_582">
<rect width="16" height="16" fill="white" transform="translate(0.5 0.5)"/>
</clipPath>
</defs>
</svg>
