<svg width="24" height="24" viewBox="0 0 24 24" fill="none" xmlns="http://www.w3.org/2000/svg">
<g clip-path="url(#clip0_4293_1649)">
<path d="M21.375 0.75H2.625C2.1279 0.750595 1.65133 0.948331 1.29983 1.29983C0.948331 1.65133 0.750595 2.1279 0.75 2.625V21.375C0.750595 21.8721 0.948331 22.3487 1.29983 22.7002C1.65133 23.0517 2.1279 23.2494 2.625 23.25H21.375C21.8721 23.2494 22.3487 23.0517 22.7002 22.7002C23.0517 22.3487 23.2494 21.8721 23.25 21.375V2.625C23.2494 2.1279 23.0517 1.65133 22.7002 1.29983C22.3487 0.948331 21.8721 0.750595 21.375 0.75ZM2.625 1.5H21.375C21.6734 1.5 21.9595 1.61853 22.1705 1.8295C22.3815 2.04048 22.5 2.32663 22.5 2.625V3.75H1.5V2.625C1.5 2.32663 1.61853 2.04048 1.8295 1.8295C2.04048 1.61853 2.32663 1.5 2.625 1.5ZM21.375 22.5H2.625C2.32663 22.5 2.04048 22.3815 1.8295 22.1705C1.61853 21.9595 1.5 21.6734 1.5 21.375V4.5H22.5V16.125H15.75C15.692 16.1244 15.6346 16.1372 15.5824 16.1625L14.1615 16.875H13.125C12.8266 16.875 12.5405 16.9935 12.3295 17.2045C12.1185 17.4155 12 17.7016 12 18C12 18.2984 12.1185 18.5845 12.3295 18.7955C12.5405 19.0065 12.8266 19.125 13.125 19.125H14.1615L15.5824 19.8375C15.6346 19.8628 15.692 19.8756 15.75 19.875H22.5V21.375C22.5 21.6734 22.3815 21.9595 22.1705 22.1705C21.9595 22.3815 21.6734 22.5 21.375 22.5ZM14.625 17.4818L15.813 16.8878C15.8994 16.9015 15.9782 16.9454 16.0353 17.0117C16.0925 17.0781 16.1242 17.1625 16.125 17.25C16.125 17.3495 16.0855 17.4448 16.0152 17.5152C15.9448 17.5855 15.8495 17.625 15.75 17.625C15.6505 17.625 15.5552 17.6645 15.4848 17.7348C15.4145 17.8052 15.375 17.9005 15.375 18C15.375 18.0995 15.4145 18.1948 15.4848 18.2652C15.5552 18.3355 15.6505 18.375 15.75 18.375C15.8495 18.375 15.9448 18.4145 16.0152 18.4848C16.0855 18.5552 16.125 18.6505 16.125 18.75C16.1242 18.8375 16.0925 18.9219 16.0353 18.9883C15.9782 19.0546 15.8994 19.0985 15.813 19.1122L14.625 18.5182V17.4818ZM16.8079 18.375H22.5V19.125H16.806C16.8967 18.8832 16.8967 18.6168 16.806 18.375H16.8079ZM16.8079 17.625C16.8986 17.3832 16.8986 17.1168 16.8079 16.875H22.5V17.625H16.8079ZM13.125 18.375C13.0255 18.375 12.9302 18.3355 12.8598 18.2652C12.7895 18.1948 12.75 18.0995 12.75 18C12.75 17.9005 12.7895 17.8052 12.8598 17.7348C12.9302 17.6645 13.0255 17.625 13.125 17.625H13.875V18.375H13.125Z" fill="white"/>
<path d="M3 2.25H3.75V3H3V2.25Z" fill="white"/>
<path d="M4.5 2.25H5.25V3H4.5V2.25Z" fill="white"/>
<path d="M6 2.25H6.75V3H6V2.25Z" fill="white"/>
<path d="M14.625 13.1932V14.625C14.625 14.6992 14.647 14.7716 14.6882 14.8333C14.7294 14.895 14.788 14.943 14.8565 14.9714C14.925 14.9998 15.0004 15.0072 15.0731 14.9927C15.1459 14.9783 15.2127 14.9426 15.2651 14.8901L16.6575 13.4981C19.0661 13.4355 21 11.9464 21 10.125C21 8.26425 18.9814 6.75 16.5 6.75C14.0186 6.75 12 8.26425 12 10.125C12 11.4653 13.0211 12.6469 14.625 13.1932ZM16.5 7.5C18.5677 7.5 20.25 8.6775 20.25 10.125C20.25 11.5725 18.5677 12.75 16.5 12.75C16.4006 12.75 16.3052 12.7895 16.2349 12.8599L15.375 13.7197V12.9172C15.375 12.8356 15.3484 12.7563 15.2992 12.6912C15.25 12.6261 15.1809 12.5788 15.1024 12.5565C13.6954 12.1564 12.75 11.1795 12.75 10.125C12.75 8.6775 14.4323 7.5 16.5 7.5Z" fill="white"/>
<path d="M13.875 9H19.125V9.75H13.875V9Z" fill="white"/>
<path d="M13.875 10.5H19.125V11.25H13.875V10.5Z" fill="white"/>
<path d="M10.125 6.75H3.375C3.27554 6.75 3.18016 6.78951 3.10984 6.85983C3.03951 6.93016 3 7.02554 3 7.125V12.375C3 12.4745 3.03951 12.5698 3.10984 12.6402C3.18016 12.7105 3.27554 12.75 3.375 12.75H10.125C10.2245 12.75 10.3198 12.7105 10.3902 12.6402C10.4605 12.5698 10.5 12.4745 10.5 12.375V7.125C10.5 7.02554 10.4605 6.93016 10.3902 6.85983C10.3198 6.78951 10.2245 6.75 10.125 6.75ZM9.75 12H3.75V7.5H9.75V12Z" fill="white"/>
<path d="M3 14.25H10.5V15H3V14.25Z" fill="white"/>
<path d="M3 15.75H10.5V16.5H3V15.75Z" fill="white"/>
<path d="M3 17.25H10.5V18H3V17.25Z" fill="white"/>
<path d="M3 18.75H10.5V19.5H3V18.75Z" fill="white"/>
</g>
<defs>
<clipPath id="clip0_4293_1649">
<rect width="24" height="24" fill="white"/>
</clipPath>
</defs>
</svg>
