<svg width="33" height="33" viewBox="0 0 33 33" fill="none" xmlns="http://www.w3.org/2000/svg">
<path d="M24.625 14.9463C25.3154 14.9463 25.875 14.3866 25.875 13.6963C25.875 13.0059 25.3154 12.4463 24.625 12.4463C23.9346 12.4463 23.375 13.0059 23.375 13.6963C23.375 14.3866 23.9346 14.9463 24.625 14.9463Z" fill="#0A0919"/>
<path d="M27.5 3.07129H25.875V1.82129C25.875 1.13091 25.3154 0.571289 24.625 0.571289C23.9346 0.571289 23.375 1.13091 23.375 1.82129V3.07129H17.6875V1.82129C17.6875 1.13091 17.1279 0.571289 16.4375 0.571289C15.7471 0.571289 15.1875 1.13091 15.1875 1.82129V3.07129H9.5625V1.82129C9.5625 1.13091 9.00288 0.571289 8.3125 0.571289C7.62213 0.571289 7.0625 1.13091 7.0625 1.82129V3.07129H5.5C2.743 3.07129 0.5 5.31429 0.5 8.07129V27.5713C0.5 30.3283 2.743 32.5713 5.5 32.5713H15.0625C15.7529 32.5713 16.3125 32.0117 16.3125 31.3213C16.3125 30.6309 15.7529 30.0713 15.0625 30.0713H5.5C4.1215 30.0713 3 28.9498 3 27.5713V8.07129C3 6.69279 4.1215 5.57129 5.5 5.57129H7.0625V6.82129C7.0625 7.51166 7.62213 8.07129 8.3125 8.07129C9.00288 8.07129 9.5625 7.51166 9.5625 6.82129V5.57129H15.1875V6.82129C15.1875 7.51166 15.7471 8.07129 16.4375 8.07129C17.1279 8.07129 17.6875 7.51166 17.6875 6.82129V5.57129H23.375V6.82129C23.375 7.51166 23.9346 8.07129 24.625 8.07129C25.3154 8.07129 25.875 7.51166 25.875 6.82129V5.57129H27.5C28.8785 5.57129 30 6.69279 30 8.07129V15.1963C30 15.8867 30.5596 16.4463 31.25 16.4463C31.9404 16.4463 32.5 15.8867 32.5 15.1963V8.07129C32.5 5.31429 30.257 3.07129 27.5 3.07129Z" fill="#0A0919"/>
<path d="M24.9375 17.4463C20.7675 17.4463 17.375 20.8388 17.375 25.0088C17.375 29.1788 20.7675 32.5713 24.9375 32.5713C29.1075 32.5713 32.5 29.1788 32.5 25.0088C32.5 20.8388 29.1075 17.4463 24.9375 17.4463ZM24.9375 30.0713C22.1461 30.0713 19.875 27.8003 19.875 25.0088C19.875 22.2173 22.1461 19.9463 24.9375 19.9463C27.7289 19.9463 30 22.2173 30 25.0088C30 27.8003 27.7289 30.0713 24.9375 30.0713Z" fill="#0A0919"/>
<path d="M26.75 23.7588H26.1875V22.4463C26.1875 21.7559 25.6279 21.1963 24.9375 21.1963C24.2471 21.1963 23.6875 21.7559 23.6875 22.4463V25.0088C23.6875 25.6992 24.2471 26.2588 24.9375 26.2588H26.75C27.4404 26.2588 28 25.6992 28 25.0088C28 24.3184 27.4404 23.7588 26.75 23.7588Z" fill="#0A0919"/>
<path d="M19.1875 14.9463C19.8779 14.9463 20.4375 14.3866 20.4375 13.6963C20.4375 13.0059 19.8779 12.4463 19.1875 12.4463C18.4971 12.4463 17.9375 13.0059 17.9375 13.6963C17.9375 14.3866 18.4971 14.9463 19.1875 14.9463Z" fill="#0A0919"/>
<path d="M13.75 20.3838C14.4404 20.3838 15 19.8241 15 19.1338C15 18.4434 14.4404 17.8838 13.75 17.8838C13.0596 17.8838 12.5 18.4434 12.5 19.1338C12.5 19.8241 13.0596 20.3838 13.75 20.3838Z" fill="#0A0919"/>
<path d="M8.3125 14.9463C9.00286 14.9463 9.5625 14.3866 9.5625 13.6963C9.5625 13.0059 9.00286 12.4463 8.3125 12.4463C7.62214 12.4463 7.0625 13.0059 7.0625 13.6963C7.0625 14.3866 7.62214 14.9463 8.3125 14.9463Z" fill="#0A0919"/>
<path d="M8.3125 20.3838C9.00286 20.3838 9.5625 19.8241 9.5625 19.1338C9.5625 18.4434 9.00286 17.8838 8.3125 17.8838C7.62214 17.8838 7.0625 18.4434 7.0625 19.1338C7.0625 19.8241 7.62214 20.3838 8.3125 20.3838Z" fill="#0A0919"/>
<path d="M8.3125 25.8213C9.00286 25.8213 9.5625 25.2616 9.5625 24.5713C9.5625 23.8809 9.00286 23.3213 8.3125 23.3213C7.62214 23.3213 7.0625 23.8809 7.0625 24.5713C7.0625 25.2616 7.62214 25.8213 8.3125 25.8213Z" fill="#0A0919"/>
<path d="M13.75 25.8213C14.4404 25.8213 15 25.2616 15 24.5713C15 23.8809 14.4404 23.3213 13.75 23.3213C13.0596 23.3213 12.5 23.8809 12.5 24.5713C12.5 25.2616 13.0596 25.8213 13.75 25.8213Z" fill="#0A0919"/>
<path d="M13.75 14.9463C14.4404 14.9463 15 14.3866 15 13.6963C15 13.0059 14.4404 12.4463 13.75 12.4463C13.0596 12.4463 12.5 13.0059 12.5 13.6963C12.5 14.3866 13.0596 14.9463 13.75 14.9463Z" fill="#0A0919"/>
</svg>
