<svg width="24" height="25" viewBox="0 0 24 25" fill="none" xmlns="http://www.w3.org/2000/svg">
<g clip-path="url(#clip0_4293_1420)">
<path d="M23.1797 17.8559C22.174 16.8402 21.1682 15.8394 20.1921 14.8732C19.662 14.3481 19.0427 14.0706 18.3936 14.0706C17.7446 14.0706 17.1252 14.3481 16.6001 14.8683L16.4663 15.0021C15.9361 15.5273 15.3862 16.0723 14.856 16.6173C14.747 16.5628 14.638 16.5083 14.534 16.4538C14.2912 16.3348 14.0584 16.2209 13.8552 16.0921C12.2598 15.0912 10.7933 13.7585 9.37628 12.0095C8.68759 11.1623 8.207 10.4092 7.87009 9.64616C8.34077 9.19034 8.80155 8.72461 9.25241 8.26879C9.36637 8.15483 9.48528 8.03592 9.59924 7.92197C10.7041 6.81214 10.6992 5.37531 9.59428 4.26053C9.25737 3.91866 8.91055 3.5768 8.57859 3.24484C8.42995 3.0962 8.28132 2.94756 8.13268 2.79893C7.97413 2.64038 7.82054 2.48679 7.66199 2.32824C7.32508 1.98637 6.97331 1.6346 6.62153 1.29273C6.09139 0.772502 5.46711 0.5 4.82302 0.5C4.17892 0.5 3.55464 0.772502 3.02946 1.29273C2.77677 1.54542 2.51914 1.7981 2.27636 2.04583C1.91963 2.40751 1.54804 2.77911 1.17644 3.13584C0.482803 3.7948 0.0963453 4.62717 0.0220266 5.61313C-0.0919288 7.16391 0.33912 8.56606 0.725577 9.61643C1.60749 11.9897 2.95514 14.2391 4.84779 16.4934C7.20617 19.2977 10.0451 21.5173 13.2854 23.0979C15.0691 23.9649 16.6001 24.4059 18.0914 24.4901C18.2004 24.495 18.3094 24.5 18.4134 24.5C19.6719 24.5 20.7074 24.0541 21.4902 23.1821C21.8271 22.8055 22.1888 22.4538 22.5703 22.0822C22.7636 21.8939 22.9617 21.7007 23.1599 21.5025C24.2698 20.3877 24.2747 18.9608 23.1797 17.8559ZM22.2186 20.5611C22.0303 20.7494 21.8371 20.9377 21.6488 21.1259C21.2673 21.4975 20.8709 21.884 20.5043 22.2952C19.9246 22.9443 19.1913 23.2168 18.1756 23.1623C16.8627 23.0879 15.5001 22.6916 13.88 21.9038C10.8082 20.4075 8.11286 18.3018 5.87834 15.6462C4.08478 13.5107 2.81146 11.3951 1.98404 9.16557C1.47372 7.7981 1.28545 6.73782 1.35976 5.73204C1.40931 5.08299 1.65208 4.55285 2.10295 4.12675C2.48445 3.74525 2.861 3.36375 3.22764 2.99711C3.47042 2.75434 3.71815 2.50165 3.96587 2.25392C4.15415 2.06565 4.45638 1.84269 4.82302 1.84269C5.18966 1.84269 5.49189 2.06565 5.68511 2.25392C6.02698 2.59083 6.37876 2.94261 6.71071 3.27952C6.86926 3.43807 7.02285 3.59661 7.1814 3.75021C7.33004 3.89884 7.47867 4.04748 7.62731 4.19612C7.95927 4.52808 8.30113 4.86994 8.63805 5.20685C9.2326 5.80636 9.23755 6.38604 8.643 6.9806C8.52905 7.0995 8.41014 7.21346 8.29618 7.33237C7.81559 7.81792 7.31517 8.32329 6.81476 8.80388C6.56703 9.0417 6.32426 9.44798 6.56703 10.0326C6.95349 10.9591 7.51336 11.8609 8.32591 12.8617C9.83706 14.7197 11.4126 16.1515 13.1319 17.2316C13.3994 17.4001 13.6719 17.5339 13.9345 17.6627C14.093 17.737 14.2367 17.8113 14.3804 17.8906C14.5588 17.9897 14.7371 18.0343 14.9155 18.0343C15.1979 18.0343 15.4605 17.9104 15.6934 17.6726C16.2532 17.0929 16.8379 16.5182 17.3977 15.9583L17.5315 15.8245C17.7198 15.6363 18.022 15.4133 18.3837 15.4133C18.7454 15.4133 19.0476 15.6363 19.2409 15.8245C20.212 16.7907 21.2177 17.7915 22.2186 18.8022C22.7982 19.372 22.7933 19.9814 22.2186 20.5611Z" fill="white"/>
</g>
<defs>
<clipPath id="clip0_4293_1420">
<rect width="24" height="24" fill="white" transform="translate(0 0.5)"/>
</clipPath>
</defs>
</svg>
