<svg width="24" height="24" viewBox="0 0 24 24" fill="none" xmlns="http://www.w3.org/2000/svg">
<g clip-path="url(#clip0_4293_1638)">
<path d="M23.5312 12.2373H22.588V8.94066C22.588 7.90365 21.7443 7.05994 20.7073 7.05994H19.7434C19.7049 6.96235 19.1277 5.57232 18.4708 3.98541C18.0739 3.02733 16.9715 2.57068 16.0134 2.96766L15.6144 3.13294L14.7661 1.80854C14.2061 0.933288 13.0437 0.677397 12.1682 1.23844C2.82009 7.22757 3.30548 6.88726 3.10519 7.05994H1.88072C0.843703 7.05994 0 7.90365 0 8.94066V21.1779C0 22.215 0.843703 23.0587 1.88072 23.0587H20.7073C21.7443 23.0587 22.588 22.215 22.588 21.1779V17.8814H23.5312C23.7901 17.8814 24 17.6715 24 17.4127V12.706C24 12.4472 23.7901 12.2373 23.5312 12.2373ZM16.3722 3.83377C16.8526 3.63469 17.4055 3.86372 17.6047 4.34424L18.7297 7.05999H8.58455C8.91614 6.92255 16.0498 3.96732 16.3722 3.83377ZM12.6737 2.02791C13.1124 1.74685 13.6952 1.8743 13.9765 2.31394L14.7345 3.49744L6.135 7.05994H4.80816L12.6737 2.02791ZM21.6505 21.1779C21.6505 21.6981 21.2274 22.1212 20.7073 22.1212H1.88072C1.36059 22.1212 0.9375 21.6981 0.9375 21.1779V8.94066C0.9375 8.42054 1.36059 7.99744 1.88072 7.99744H20.7073C21.2274 7.99744 21.6505 8.42054 21.6505 8.94066V12.2373H18.3444C16.7936 12.2373 15.5319 13.4989 15.5319 15.0497V15.0689C15.5319 16.6197 16.7936 17.8814 18.3444 17.8814H21.6505V21.1779ZM23.0625 16.9439C22.4824 16.9439 18.9451 16.9439 18.3444 16.9439C17.3105 16.9439 16.4694 16.1027 16.4694 15.0689V15.0497C16.4694 14.0159 17.3105 13.1748 18.3444 13.1748H23.0625V16.9439Z" fill="white"/>
<path d="M17.8853 15.0596C17.8853 15.3184 18.0951 15.5283 18.354 15.5283H18.8247C19.0835 15.5283 19.2934 15.3184 19.2934 15.0596C19.2934 14.8007 19.0835 14.5908 18.8247 14.5908H18.354C18.0951 14.5908 17.8853 14.8007 17.8853 15.0596Z" fill="white"/>
</g>
<defs>
<clipPath id="clip0_4293_1638">
<rect width="24" height="24" fill="white"/>
</clipPath>
</defs>
</svg>
