<svg width="24" height="24" viewBox="0 0 24 24" fill="none" xmlns="http://www.w3.org/2000/svg">
<g clip-path="url(#clip0_4330_912)">
<path d="M21.9617 12.8558H14.8941C14.3537 12.8564 13.8356 13.0713 13.4535 13.4535C13.0713 13.8356 12.8564 14.3537 12.8558 14.8941V21.9617C12.8564 22.5021 13.0713 23.0202 13.4535 23.4023C13.8356 23.7845 14.3537 23.9994 14.8941 24H21.9617C22.5021 23.9994 23.0202 23.7845 23.4023 23.4023C23.7845 23.0202 23.9994 22.5021 24 21.9617V14.8941C23.9994 14.3537 23.7845 13.8356 23.4023 13.4535C23.0202 13.0713 22.5021 12.8564 21.9617 12.8558ZM22.875 21.9617C22.8747 22.2039 22.7784 22.436 22.6072 22.6072C22.436 22.7784 22.2039 22.8747 21.9617 22.875H14.8941C14.6519 22.8747 14.4198 22.7784 14.2486 22.6072C14.0774 22.436 13.9811 22.2039 13.9808 21.9617V14.8941C13.9811 14.6519 14.0774 14.4198 14.2486 14.2486C14.4198 14.0774 14.6519 13.9811 14.8941 13.9808H21.9617C22.2039 13.9811 22.436 14.0774 22.6072 14.2486C22.7784 14.4198 22.8747 14.6519 22.875 14.8941V21.9617ZM2.03827 11.1442H9.10594C9.64633 11.1436 10.1644 10.9287 10.5465 10.5465C10.9287 10.1644 11.1436 9.64633 11.1442 9.10594V2.03827C11.1436 1.49787 10.9287 0.979783 10.5465 0.597666C10.1644 0.215548 9.64633 0.000607932 9.10594 0L2.03827 0C1.49787 0.000607932 0.979783 0.215548 0.597666 0.597666C0.215548 0.979783 0.000607932 1.49787 0 2.03827L0 9.10594C0.000607932 9.64633 0.215548 10.1644 0.597666 10.5465C0.979783 10.9287 1.49787 11.1436 2.03827 11.1442ZM1.125 2.03827C1.12527 1.79614 1.22158 1.564 1.39279 1.39279C1.564 1.22158 1.79614 1.12527 2.03827 1.125H9.10594C9.34807 1.12527 9.5802 1.22158 9.75141 1.39279C9.92262 1.564 10.0189 1.79614 10.0192 2.03827V9.10594C10.0189 9.34807 9.92262 9.5802 9.75141 9.75141C9.5802 9.92262 9.34807 10.0189 9.10594 10.0192H2.03827C1.79614 10.0189 1.564 9.92262 1.39279 9.75141C1.22158 9.5802 1.12527 9.34807 1.125 9.10594V2.03827ZM2.03827 24H9.10594C9.64633 23.9994 10.1644 23.7845 10.5465 23.4023C10.9287 23.0202 11.1436 22.5021 11.1442 21.9617V14.8941C11.1436 14.3537 10.9287 13.8356 10.5465 13.4535C10.1644 13.0713 9.64633 12.8564 9.10594 12.8558H2.03827C1.49787 12.8564 0.979783 13.0713 0.597666 13.4535C0.215548 13.8356 0.000607932 14.3537 0 14.8941L0 21.9617C0.000607932 22.5021 0.215548 23.0202 0.597666 23.4023C0.979783 23.7845 1.49787 23.9994 2.03827 24ZM1.125 14.8941C1.12527 14.6519 1.22158 14.4198 1.39279 14.2486C1.564 14.0774 1.79614 13.9811 2.03827 13.9808H9.10594C9.34807 13.9811 9.5802 14.0774 9.75141 14.2486C9.92262 14.4198 10.0189 14.6519 10.0192 14.8941V21.9617C10.0189 22.2039 9.92262 22.436 9.75141 22.6072C9.5802 22.7784 9.34807 22.8747 9.10594 22.875H2.03827C1.79614 22.8747 1.564 22.7784 1.39279 22.6072C1.22158 22.436 1.12527 22.2039 1.125 21.9617V14.8941ZM18.4279 11.1385C19.5288 11.1385 20.605 10.812 21.5204 10.2004C22.4358 9.58873 23.1493 8.71937 23.5706 7.70224C23.9919 6.68511 24.1021 5.56589 23.8873 4.48611C23.6725 3.40633 23.1424 2.41449 22.3639 1.63602C21.5854 0.857544 20.5936 0.327399 19.5138 0.112623C18.434 -0.102153 17.3148 0.00808744 16.2977 0.429403C15.2805 0.850718 14.4112 1.56419 13.7996 2.47958C13.1879 3.39498 12.8615 4.47119 12.8615 5.57212C12.8631 7.04791 13.4501 8.46277 14.4937 9.5063C15.5372 10.5498 16.9521 11.1368 18.4279 11.1385ZM18.4279 1.13067C19.3063 1.13067 20.165 1.39116 20.8954 1.87918C21.6258 2.36721 22.195 3.06086 22.5312 3.87243C22.8674 4.68399 22.9553 5.577 22.7839 6.43855C22.6126 7.3001 22.1896 8.09149 21.5684 8.71263C20.9473 9.33377 20.1559 9.75677 19.2943 9.92814C18.4328 10.0995 17.5398 10.0116 16.7282 9.6754C15.9167 9.33924 15.223 8.76998 14.735 8.03959C14.247 7.30921 13.9865 6.45051 13.9865 5.57208C13.9878 4.39456 14.4562 3.26565 15.2888 2.43303C16.1214 1.6004 17.2504 1.132 18.4279 1.13067Z" fill="#1FBAD6"/>
</g>
<defs>
<clipPath id="clip0_4330_912">
<rect width="24" height="24" fill="white"/>
</clipPath>
</defs>
</svg>
