<svg width="16" height="17" viewBox="0 0 16 17" fill="none" xmlns="http://www.w3.org/2000/svg">
<g clip-path="url(#clip0_4262_660)">
<path d="M11 1H2C0.897 1 0 1.897 0 3V9C0 10.103 0.897 11 2 11V13.5C2 13.695 2.114 13.873 2.291 13.954C2.358 13.985 2.429 14 2.5 14C2.617 14 2.733 13.959 2.825 13.879L6.185 11H11C12.103 11 13 10.103 13 9V3C13 1.897 12.103 1 11 1ZM12 9C12 9.551 11.551 10 11 10H6C5.881 10 5.765 10.042 5.675 10.121L3 12.413V10.5C3 10.224 2.776 10 2.5 10H2C1.449 10 1 9.551 1 9V3C1 2.449 1.449 2 2 2H11C11.551 2 12 2.449 12 3V9Z" fill="#232232"/>
<path d="M14.663 4.11686C14.401 4.02686 14.118 4.16486 14.027 4.42686C13.937 4.68786 14.075 4.97186 14.337 5.06286C14.733 5.19886 15 5.57586 15 5.99986V11.9999C15 12.5509 14.551 12.9999 14 12.9999H13.5C13.224 12.9999 13 13.2239 13 13.4999V15.4129L10.325 13.1209C10.235 13.0419 10.119 12.9999 10 12.9999H5.57001C5.29401 12.9999 5.07001 13.2239 5.07001 13.4999C5.07001 13.7759 5.29301 13.9999 5.57001 13.9999H9.81501L13.175 16.8789C13.267 16.9589 13.383 16.9999 13.5 16.9999C13.571 16.9999 13.642 16.9849 13.709 16.9539C13.886 16.8729 14 16.6949 14 16.4999V13.9999C15.103 13.9999 16 13.1029 16 11.9999V5.99986C16 5.14986 15.463 4.39286 14.663 4.11686Z" fill="#232232"/>
<path d="M9.5 4H3.5C3.224 4 3 4.224 3 4.5C3 4.776 3.224 5 3.5 5H9.5C9.776 5 10 4.776 10 4.5C10 4.224 9.776 4 9.5 4Z" fill="#232232"/>
<path d="M7.5 6H3.5C3.224 6 3 6.224 3 6.5C3 6.776 3.224 7 3.5 7H7.5C7.776 7 8 6.776 8 6.5C8 6.224 7.776 6 7.5 6Z" fill="#232232"/>
</g>
<defs>
<clipPath id="clip0_4262_660">
<rect width="16" height="16" fill="white" transform="translate(0 0.5)"/>
</clipPath>
</defs>
</svg>
