<svg width="33" height="34" viewBox="0 0 33 34" fill="none" xmlns="http://www.w3.org/2000/svg">
<g clip-path="url(#clip0_4447_3971)">
<path d="M10.1316 16.9927H11.07V17.9646H10.1316V16.9927Z" fill="#0A0919"/>
<path d="M12.0085 16.9927H12.947V17.9646H12.0085V16.9927Z" fill="#0A0919"/>
<path d="M16.5 0.971931C20.3531 0.971931 24.0192 2.47804 26.8231 5.21279L27.4665 4.50522C24.4878 1.59999 20.5932 0 16.5 0C12.2264 0 8.20853 1.72375 5.18639 4.85376C2.16437 7.98377 0.5 12.1452 0.5 16.5714C0.5 20.9007 2.10225 24.9966 5.01159 28.1044L5.68538 27.4279C2.94664 24.5023 1.43842 20.6468 1.43842 16.5714C1.43842 7.96983 8.19501 0.971931 16.5 0.971931Z" fill="#0A0919"/>
<path d="M28.1502 5.21338L27.4671 5.87973C30.1075 8.78367 31.5617 12.5807 31.5617 16.5715C31.5617 25.1731 24.8051 32.171 16.5001 32.171C12.7286 32.171 9.11973 30.72 6.33838 28.0854L5.70508 28.8025C8.65978 31.6015 12.4936 33.1429 16.5001 33.1429C20.7737 33.1429 24.7917 31.4192 27.8137 28.2892C30.8358 25.1592 32.5001 20.9977 32.5001 16.5715C32.5001 12.3321 30.9553 8.29842 28.1502 5.21338Z" fill="#0A0919"/>
<path d="M7.23587 6.93C4.72523 9.32095 3.2638 12.8388 3.22633 16.5817C3.18885 20.3194 4.57602 23.8629 7.03254 26.3055C9.45754 28.9104 12.8975 30.2543 16.3346 30.2543C19.0497 30.2543 21.7631 29.4148 23.9703 27.6951L24.3647 27.3878L7.59822 6.58496L7.23587 6.93ZM16.329 29.2904C13.1414 29.2902 9.94933 28.0422 7.70207 25.6244L7.68868 25.6106C5.41434 23.3528 4.12996 20.0655 4.16474 16.5918C4.19771 13.2974 5.41309 10.1961 7.51602 7.99964L10.3081 11.4638H8.22871C7.02135 11.4638 6.03907 12.4811 6.03907 13.7316V20.9019C6.03907 22.1524 7.02135 23.1697 8.22871 23.1697H10.0768V26.0709L13.5784 23.1697H16.8309C17.6644 23.1697 18.3962 22.6765 18.7654 21.9573L23.0045 27.2168C21.0355 28.61 18.6837 29.2906 16.329 29.2904ZM8.22871 22.1978C7.53879 22.1978 6.97749 21.6165 6.97749 20.9019V13.7316C6.97749 13.0171 7.53879 12.4357 8.22871 12.4357H11.0914L18.0671 21.0908C17.9778 21.7144 17.4545 22.1978 16.8309 22.1978H13.2492L11.0152 24.0488V22.1978H8.22871Z" fill="#0A0919"/>
<path d="M25.7642 26.2129C28.2747 23.8224 29.7361 20.3048 29.7737 16.5621C29.8114 12.8241 28.4243 9.28028 25.9677 6.83749C21.6276 2.17572 14.0313 1.55187 9.02983 5.44763L8.63525 5.75495L25.4018 26.5578L25.7642 26.2129ZM25.2982 7.51862L25.3115 7.53242C27.5859 9.79035 28.8703 13.0779 28.8354 16.5519C28.8023 19.8462 27.5869 22.9473 25.4841 25.1433L20.9864 19.5629H22.613C23.7341 19.5629 24.6462 18.6181 24.6462 17.457V16.3231H27.4232L24.6462 12.4396V9.70294C24.6462 8.5418 23.7341 7.59709 22.613 7.59709H14.3236C13.4609 7.59709 12.7224 8.15673 12.4276 8.94373L9.99558 5.92621C14.6304 2.64775 21.3913 3.31541 25.2982 7.51862ZM18.0823 15.9596L15.2418 12.4354H16.8311C17.521 12.4354 18.0823 13.0167 18.0823 13.7313V15.9596ZM16.8311 11.4634H14.4584L13.2287 9.93776V9.703C13.2287 9.07779 13.7199 8.56908 14.3236 8.56908H22.6129C23.2166 8.56908 23.7077 9.07779 23.7077 9.703V12.7604L25.5603 15.3512H23.7078V17.4571C23.7078 18.0823 23.2166 18.591 22.613 18.591H20.2031L19.0207 17.124V13.7313C19.0207 12.4808 18.0384 11.4634 16.8311 11.4634Z" fill="#0A0919"/>
</g>
<defs>
<clipPath id="clip0_4447_3971">
<rect width="32" height="33.1429" fill="white" transform="translate(0.5)"/>
</clipPath>
</defs>
</svg>
