<svg width="22" height="22" viewBox="0 0 22 22" fill="none" xmlns="http://www.w3.org/2000/svg">
<g clip-path="url(#clip0_6210_2531)">
<path d="M18.9557 0.437012H3.04562C1.36641 0.437012 0 1.80256 0 3.48135V13.7621C0 15.4408 1.36641 16.8064 3.04562 16.8064H5.52019C5.56875 17.7964 5.09738 18.7688 4.64062 19.7102C4.50183 19.996 4.35875 20.2916 4.23156 20.5842C4.11769 20.8467 4.16797 21.1338 4.36305 21.3331C4.50914 21.4823 4.72269 21.5626 4.94183 21.5626C5.05441 21.5626 5.16828 21.5415 5.2757 21.4977C7.96469 20.4115 9.81277 18.9321 11.0902 16.8442C11.119 16.8287 11.202 16.806 11.4417 16.806H18.9565C20.6353 16.806 22.0009 15.4404 22.0009 13.7616V3.48135C22 1.80256 20.6344 0.437012 18.9557 0.437012ZM7.09285 9.84717C6.41738 9.84717 5.86824 9.29717 5.86824 8.62127C5.86824 7.9458 6.41781 7.39666 7.09285 7.39666C7.76789 7.39666 8.31746 7.94623 8.31746 8.62127C8.31746 9.29717 7.76789 9.84717 7.09285 9.84717ZM11 9.84717C10.3245 9.84717 9.77539 9.29717 9.77539 8.62127C9.77539 7.9458 10.325 7.39666 11 7.39666C11.675 7.39666 12.2246 7.94623 12.2246 8.62127C12.2246 9.29717 11.6755 9.84717 11 9.84717ZM14.9084 9.84717C14.233 9.84717 13.6838 9.29717 13.6838 8.62127C13.6838 7.9458 14.2334 7.39666 14.9084 7.39666C15.5835 7.39666 16.133 7.94623 16.133 8.62127C16.133 9.29717 15.5839 9.84717 14.9084 9.84717Z" fill="#44B1C2"/>
</g>
<defs>
<clipPath id="clip0_6210_2531">
<rect width="22" height="22" fill="white"/>
</clipPath>
</defs>
</svg>
