<svg width="24" height="24" viewBox="0 0 24 24" fill="none" xmlns="http://www.w3.org/2000/svg">
<g clip-path="url(#clip0_4261_353)">
<path d="M16.3424 15.0639C16.3424 15.5817 15.9227 16.0014 15.4049 16.0014C14.8872 16.0014 14.4674 15.5817 14.4674 15.0639C14.4674 14.5462 14.8872 14.1264 15.4049 14.1264C15.9227 14.1264 16.3424 14.5462 16.3424 15.0639ZM11.362 14.1264C10.8442 14.1264 10.4245 14.5462 10.4245 15.0639C10.4245 15.5817 10.8442 16.0014 11.362 16.0014C11.8797 16.0014 12.2995 15.5817 12.2995 15.0639C12.2995 14.5462 11.8797 14.1264 11.362 14.1264ZM19.4479 14.1264C18.9302 14.1264 18.5104 14.5462 18.5104 15.0639C18.5104 15.5817 18.9302 16.0014 19.4479 16.0014C19.9656 16.0014 20.3854 15.5817 20.3854 15.0639C20.3854 14.5462 19.9656 14.1264 19.4479 14.1264ZM23.9667 22.9289C23.8962 23.1057 23.7258 23.2225 23.5354 23.2242C21.8846 23.2372 21.0959 23.0177 19.788 22.3571C18.4519 23.1723 16.9227 23.6018 15.3476 23.6018C13.493 23.6018 11.7748 23.0071 10.3731 21.9987C8.56403 21.9023 6.80866 21.3521 5.27158 20.4004C3.57691 21.262 2.58044 21.5487 0.464642 21.5306C0.274235 21.5289 0.103798 21.4123 0.0332978 21.2354C-0.0371553 21.0585 0.00634469 20.8566 0.143407 20.7244C1.49988 19.4164 1.78609 18.462 1.82866 16.9977C0.727798 15.267 0.146735 13.2678 0.146735 11.2062C0.146735 8.31921 1.27099 5.60501 3.31239 3.56361C5.3538 1.5222 8.068 0.397949 10.955 0.397949C13.521 0.397949 16.0085 1.31304 17.9591 2.97471C19.8525 4.5875 21.1353 6.8075 21.583 9.23834C23.0103 10.7651 23.8855 12.8141 23.8855 15.064C23.8855 16.6819 23.4325 18.2511 22.5739 19.6122C22.6098 20.7089 22.8336 21.4315 23.8567 22.418C23.9937 22.5501 24.0372 22.7521 23.9667 22.9289ZM5.55339 19.4684C6.64141 20.1812 7.85753 20.6684 9.12864 20.9071C7.69164 19.3786 6.80983 17.3224 6.80983 15.0639C6.80983 10.3561 10.6399 6.52601 15.3477 6.52601C17.2113 6.52601 18.937 7.12662 20.3424 8.14381C19.0432 4.12568 15.2965 1.33545 10.955 1.33545C5.51223 1.33545 1.08424 5.76345 1.08424 11.2062C1.08424 13.1341 1.64045 15.0019 2.69275 16.6077C2.74441 16.6866 2.77113 16.7791 2.76934 16.8734C2.743 18.2868 2.52189 19.369 1.56044 20.5682C2.8788 20.4826 3.68097 20.171 5.08052 19.4444C5.2308 19.3664 5.41159 19.3755 5.55339 19.4684ZM22.4555 22.2484C21.808 21.3644 21.6526 20.5422 21.633 19.4886C21.6312 19.3944 21.6579 19.3018 21.7096 19.2229C22.5198 17.9866 22.948 16.5484 22.948 15.0639C22.948 10.8731 19.5385 7.46351 15.3476 7.46351C11.1568 7.46351 7.74728 10.873 7.74728 15.0639C7.74728 19.2548 11.1568 22.6643 15.3476 22.6643C16.8318 22.6643 18.2701 22.236 19.5068 21.4258C19.6485 21.3329 19.8293 21.3237 19.9797 21.4018C20.972 21.9171 21.5746 22.1614 22.4555 22.2484Z" fill="#716E6E"/>
</g>
<defs>
<clipPath id="clip0_4261_353">
<rect width="24" height="24" fill="white"/>
</clipPath>
</defs>
</svg>
