<svg width="13" height="10" viewBox="0 0 13 10" fill="none" xmlns="http://www.w3.org/2000/svg">
<g clip-path="url(#clip0_4262_630)">
<path d="M5.49998 9.76998C8.13438 9.76998 10.27 7.63438 10.27 4.99998C10.27 2.36558 8.13438 0.22998 5.49998 0.22998C2.86558 0.22998 0.72998 2.36558 0.72998 4.99998C0.72998 7.63438 2.86558 9.76998 5.49998 9.76998Z" fill="#1FBAD6"/>
<path fill-rule="evenodd" clip-rule="evenodd" d="M4.01055 7.3263L2.266 5.45913C2.02717 5.2035 2.04088 4.79907 2.2965 4.56023C2.55213 4.32139 2.95657 4.33514 3.1954 4.59073L4.54107 6.03097L6.67108 4.04082C6.69024 4.02291 6.71026 4.0065 6.73095 3.9914L7.73261 3.05554C7.98824 2.8167 8.39271 2.83045 8.63151 3.08607C8.87035 3.34166 8.8566 3.74614 8.60102 3.98497L5.54168 6.84341L5.53841 6.83991L4.48015 7.82869L4.01055 7.3263Z" fill="white"/>
</g>
<defs>
<clipPath id="clip0_4262_630">
<rect width="12" height="10" fill="white" transform="translate(0.5)"/>
</clipPath>
</defs>
</svg>
