<svg width="9" height="10" viewBox="0 0 9 10" fill="none" xmlns="http://www.w3.org/2000/svg">
<path d="M5.32454 5.00737L8.82896 1.48682C9.05702 1.25782 9.05702 0.887562 8.82896 0.658564C8.601 0.429567 8.23243 0.429567 8.00448 0.658564L4.49995 4.17912L0.995528 0.658564C0.767466 0.429567 0.399001 0.429567 0.171046 0.658564C-0.0570154 0.887562 -0.0570154 1.25782 0.171046 1.48682L3.67547 5.00737L0.171046 8.52792C-0.0570154 8.75692 -0.0570154 9.12717 0.171046 9.35617C0.28465 9.4704 0.434022 9.52779 0.583287 9.52779C0.732552 9.52779 0.881817 9.4704 0.995528 9.35617L4.49995 5.83562L8.00448 9.35617C8.11819 9.4704 8.26745 9.52779 8.41672 9.52779C8.56598 9.52779 8.71525 9.4704 8.82896 9.35617C9.05702 9.12717 9.05702 8.75692 8.82896 8.52792L5.32454 5.00737Z" fill="black"/>
</svg>
