<svg width="83" height="81" viewBox="0 0 83 81" fill="none" xmlns="http://www.w3.org/2000/svg">
<path d="M0 20H83V73C83 77.4183 79.4183 81 75 81H8C3.58172 81 0 77.4183 0 73V20Z" fill="white"/>
<path d="M41.5056 48V34.896L37.7876 37.288L36.1496 34.61L41.8176 30.84H45.0936V48H41.5056Z" fill="#0A0919"/>
<path d="M24.9968 69V61H26.2448V68.328L25.6688 67.864H27.9728V69H24.9968ZM21.5408 63.72V62.568H24.9968V63.72H21.5408ZM18.6128 72.536C18.4741 72.536 18.3301 72.5253 18.1807 72.504C18.0207 72.4933 17.8661 72.4827 17.7167 72.472L17.8607 71.336C18.0101 71.3467 18.1487 71.3573 18.2767 71.368C18.4047 71.3893 18.5168 71.4 18.6128 71.4C19.1141 71.4 19.5194 71.208 19.8288 70.824C20.1381 70.4507 20.2928 69.928 20.2928 69.256V61H21.5408V69.256C21.5408 69.9067 21.4128 70.4773 21.1568 70.968C20.9114 71.4693 20.5701 71.8533 20.1328 72.12C19.6954 72.3973 19.1888 72.536 18.6128 72.536ZM27.9728 69V67.864C28.1114 67.864 28.1968 67.9173 28.2288 68.024C28.2714 68.12 28.2928 68.2533 28.2928 68.424C28.2928 68.5947 28.2714 68.7333 28.2288 68.84C28.1968 68.9467 28.1114 69 27.9728 69ZM24.9968 71.88V70.44H26.2448V71.88H24.9968ZM37.0408 69V67.864H38.7688V69H37.0408ZM27.9688 69V67.864H36.7208L35.7928 68.52V65.08C35.7928 64.3333 35.7074 63.7467 35.5368 63.32C35.3661 62.8933 35.0728 62.5893 34.6568 62.408C34.2514 62.2267 33.6968 62.136 32.9928 62.136C32.5448 62.136 32.0968 62.168 31.6488 62.232C31.2114 62.296 30.8701 62.3813 30.6248 62.488L31.3768 61.72C31.3128 61.976 31.2488 62.3013 31.1848 62.696C31.1208 63.08 31.0674 63.496 31.0248 63.944C30.9821 64.392 30.9608 64.84 30.9608 65.288C30.9608 65.7467 30.9821 66.1947 31.0248 66.632C31.0674 67.0693 31.1154 67.448 31.1688 67.768C31.2221 68.088 31.2648 68.312 31.2968 68.44L30.1128 68.776C30.0701 68.6373 30.0168 68.3973 29.9528 68.056C29.8994 67.7147 29.8461 67.304 29.7928 66.824C29.7501 66.344 29.7288 65.832 29.7288 65.288C29.7288 64.7653 29.7501 64.2587 29.7928 63.768C29.8461 63.2667 29.9048 62.8133 29.9688 62.408C30.0434 62.0027 30.1128 61.6773 30.1768 61.432C30.4114 61.336 30.7848 61.24 31.2968 61.144C31.8088 61.048 32.3741 61 32.9928 61C33.8888 61 34.6354 61.1333 35.2328 61.4C35.8408 61.6667 36.2941 62.0987 36.5928 62.696C36.8914 63.2827 37.0408 64.0773 37.0408 65.08V69H27.9688ZM27.9688 69C27.8301 69 27.7447 68.9467 27.7127 68.84C27.6701 68.7333 27.6487 68.5947 27.6487 68.424C27.6487 68.2533 27.6701 68.12 27.7127 68.024C27.7447 67.9173 27.8301 67.864 27.9688 67.864V69ZM38.7688 69V67.864C38.9074 67.864 38.9928 67.9173 39.0248 68.024C39.0674 68.12 39.0888 68.2533 39.0888 68.424C39.0888 68.5947 39.0674 68.7333 39.0248 68.84C38.9928 68.9467 38.9074 69 38.7688 69ZM50.7976 69V67.864H52.5256V69H50.7976ZM47.1816 69C46.819 69 46.4616 68.9307 46.1096 68.792C45.7683 68.6533 45.4376 68.4347 45.1176 68.136L45.9336 67.288C46.179 67.4907 46.3976 67.64 46.5896 67.736C46.7816 67.8213 46.979 67.864 47.1816 67.864H50.0296L49.5496 68.376V64.552C49.5496 64.36 49.5283 64.088 49.4856 63.736C49.4536 63.384 49.4003 62.9893 49.3256 62.552C49.2616 62.104 49.1816 61.656 49.0856 61.208L50.3016 61C50.3763 61.3733 50.451 61.7893 50.5256 62.248C50.6003 62.7067 50.6643 63.144 50.7176 63.56C50.771 63.9653 50.7976 64.296 50.7976 64.552V69H47.1816ZM38.7656 69V67.864H41.1016L40.7816 68.184V62.6H42.0136V69H38.7656ZM42.0136 69V67.864H43.8216C44.1843 67.864 44.4563 67.8107 44.6376 67.704C44.8296 67.5973 44.963 67.384 45.0376 67.064C45.1123 66.744 45.1496 66.2747 45.1496 65.656V61.8H46.3976V65.656C46.3976 66.488 46.307 67.1493 46.1256 67.64C45.955 68.1307 45.683 68.4827 45.3096 68.696C44.9363 68.8987 44.4403 69 43.8216 69H42.0136ZM38.7656 69C38.627 69 38.5416 68.9467 38.5096 68.84C38.467 68.7333 38.4456 68.5947 38.4456 68.424C38.4456 68.2533 38.467 68.12 38.5096 68.024C38.5416 67.9173 38.627 67.864 38.7656 67.864V69ZM52.5256 69V67.864C52.6643 67.864 52.7496 67.9173 52.7816 68.024C52.8243 68.12 52.8456 68.2533 52.8456 68.424C52.8456 68.5947 52.8243 68.7333 52.7816 68.84C52.7496 68.9467 52.6643 69 52.5256 69ZM52.5312 69V67.864H54.8353L54.2593 68.328V61H55.5073V69H52.5312ZM52.5312 69C52.3926 69 52.3072 68.9467 52.2752 68.84C52.2326 68.7333 52.2112 68.5947 52.2112 68.424C52.2112 68.2533 52.2326 68.12 52.2752 68.024C52.3072 67.9173 52.3926 67.864 52.5312 67.864V69ZM53.1713 71.88V70.44H54.4193V71.88H53.1713ZM55.3633 71.88V70.44H56.6113V71.88H55.3633ZM57.4369 69V67.864H63.4049L62.3809 68.776V65.288C62.3809 64.4987 62.2902 63.8747 62.1089 63.416C61.9275 62.9573 61.6289 62.632 61.2129 62.44C60.8075 62.2373 60.2582 62.136 59.5649 62.136H58.2689V61H59.5649C60.4182 61 61.1489 61.1333 61.7569 61.4C62.3649 61.6667 62.8289 62.1147 63.1489 62.744C63.4689 63.3627 63.6289 64.2107 63.6289 65.288V69H57.4369Z" fill="#0A0919"/>
<path d="M0 8C0 3.58172 3.58172 0 8 0H75C79.4183 0 83 3.58172 83 8V20H0V8Z" fill="#E24A59"/>
</svg>
