<svg width="83" height="81" viewBox="0 0 83 81" fill="none" xmlns="http://www.w3.org/2000/svg">
<path d="M0 20H83V73C83 77.4183 79.4183 81 75 81H8C3.58172 81 0 77.4183 0 73V20Z" fill="white"/>
<path d="M34.7312 50V36.896L31.0132 39.288L29.3752 36.61L35.0432 32.84H38.3192V50H34.7312ZM48.448 50.312C46.862 50.312 44.574 49.87 43.3 49.558L43.612 46.802C44.756 46.958 46.862 47.192 48.448 47.192C50.814 47.192 51.906 45.606 51.906 42.98C51.906 42.954 49.878 43.76 48.63 43.76C44.912 43.76 42.728 41.992 42.728 38.274C42.728 34.66 45.146 32.528 49.02 32.528C53.544 32.528 55.598 35.882 55.598 41.316C55.598 48.128 52.842 50.312 48.448 50.312ZM48.942 40.64C49.956 40.64 51.256 40.302 51.932 40.042C51.932 37.624 51.204 35.648 49.02 35.648C47.356 35.648 46.42 36.61 46.42 38.274C46.42 39.86 47.356 40.64 48.942 40.64Z" fill="#0A0919"/>
<path d="M27.9846 71V59.944H30.3686L34.5286 69.864H34.8486V59.944H36.1286V71H33.7926L29.5686 61.08H29.2646V71H27.9846ZM42.7488 71.16C41.5968 71.16 40.7008 70.9467 40.0608 70.52C39.4314 70.0933 38.9888 69.464 38.7328 68.632C38.4874 67.7893 38.3648 66.7547 38.3648 65.528C38.3648 64.3013 38.4928 63.2613 38.7488 62.408C39.0048 61.5547 39.4474 60.904 40.0768 60.456C40.7168 59.9973 41.6074 59.768 42.7488 59.768C43.8901 59.768 44.7754 59.992 45.4048 60.44C46.0448 60.888 46.4928 61.544 46.7488 62.408C47.0048 63.2613 47.1328 64.3013 47.1328 65.528C47.1328 66.7867 47.0048 67.8373 46.7488 68.68C46.5034 69.512 46.0608 70.136 45.4208 70.552C44.7914 70.9573 43.9008 71.16 42.7488 71.16ZM42.7488 70.024C43.5914 70.024 44.2314 69.864 44.6688 69.544C45.1061 69.224 45.4048 68.7333 45.5648 68.072C45.7248 67.4 45.8048 66.552 45.8048 65.528C45.8048 64.536 45.7194 63.6987 45.5487 63.016C45.3888 62.3227 45.0901 61.8 44.6528 61.448C44.2154 61.0853 43.5808 60.904 42.7488 60.904C41.9168 60.904 41.2821 61.0853 40.8448 61.448C40.4074 61.8 40.1034 62.3173 39.9328 63C39.7728 63.6827 39.6928 64.5253 39.6928 65.528C39.6928 66.52 39.7728 67.352 39.9328 68.024C40.0928 68.6853 40.3914 69.1867 40.8288 69.528C41.2661 69.8587 41.9061 70.024 42.7488 70.024ZM51.2953 71L48.4153 59.944H49.7433L52.2552 69.864H53.1353L55.6473 59.944H56.9753L54.1113 71H51.2953Z" fill="#0A0919"/>
<path d="M0 8C0 3.58172 3.58172 0 8 0H75C79.4183 0 83 3.58172 83 8V20H0V8Z" fill="#E24A59"/>
</svg>
