<svg width="83" height="81" viewBox="0 0 83 81" fill="none" xmlns="http://www.w3.org/2000/svg">
<path d="M0 20H83V73C83 77.4183 79.4183 81 75 81H8C3.58172 81 0 77.4183 0 73V20Z" fill="white"/>
<path d="M42.0056 50V36.896L38.2876 39.288L36.6496 36.61L42.3176 32.84H45.5936V50H42.0056Z" fill="#0A0919"/>
<path d="M29.4221 71V59.944H33.3741C34.1848 59.944 34.8568 60.0773 35.3901 60.344C35.9235 60.6 36.3448 60.968 36.6541 61.448C36.9635 61.9173 37.1821 62.4827 37.3101 63.144C37.4381 63.7947 37.5021 64.5147 37.5021 65.304C37.5021 66.104 37.4381 66.8507 37.3101 67.544C37.1928 68.2267 36.9795 68.8293 36.6701 69.352C36.3608 69.8747 35.9395 70.28 35.4061 70.568C34.8728 70.856 34.1955 71 33.3741 71H29.4221ZM30.7021 69.864H33.3741C33.9501 69.864 34.4195 69.7413 34.7821 69.496C35.1448 69.2507 35.4275 68.9147 35.6301 68.488C35.8328 68.0613 35.9715 67.576 36.0461 67.032C36.1315 66.488 36.1741 65.912 36.1741 65.304C36.1741 64.7067 36.1315 64.152 36.0461 63.64C35.9715 63.128 35.8328 62.68 35.6301 62.296C35.4275 61.912 35.1448 61.6133 34.7821 61.4C34.4195 61.1867 33.9501 61.08 33.3741 61.08H30.7021V69.864ZM39.719 71V59.944H46.487V61.08H40.999V64.824H45.527V65.944H40.999V69.864H46.487V71H39.719ZM52.2108 71.16C51.3788 71.16 50.6961 71.0373 50.1628 70.792C49.6401 70.5467 49.2294 70.184 48.9308 69.704C48.6321 69.224 48.4241 68.632 48.3068 67.928C48.2001 67.224 48.1468 66.4133 48.1468 65.496C48.1468 64.5573 48.2001 63.7307 48.3068 63.016C48.4241 62.3013 48.6321 61.704 48.9308 61.224C49.2294 60.744 49.6401 60.3813 50.1628 60.136C50.6961 59.8907 51.3788 59.768 52.2108 59.768C52.5948 59.768 52.9734 59.7893 53.3468 59.832C53.7308 59.864 54.0881 59.912 54.4188 59.976C54.7494 60.0293 55.0321 60.0827 55.2668 60.136L55.2188 61.208C54.9841 61.1653 54.6961 61.1227 54.3548 61.08C54.0134 61.0373 53.6668 61 53.3148 60.968C52.9628 60.936 52.6428 60.92 52.3548 60.92C51.7468 60.92 51.2508 61.0107 50.8668 61.192C50.4934 61.3733 50.2054 61.656 50.0028 62.04C49.8001 62.4133 49.6614 62.888 49.5868 63.464C49.5121 64.0293 49.4748 64.7067 49.4748 65.496C49.4748 66.264 49.5121 66.936 49.5868 67.512C49.6614 68.0773 49.7948 68.5467 49.9868 68.92C50.1894 69.2827 50.4828 69.5547 50.8668 69.736C51.2508 69.9173 51.7521 70.008 52.3708 70.008C52.8188 70.008 53.3094 69.9813 53.8428 69.928C54.3868 69.864 54.8454 69.8 55.2188 69.736L55.2668 70.824C55.0108 70.8773 54.7121 70.9307 54.3708 70.984C54.0294 71.0373 53.6721 71.08 53.2988 71.112C52.9254 71.144 52.5628 71.16 52.2108 71.16Z" fill="#0A0919"/>
<path d="M0 8C0 3.58172 3.58172 0 8 0H75C79.4183 0 83 3.58172 83 8V20H0V8Z" fill="#E24A59"/>
</svg>
