<svg width="171" height="160" viewBox="0 0 171 160" fill="none" xmlns="http://www.w3.org/2000/svg">
<path d="M112.993 61.5848L83.9127 90.6648L76.6426 97.9349L69.3751 90.6648L57.2577 78.5473L64.5278 71.2773L76.6452 83.3947L105.723 54.3147L112.993 61.5848Z" fill="#00CCCC"/>
<path d="M76.6427 100.335C76.0059 100.335 75.3953 100.082 74.9454 99.6318L55.5607 80.2446C54.6235 79.307 54.6235 77.7877 55.5607 76.8504L62.8308 69.5806C63.2807 69.1304 63.8913 68.8776 64.5278 68.8776C65.1643 68.8776 65.7748 69.1304 66.2247 69.5806L76.6449 80.0011L104.025 52.6181C104.475 52.1682 105.086 51.915 105.723 51.915C106.359 51.915 106.969 52.1678 107.42 52.6181L114.69 59.8882C115.14 60.3381 115.393 60.9486 115.393 61.5851C115.393 62.2216 115.14 62.8322 114.69 63.2821L78.3396 99.6322C77.8897 100.082 77.2791 100.335 76.6427 100.335ZM60.6516 78.5474L76.643 94.5406L109.599 61.5848L105.723 57.709L78.3425 85.0917C77.8923 85.5419 77.282 85.7947 76.6452 85.7947C76.0088 85.7947 75.3982 85.5419 74.9483 85.092L64.5278 74.6715L60.6516 78.5474Z" fill="#0052B4"/>
<path d="M45.7501 78.5251H25.5002C24.1748 78.5251 23.1002 77.4509 23.1002 76.1251C23.1002 74.7997 24.1748 73.7251 25.5002 73.7251H45.7501C47.0756 73.7251 48.1501 74.7997 48.1501 76.1251C48.1501 77.4505 47.0756 78.5251 45.7501 78.5251Z" fill="#FFBC00"/>
<path d="M144.746 78.5251H124.5C123.174 78.5251 122.1 77.4509 122.1 76.1251C122.1 74.7997 123.174 73.7251 124.5 73.7251H144.746C146.072 73.7251 147.146 74.7997 147.146 76.1251C147.146 77.4505 146.072 78.5251 144.746 78.5251Z" fill="#FFBC00"/>
<path d="M85.1252 39.15C83.7998 39.15 82.7252 38.0755 82.7252 36.75V16.5001C82.7252 15.1747 83.7998 14.1001 85.1252 14.1001C86.451 14.1001 87.5252 15.1747 87.5252 16.5001V36.75C87.5252 38.0755 86.4507 39.15 85.1252 39.15Z" fill="#FFBC00"/>
<path d="M85.1252 138.303C83.7998 138.303 82.7252 137.229 82.7252 135.903V115.5C82.7252 114.174 83.7998 113.1 85.1252 113.1C86.451 113.1 87.5252 114.174 87.5252 115.5V135.903C87.5252 137.229 86.4507 138.303 85.1252 138.303Z" fill="#FFBC00"/>
<path d="M127.428 120.544C126.814 120.544 126.2 120.31 125.731 119.841L111.411 105.521C110.474 104.584 110.474 103.064 111.411 102.127C112.349 101.19 113.868 101.19 114.805 102.127L129.125 116.447C130.062 117.385 130.062 118.904 129.125 119.841C128.657 120.31 128.042 120.544 127.428 120.544Z" fill="#FFBC00"/>
<path d="M41.8983 119.619C41.2843 119.619 40.6699 119.385 40.2014 118.917C39.2641 117.979 39.2641 116.46 40.2014 115.523L54.5412 101.183C55.4785 100.246 56.9982 100.246 57.9351 101.183C58.8724 102.12 58.8724 103.64 57.9351 104.577L43.5953 118.916C43.1268 119.385 42.5124 119.619 41.8983 119.619Z" fill="#FFBC00"/>
<path d="M111.872 49.6316C111.258 49.6316 110.643 49.3974 110.175 48.9286C109.237 47.9913 109.237 46.4716 110.175 45.5346L124.492 31.2169C125.43 30.2796 126.949 30.2796 127.887 31.2169C128.824 32.1542 128.824 33.6738 127.887 34.6108L113.569 48.9286C113.1 49.397 112.486 49.6316 111.872 49.6316Z" fill="#FFBC00"/>
<path d="M57.2366 50.7295C56.6225 50.7295 56.0081 50.4953 55.5396 50.0265L41.2379 35.7251C40.3006 34.7878 40.3006 33.2681 41.2379 32.3311C42.1752 31.3939 43.6948 31.3939 44.6318 32.3311L58.9332 46.6326C59.8705 47.5699 59.8705 49.0895 58.9332 50.0265C58.4648 50.495 57.8507 50.7295 57.2366 50.7295Z" fill="#FFBC00"/>
<path d="M70.2564 42.0566C69.3025 42.0566 68.4004 41.4841 68.026 40.5439L64.2488 31.0591C63.7582 29.8278 64.3592 28.4319 65.5905 27.9414C66.8219 27.4511 68.2177 28.0518 68.7083 29.2831L72.4856 38.7679C72.9761 39.9993 72.3752 41.3951 71.1438 41.8857C70.8523 42.0015 70.5518 42.0566 70.2564 42.0566Z" fill="#FCCF5E"/>
<path d="M48.4721 64.1102C48.1905 64.1102 47.9038 64.0603 47.6247 63.9547L39.1739 60.7627C37.9339 60.2945 37.3083 58.9096 37.7767 57.6696C38.2449 56.4296 39.6295 55.804 40.8699 56.2725L49.3207 59.4645C50.5607 59.9326 51.1863 61.3176 50.7179 62.5576C50.355 63.5182 49.442 64.1102 48.4721 64.1102Z" fill="#FCCF5E"/>
<path d="M40.0238 97.8626C39.1975 97.8626 38.3937 97.4357 37.9476 96.6699C37.2807 95.5247 37.6683 94.0552 38.8135 93.3883L47.2644 88.4661C48.41 87.7989 49.8788 88.1861 50.5463 89.332C51.2132 90.4773 50.8257 91.9467 49.6804 92.6136L41.2295 97.5359C40.8497 97.7573 40.434 97.8626 40.0238 97.8626Z" fill="#FCCF5E"/>
<path d="M64.8711 123.375C64.5674 123.375 64.2589 123.317 63.9607 123.195C62.7345 122.692 62.1482 121.29 62.6516 120.063L66.385 110.966C66.8881 109.739 68.2897 109.153 69.5165 109.657C70.7428 110.16 71.329 111.562 70.8257 112.788L67.0922 121.886C66.7114 122.813 65.8157 123.375 64.8711 123.375Z" fill="#FCCF5E"/>
<path d="M105.598 123.375C104.671 123.375 103.788 122.835 103.395 121.931L99.4433 112.833C98.9153 111.617 99.4727 110.204 100.688 109.676C101.903 109.147 103.318 109.705 103.846 110.921L107.798 120.018C108.326 121.234 107.768 122.648 106.553 123.176C106.242 123.311 105.917 123.375 105.598 123.375Z" fill="#FCCF5E"/>
<path d="M129.879 96.446C129.561 96.446 129.237 96.3823 128.927 96.2482L120.825 92.7432C119.608 92.2168 119.048 90.8041 119.575 89.5877C120.101 88.3711 121.514 87.812 122.73 88.3378L130.833 91.8428C132.049 92.3692 132.609 93.782 132.083 94.9983C131.691 95.9042 130.807 96.446 129.879 96.446Z" fill="#FCCF5E"/>
<path d="M121.109 62.5143C120.187 62.5143 119.307 61.9796 118.912 61.081C118.377 59.8679 118.928 58.4516 120.141 57.9172L128.913 54.0535C130.126 53.5194 131.542 54.0695 132.077 55.2826C132.611 56.4957 132.061 57.912 130.848 58.4464L122.076 62.3101C121.761 62.4487 121.432 62.5143 121.109 62.5143Z" fill="#FCCF5E"/>
<path d="M100.978 42.4733C100.753 42.4733 100.525 42.4416 100.298 42.3747C99.027 42 98.3002 40.6656 98.675 39.3942L101.594 29.4931C101.969 28.2218 103.303 27.4938 104.574 27.8698C105.846 28.2445 106.573 29.5789 106.198 30.8502L103.279 40.7514C102.971 41.7958 102.015 42.4733 100.978 42.4733Z" fill="#FCCF5E"/>
<path d="M19.9337 6.9866L18.4928 7.77451L17.7049 9.21539L16.917 7.77451L15.4761 6.9866L16.917 6.19869L17.7049 4.75781L18.4928 6.19869L19.9337 6.9866Z" fill="#F7D694"/>
<path d="M7.62896 17.2405L6.18809 18.0284L5.40018 19.4693L4.61227 18.0284L3.17139 17.2405L4.61227 16.4526L5.40018 15.0117L6.18809 16.4526L7.62896 17.2405Z" fill="#F7D694"/>
<path d="M13.7271 9.8577L11.2256 11.2256L9.8577 13.7271L8.48982 11.2256L5.98828 9.8577L8.48982 8.48982L9.8577 5.98828L11.2256 8.48982L13.7271 9.8577Z" fill="#FCD884"/>
<path d="M17.0626 17.7049L15.6217 18.4928L14.8338 19.9337L14.0459 18.4928L12.605 17.7049L14.0459 16.917L14.8338 15.4761L15.6217 16.917L17.0626 17.7049Z" fill="#FFCD02"/>
<path d="M5.52398 3.2952L4.08311 4.08311L3.2952 5.52398L2.50729 4.08311L1.06641 3.2952L2.50729 2.50729L3.2952 1.06641L4.08311 2.50729L5.52398 3.2952Z" fill="#FFCD02"/>
<path d="M169.934 145.987L168.493 146.775L167.705 148.215L166.917 146.775L165.476 145.987L166.917 145.199L167.705 143.758L168.493 145.199L169.934 145.987Z" fill="#F7D694"/>
<path d="M157.629 156.241L156.188 157.028L155.4 158.469L154.612 157.028L153.171 156.241L154.612 155.453L155.4 154.012L156.188 155.453L157.629 156.241Z" fill="#F7D694"/>
<path d="M163.727 148.858L161.226 150.226L159.858 152.727L158.49 150.226L155.988 148.858L158.49 147.49L159.858 144.988L161.226 147.49L163.727 148.858Z" fill="#FCD884"/>
<path d="M167.063 156.705L165.622 157.493L164.834 158.934L164.046 157.493L162.605 156.705L164.046 155.917L164.834 154.476L165.622 155.917L167.063 156.705Z" fill="#FFCD02"/>
<path d="M155.524 142.295L154.083 143.083L153.295 144.524L152.507 143.083L151.066 142.295L152.507 141.507L153.295 140.066L154.083 141.507L155.524 142.295Z" fill="#FFCD02"/>
<path d="M163.934 17.9866L162.493 18.7745L161.705 20.2154L160.917 18.7745L159.476 17.9866L160.917 17.1987L161.705 15.7578L162.493 17.1987L163.934 17.9866Z" fill="#1FBAD6"/>
<path d="M151.629 28.2405L150.188 29.0284L149.4 30.4693L148.612 29.0284L147.171 28.2405L148.612 27.4526L149.4 26.0117L150.188 27.4526L151.629 28.2405Z" fill="#1FBAD6"/>
<path d="M157.727 20.8577L155.226 22.2256L153.858 24.7271L152.49 22.2256L149.988 20.8577L152.49 19.4898L153.858 16.9883L155.226 19.4898L157.727 20.8577Z" fill="#14098B"/>
<path d="M161.063 28.7049L159.622 29.4928L158.834 30.9337L158.046 29.4928L156.605 28.7049L158.046 27.917L158.834 26.4761L159.622 27.917L161.063 28.7049Z" fill="#0052B4"/>
<path d="M149.524 14.2952L148.083 15.0831L147.295 16.524L146.507 15.0831L145.066 14.2952L146.507 13.5073L147.295 12.0664L148.083 13.5073L149.524 14.2952Z" fill="#0052B4"/>
<path d="M34.9337 142.987L33.4928 143.775L32.7049 145.215L31.917 143.775L30.4761 142.987L31.917 142.199L32.7049 140.758L33.4928 142.199L34.9337 142.987Z" fill="#1FBAD6"/>
<path d="M22.629 153.241L21.1881 154.028L20.4002 155.469L19.6123 154.028L18.1714 153.241L19.6123 152.453L20.4002 151.012L21.1881 152.453L22.629 153.241Z" fill="#1FBAD6"/>
<path d="M28.7271 145.858L26.2256 147.226L24.8577 149.727L23.4898 147.226L20.9883 145.858L23.4898 144.49L24.8577 141.988L26.2256 144.49L28.7271 145.858Z" fill="#14098B"/>
<path d="M32.0626 153.705L30.6217 154.493L29.8338 155.934L29.0459 154.493L27.605 153.705L29.0459 152.917L29.8338 151.476L30.6217 152.917L32.0626 153.705Z" fill="#0052B4"/>
<path d="M20.524 139.295L19.0831 140.083L18.2952 141.524L17.5073 140.083L16.0664 139.295L17.5073 138.507L18.2952 137.066L19.0831 138.507L20.524 139.295Z" fill="#0052B4"/>
</svg>
