<svg width="24" height="24" viewBox="0 0 24 24" fill="none" xmlns="http://www.w3.org/2000/svg">
<g clip-path="url(#clip0_4261_212)">
<path d="M23.9262 11.1943L23.1459 9.27079C23.357 9.02179 23.4848 8.69919 23.4848 8.34696C23.4848 7.6832 23.0319 7.12397 22.421 6.96614C22.4209 6.87366 22.4211 4.55696 22.421 4.45871C22.421 4.13934 22.226 3.8655 21.9242 3.76101L12.0401 0.339309C11.6324 0.198072 11.1833 0.198119 10.7754 0.339309L8.31451 1.19123C8.13103 1.2547 8.03377 1.45495 8.09728 1.63843C8.1608 1.82199 8.36101 1.91912 8.54453 1.85565L11.0055 1.00373C11.2648 0.913866 11.5506 0.913866 11.8101 1.00373L21.6942 4.42538C21.7047 4.42904 21.7178 4.43363 21.7178 4.45866C21.7178 4.48369 21.7047 4.48829 21.6942 4.49194L18.2916 5.66989V5.5646C18.2916 5.13864 17.9873 4.77489 17.568 4.69974C13.4804 3.96661 9.33513 3.96661 5.24751 4.69974C4.82826 4.77493 4.52389 5.13864 4.52389 5.5646V5.66989L1.12136 4.49194C1.11082 4.48829 1.09769 4.48369 1.09769 4.45866C1.09769 4.43363 1.11082 4.42904 1.12136 4.42538L6.96565 2.40222C7.14913 2.33875 7.24639 2.1385 7.18288 1.95502C7.11936 1.77151 6.91911 1.67433 6.73563 1.7378L0.891344 3.76101C0.589557 3.8655 0.394554 4.1393 0.394554 4.45871C0.394554 4.77812 0.589557 5.05192 0.891344 5.15641L4.52394 6.41395V9.89335C2.68242 10.0767 1.23949 11.6348 1.23949 13.5237C1.23949 14.786 1.88403 15.9004 2.86107 16.5557C1.22665 16.9168 0 18.3763 0 20.1178C0 22.1296 1.63676 23.7663 3.64858 23.7663H21.7203C22.3242 23.7663 22.8155 23.275 22.8155 22.6711C22.8155 22.0746 22.3362 21.5883 21.7425 21.5764C21.3752 20.6324 21.3724 19.6047 21.734 18.6594C22.3316 18.652 22.8155 18.1638 22.8155 17.5644C22.8155 16.9605 22.3242 16.4692 21.7203 16.4692H21.5032C21.5501 16.3474 21.5761 16.2152 21.5761 16.0771C21.5761 15.4731 21.0847 14.9818 20.4808 14.9818H20.4713C20.1307 14.0987 20.1086 13.1431 20.405 12.2505C20.591 12.4519 20.8528 12.569 21.1309 12.569H23.008C23.3374 12.569 23.6443 12.4052 23.829 12.1309C24.0155 11.854 24.0518 11.5039 23.9262 11.1943ZM22.7817 8.34696C22.7817 8.74517 22.4621 9.06913 22.0695 9.06913C21.6768 9.06913 21.3573 8.74517 21.3573 8.34696C21.3573 7.94875 21.6768 7.62475 22.0695 7.62475C22.4621 7.62475 22.7817 7.94871 22.7817 8.34696ZM21.7179 5.2278V6.96614C21.107 7.12397 20.6541 7.6832 20.6541 8.34696C20.6541 8.69924 20.782 9.02179 20.993 9.27079L20.7478 9.87507H18.2916V6.41395L21.7179 5.2278ZM5.37164 5.39182C9.3769 4.67359 13.4386 4.67359 17.4439 5.39182C17.5277 5.40687 17.5885 5.47952 17.5885 5.56465V7.9608H15.4221C15.228 7.9608 15.0706 8.11816 15.0706 8.31237C15.0706 8.50658 15.228 8.66394 15.4221 8.66394H17.5885V9.87512H5.22708V8.66394H13.7815C13.9757 8.66394 14.1331 8.50658 14.1331 8.31237C14.1331 8.11816 13.9757 7.9608 13.7815 7.9608H5.22708V5.56465C5.22708 5.47952 5.28787 5.40687 5.37164 5.39182ZM22.1125 17.5644C22.1125 17.7806 21.9366 17.9565 21.7203 17.9565H3.64858C2.4569 17.9565 1.48737 18.926 1.48737 20.1177C1.48737 21.3094 2.4569 22.2789 3.64858 22.2789H17.5316C17.7257 22.2789 17.8831 22.1215 17.8831 21.9273C17.8831 21.7331 17.7257 21.5757 17.5316 21.5757H3.64858C2.84461 21.5757 2.19051 20.9217 2.19051 20.1177C2.19051 19.3138 2.84461 18.6596 3.64858 18.6596H14.7364V20.6304C14.7364 20.7466 14.7938 20.8553 14.8898 20.9208C14.9857 20.9863 15.1079 21.0002 15.2161 20.9577L16.1653 20.5861L17.1145 20.9577C17.1559 20.974 17.1994 20.982 17.2427 20.982C17.3124 20.982 17.3816 20.9612 17.4409 20.9208C17.5369 20.8553 17.5943 20.7466 17.5943 20.6304V18.6596H20.9879C20.6824 19.6122 20.6846 20.6242 20.9949 21.5758H19.1722C18.9781 21.5758 18.8206 21.7332 18.8206 21.9274C18.8206 22.1216 18.9781 22.2789 19.1722 22.2789H21.7203C21.9365 22.2789 22.1124 22.4549 22.1124 22.671C22.1124 22.8872 21.9365 23.0632 21.7203 23.0632H3.64858C2.02447 23.0632 0.703137 21.7419 0.703137 20.1177C0.703137 18.4936 2.02447 17.1723 3.64858 17.1723H21.7203C21.9365 17.1723 22.1125 17.3482 22.1125 17.5644ZM15.4395 18.6597H16.8911V20.1152L16.2935 19.8812C16.2111 19.8489 16.1196 19.8489 16.0371 19.8812L15.4395 20.1152V18.6597ZM9.42204 15.6849H20.4808C20.6971 15.6849 20.873 15.8608 20.873 16.077C20.873 16.2932 20.6971 16.4691 20.4808 16.4691H4.88807C3.26396 16.4691 1.94263 15.1478 1.94263 13.5237C1.94263 11.8995 3.26396 10.5782 4.88807 10.5782H20.4626C20.3757 10.8114 20.2152 11.1419 20.1612 11.3624H4.88807C3.69639 11.3624 2.72686 12.332 2.72686 13.5237C2.72686 14.7153 3.69639 15.6848 4.88807 15.6848H7.78139C7.97555 15.6848 8.13296 15.5274 8.13296 15.3332C8.13296 15.139 7.97555 14.9817 7.78139 14.9817H4.88807C4.0841 14.9817 3.43 14.3276 3.43 13.5237C3.43 12.7197 4.0841 12.0656 4.88807 12.0656H6.17345V14.0195C6.17345 14.1357 6.23087 14.2444 6.32688 14.3098C6.42283 14.3753 6.54504 14.3892 6.65323 14.3468L7.60242 13.9751L8.5516 14.3468C8.59304 14.3631 8.6365 14.371 8.67976 14.371C8.74951 14.371 8.8187 14.3503 8.87795 14.3098C8.97396 14.2444 9.03138 14.1357 9.03138 14.0195V12.0656H19.7246C19.4167 13.0177 19.4167 14.0296 19.7246 14.9817H9.42204C9.22788 14.9817 9.07047 15.1391 9.07047 15.3333C9.07047 15.5275 9.22788 15.6849 9.42204 15.6849ZM6.87659 12.0656H8.32824V13.5042L7.73062 13.2702C7.64817 13.2379 7.55666 13.2379 7.47421 13.2702L6.87659 13.5042V12.0656ZM23.2458 11.7381C23.22 11.7765 23.145 11.8658 23.008 11.8658H21.1309C20.9938 11.8658 20.9189 11.7765 20.893 11.7381C20.8366 11.6543 20.8261 11.5524 20.8641 11.4586L21.5834 9.68565C21.7351 9.74166 21.8987 9.77222 22.0694 9.77222C22.2401 9.77222 22.4038 9.74166 22.5554 9.68565L23.2746 11.4586C23.3128 11.5525 23.3023 11.6543 23.2458 11.7381Z" fill="#232232"/>
</g>
<defs>
<clipPath id="clip0_4261_212">
<rect width="24" height="24" fill="white"/>
</clipPath>
</defs>
</svg>
