<svg width="24" height="19" viewBox="0 0 24 19" fill="none" xmlns="http://www.w3.org/2000/svg">
<path d="M21.8906 0.359375H2.10938C0.947719 0.359375 0 1.30606 0 2.46875V16.5312C0 17.69 0.9435 18.6406 2.10938 18.6406H21.8906C23.0494 18.6406 24 17.6971 24 16.5312V2.46875C24 1.31 23.0565 0.359375 21.8906 0.359375ZM21.5993 1.76562L12.0447 11.3203L2.40745 1.76562H21.5993ZM1.40625 16.2401V2.75323L8.1787 9.46761L1.40625 16.2401ZM2.40061 17.2344L9.17733 10.4577L11.5519 12.8118C11.8267 13.0843 12.2703 13.0835 12.5441 12.8097L14.8594 10.4944L21.5994 17.2344H2.40061ZM22.5938 16.24L15.8537 9.5L22.5938 2.75994V16.24Z" fill="white"/>
</svg>
