<svg width="25" height="24" viewBox="0 0 25 24" fill="none" xmlns="http://www.w3.org/2000/svg">
<g clip-path="url(#clip0_4261_359)">
<path d="M24.1251 10.575C24.9501 9.825 24.5001 8.475 23.3751 8.325L17.3751 7.5C16.9251 7.425 16.5501 7.2 16.4001 6.825L13.7001 1.5C13.4751 1.05 12.9501 0.75 12.5001 0.75C12.0501 0.75 11.5251 0.975 11.3001 1.5L8.60006 6.825C8.37506 7.2 8.00006 7.5 7.62506 7.5L1.62506 8.325C0.500058 8.475 0.125058 9.825 0.875058 10.575L5.22506 14.7C5.52506 15 5.67506 15.45 5.60006 15.825L4.62506 21.75C4.47506 22.575 5.15006 23.25 5.90006 23.25C6.12506 23.25 6.35006 23.175 6.50006 23.1L11.8251 20.325C12.0501 20.25 12.2001 20.175 12.4251 20.175C12.6501 20.175 12.8751 20.25 13.0251 20.325L18.3501 23.1C18.5751 23.175 18.8001 23.25 18.9501 23.25C19.7001 23.25 20.3751 22.575 20.2251 21.75L19.1751 15.9C19.1001 15.45 19.2501 15.075 19.5501 14.775L24.1251 10.575ZM18.7251 13.65C18.0501 14.325 17.7501 15.225 17.9001 16.125L18.8751 21.6L13.8501 18.975C13.4751 18.75 13.0251 18.675 12.5751 18.675C12.1251 18.675 11.6751 18.75 11.3001 18.975L6.27506 21.6L7.25006 16.125C7.25006 15.225 6.95006 14.25 6.27506 13.65L2.22506 9.825L7.85006 9C8.75006 8.85 9.57506 8.325 9.95006 7.5L12.5001 2.475L15.0501 7.5C15.5001 8.325 16.2501 8.925 17.1501 9L22.7751 9.825L18.7251 13.65Z" fill="#716E6E"/>
</g>
<defs>
<clipPath id="clip0_4261_359">
<rect width="24" height="24" fill="white" transform="translate(0.5)"/>
</clipPath>
</defs>
</svg>
