<svg width="19" height="18" viewBox="0 0 19 18" fill="none" xmlns="http://www.w3.org/2000/svg">
<path d="M18.5 9C18.5 13.4923 15.2087 17.2157 10.9062 17.8907V11.6016H13.0033L13.4023 9H10.9062V7.3118C10.9062 6.59988 11.255 5.90625 12.373 5.90625H13.5078V3.69141C13.5078 3.69141 12.4777 3.51562 11.493 3.51562C9.43742 3.51562 8.09375 4.76156 8.09375 7.01719V9H5.80859V11.6016H8.09375V17.8907C3.79133 17.2157 0.5 13.4923 0.5 9C0.5 4.02961 4.52961 0 9.5 0C14.4704 0 18.5 4.02961 18.5 9Z" fill="#1877F2"/>
<path d="M13.0033 11.6016L13.4023 9H10.9062V7.31176C10.9062 6.60002 11.2549 5.90625 12.3729 5.90625H13.5078V3.69141C13.5078 3.69141 12.4779 3.51562 11.4932 3.51562C9.43739 3.51562 8.09375 4.76156 8.09375 7.01719V9H5.80859V11.6016H8.09375V17.8906C8.55198 17.9625 9.02159 18 9.5 18C9.97841 18 10.448 17.9625 10.9062 17.8906V11.6016H13.0033Z" fill="white"/>
</svg>
