<svg width="18" height="18" viewBox="0 0 18 18" fill="none" xmlns="http://www.w3.org/2000/svg">
<path d="M0.5625 3.1731H9.12674C9.38486 4.34798 10.4341 5.23002 11.6853 5.23002C12.9366 5.23002 13.9858 4.34802 14.2439 3.1731H17.4375C17.7481 3.1731 18 2.92124 18 2.6106C18 2.29996 17.7481 2.0481 17.4375 2.0481H14.2437C13.9851 0.873809 12.9344 -0.00878906 11.6853 -0.00878906C10.4356 -0.00878906 9.38545 0.873668 9.12695 2.0481H0.5625C0.251859 2.0481 0 2.29996 0 2.6106C0 2.92124 0.251859 3.1731 0.5625 3.1731ZM10.191 2.61207C10.191 2.61007 10.191 2.60803 10.191 2.60603C10.1935 1.78453 10.8638 1.11625 11.6853 1.11625C12.5057 1.11625 13.1761 1.78362 13.1796 2.60473L13.1797 2.61299C13.1784 3.43589 12.5086 4.10505 11.6853 4.10505C10.8625 4.10505 10.1928 3.43656 10.191 2.61415L10.191 2.61207ZM17.4375 14.8267H14.2437C13.985 13.6525 12.9344 12.7698 11.6853 12.7698C10.4356 12.7698 9.38545 13.6523 9.12695 14.8267H0.5625C0.251859 14.8267 0 15.0785 0 15.3892C0 15.6999 0.251859 15.9517 0.5625 15.9517H9.12674C9.38486 17.1266 10.4341 18.0086 11.6853 18.0086C12.9366 18.0086 13.9858 17.1266 14.2439 15.9517H17.4375C17.7481 15.9517 18 15.6999 18 15.3892C18 15.0785 17.7481 14.8267 17.4375 14.8267ZM11.6853 16.8836C10.8625 16.8836 10.1928 16.2152 10.191 15.3927L10.191 15.3907C10.191 15.3887 10.191 15.3867 10.191 15.3847C10.1935 14.5632 10.8638 13.8948 11.6853 13.8948C12.5057 13.8948 13.1761 14.5622 13.1796 15.3833L13.1797 15.3915C13.1785 16.2146 12.5086 16.8836 11.6853 16.8836ZM17.4375 8.43743H8.87326C8.61514 7.26254 7.56594 6.38054 6.31466 6.38054C5.06338 6.38054 4.01418 7.26254 3.75606 8.43743H0.5625C0.251859 8.43743 0 8.68929 0 8.99993C0 9.3106 0.251859 9.56243 0.5625 9.56243H3.75634C4.01498 10.7367 5.06559 11.6193 6.31466 11.6193C7.56439 11.6193 8.61455 10.7368 8.87305 9.56243H17.4375C17.7481 9.56243 18 9.3106 18 8.99993C18 8.68929 17.7481 8.43743 17.4375 8.43743ZM7.80901 8.99845C7.80901 9.00049 7.80898 9.00249 7.80898 9.0045C7.80652 9.82599 7.13619 10.4943 6.31466 10.4943C5.49429 10.4943 4.82393 9.82691 4.82038 9.00583L4.82027 8.99761C4.8215 8.1746 5.49141 7.50554 6.31466 7.50554C7.13753 7.50554 7.80718 8.174 7.80905 8.99645L7.80901 8.99845Z" fill="#9C9C9C"/>
</svg>
