<svg width="15" height="16" viewBox="0 0 15 16" fill="none" xmlns="http://www.w3.org/2000/svg">
<path d="M1.87483 1.95251C0.774665 3.09526 0.999831 4.30918 0.999831 7.99701C0.999831 11.0595 0.465498 14.1296 3.262 14.8523C4.13525 15.0769 11.8726 15.0769 12.7447 14.8512C13.909 14.5508 14.8563 13.6063 14.9858 11.9596C15.0039 11.7298 15.0039 4.26834 14.9852 4.03384C14.8476 2.27976 13.7678 1.26884 12.3451 1.06409C12.019 1.01684 11.9537 1.00284 10.2807 0.999925C4.34641 1.00284 3.04558 0.738592 1.87483 1.95251Z" fill="url(#paint0_linear_6210_2498)"/>
<path d="M7.99938 2.83116C5.88129 2.83116 3.86996 2.64274 3.10171 4.61441C2.78438 5.42874 2.83046 6.48633 2.83046 8.00066C2.83046 9.32949 2.78788 10.5784 3.10171 11.3863C3.86821 13.3592 5.89588 13.1702 7.99821 13.1702C10.0265 13.1702 12.1177 13.3813 12.8953 11.3863C13.2132 10.5638 13.1665 9.522 13.1665 8.00066C13.1665 5.98116 13.278 4.67741 12.2985 3.69858C11.3069 2.70691 9.96579 2.83116 7.99704 2.83116H7.99938ZM7.53621 3.76274C11.9544 3.75574 12.5167 3.26458 12.2064 10.0878C12.0961 12.5011 10.2586 12.2362 7.99996 12.2362C3.88163 12.2362 3.76321 12.1184 3.76321 7.99833C3.76321 3.83041 4.08988 3.76508 7.53621 3.76158V3.76274ZM10.7585 4.62083C10.4161 4.62083 10.1385 4.89849 10.1385 5.24091C10.1385 5.58333 10.4161 5.86099 10.7585 5.86099C11.101 5.86099 11.3786 5.58333 11.3786 5.24091C11.3786 4.89849 11.101 4.62083 10.7585 4.62083ZM7.99938 5.34591C6.53346 5.34591 5.34521 6.53474 5.34521 8.00066C5.34521 9.46658 6.53346 10.6548 7.99938 10.6548C9.46529 10.6548 10.653 9.46658 10.653 8.00066C10.653 6.53474 9.46529 5.34591 7.99938 5.34591ZM7.99938 6.27749C10.2773 6.27749 10.2802 9.72383 7.99938 9.72383C5.72204 9.72383 5.71854 6.27749 7.99938 6.27749Z" fill="#F8F8FF"/>
<defs>
<linearGradient id="paint0_linear_6210_2498" x1="1.90168" y1="14.1057" x2="14.9132" y2="2.84441" gradientUnits="userSpaceOnUse">
<stop stop-color="#FFDD55"/>
<stop offset="0.5" stop-color="#FF543E"/>
<stop offset="1" stop-color="#C837AB"/>
</linearGradient>
</defs>
</svg>
