<svg width="24" height="24" viewBox="0 0 24 24" fill="none" xmlns="http://www.w3.org/2000/svg">
<g clip-path="url(#clip0_4293_1673)">
<path d="M22.0683 10.2504H21.7509V8.94196C21.7509 8.75784 21.6432 8.59082 21.4755 8.51493C21.3076 8.43895 21.1111 8.46834 20.9728 8.58984L19.0828 10.2504H17.0895C17.5419 9.41038 17.779 8.47504 17.78 7.50191C17.78 7.49985 17.7803 7.49784 17.7803 7.49577C17.7803 4.28071 15.1647 1.66504 11.9496 1.66504C8.73455 1.66504 6.11887 4.28066 6.11887 7.49577C6.11887 7.49737 6.11911 7.49891 6.11911 7.50046C6.11991 8.50382 6.37041 9.4641 6.84848 10.3221H1.93172C0.866531 10.3221 0 11.1887 0 12.2538V18.7399C0 19.8051 0.866531 20.6716 1.93172 20.6716H2.37122V21.8665C2.37122 22.0436 2.47106 22.2056 2.62931 22.2853C2.78597 22.364 2.97862 22.3474 3.11939 22.2429L5.2357 20.6716H10.537C11.1384 20.6716 11.6763 20.3954 12.0309 19.9632C12.3846 20.354 12.8956 20.5999 13.463 20.5999H15.6227C15.8816 20.5999 16.0915 20.3901 16.0915 20.1312C16.0915 19.8723 15.8816 19.6624 15.6227 19.6624H13.463C12.9148 19.6624 12.4688 19.2164 12.4688 18.6682V12.1821C12.4688 11.6339 12.9148 11.1879 13.463 11.1879H19.2595C19.3734 11.1879 19.4833 11.1464 19.5689 11.0713L20.8135 9.97776V10.7191C20.8135 10.978 21.0234 11.1879 21.2822 11.1879H22.0683C22.6165 11.1879 23.0625 11.6339 23.0625 12.1821V18.6682C23.0625 19.2164 22.6165 19.6624 22.0683 19.6624H19.7466C19.4877 19.6624 19.2778 19.8723 19.2778 20.1312C19.2778 20.3901 19.4877 20.5999 19.7466 20.5999H22.0683C23.1335 20.5999 24 19.7333 24 18.6682V12.1821C24 11.117 23.1335 10.2504 22.0683 10.2504ZM13.08 10.2887C12.6457 10.3763 12.2507 10.6176 11.9691 10.9588C11.653 10.6083 11.2081 10.3815 10.7387 10.3326C10.5493 9.5587 10.4587 8.76009 10.4318 7.96457H13.4682C13.4428 8.73965 13.3559 9.5167 13.1757 10.2718C13.1439 10.2766 13.1113 10.2824 13.08 10.2887ZM10.4383 6.83798C10.4785 5.93305 10.5971 5.01618 10.8786 4.15227C11.0325 3.67968 11.233 3.15613 11.5927 2.79768C11.8479 2.54334 12.1001 2.57493 12.3398 2.83171C12.708 3.22668 12.9108 3.78313 13.064 4.29013C13.3311 5.17448 13.4391 6.10607 13.468 7.02684H10.4312C10.4329 6.96388 10.4352 6.90093 10.4383 6.83798ZM16.8206 7.02684H14.4061C14.3628 5.62499 14.166 4.10437 13.4925 2.85177C15.2946 3.45196 16.634 5.07379 16.8206 7.02684ZM10.4068 2.85177C9.73312 4.10413 9.53644 5.62518 9.49317 7.02684H7.07869C7.26525 5.07379 8.60475 3.45196 10.4068 2.85177ZM7.07841 7.96457H9.49327C9.51558 8.7553 9.60262 9.54937 9.77325 10.3221H7.95455C7.45678 9.62113 7.15837 8.8169 7.07841 7.96457ZM11.5312 18.74C11.5312 19.2882 11.0852 19.7342 10.537 19.7342H5.08073C4.98009 19.7342 4.88212 19.7666 4.80131 19.8266L3.30872 20.9347V20.2029C3.30872 19.944 3.09881 19.7342 2.83997 19.7342H1.93172C1.38352 19.7342 0.9375 19.2882 0.9375 18.74V12.2539C0.9375 11.7057 1.38352 11.2596 1.93172 11.2596H10.537C11.0852 11.2596 11.5312 11.7057 11.5312 12.2539V18.74ZM14.1417 10.2504C14.3018 9.49982 14.3832 8.7313 14.4063 7.96457H16.8207C16.7433 8.78685 16.462 9.56624 15.9943 10.2504H14.1417Z" fill="white"/>
<path d="M6.78195 12.9924C6.78036 12.9881 6.77867 12.9838 6.77694 12.9796C6.68741 12.762 6.47774 12.6216 6.24256 12.6216C6.24238 12.6216 6.24214 12.6216 6.24195 12.6216C6.0066 12.6218 5.79688 12.7628 5.70777 12.9806C5.70631 12.9842 5.70486 12.9877 5.70355 12.9913L3.89619 17.7366C3.80403 17.9785 3.92544 18.2493 4.16736 18.3415C4.40633 18.4324 4.68135 18.3089 4.77224 18.0702L5.10735 17.1903H7.3641L7.69564 18.0689C7.787 18.3111 8.05747 18.4334 8.29967 18.342C8.54192 18.2506 8.66413 17.9801 8.57272 17.7379L6.78195 12.9924ZM5.46444 16.2528L6.24092 14.214L7.01033 16.2528H5.46444Z" fill="white"/>
<path d="M15.3165 17.9242C15.414 18.1603 15.6925 18.2759 15.9288 18.1784C16.5424 17.9247 17.0799 17.5771 17.5433 17.1943C18.0033 17.5748 18.5405 17.9247 19.1543 18.1784C19.3905 18.276 19.669 18.1602 19.7665 17.9242C19.8655 17.685 19.7517 17.4108 19.5124 17.3119C19.034 17.1142 18.608 16.8443 18.2344 16.5471C18.9493 15.793 19.408 15.0273 19.6213 14.6301H20.3208C20.5796 14.6301 20.7895 14.4203 20.7895 14.1614C20.7895 13.9025 20.5796 13.6926 20.3208 13.6926H18.0102V13.1055C18.0102 12.8466 17.8003 12.6367 17.5415 12.6367C17.2826 12.6367 17.0727 12.8466 17.0727 13.1055V13.6926H15.2102C14.9514 13.6926 14.7415 13.9025 14.7415 14.1614C14.7415 14.4203 14.9514 14.6301 15.2102 14.6301H18.5344C18.3071 14.9909 17.9761 15.4555 17.5422 15.912C17.2968 15.6542 17.0872 15.3979 16.916 15.1673C16.7618 14.9594 16.468 14.9159 16.2603 15.0702C16.0524 15.2245 16.009 15.5181 16.1632 15.726C16.3518 15.9801 16.5816 16.262 16.852 16.5468C16.476 16.846 16.0488 17.1143 15.5706 17.3119C15.3313 17.4108 15.2176 17.685 15.3165 17.9242Z" fill="white"/>
<path d="M18.1149 19.9519C18.018 19.7156 17.7381 19.6009 17.5026 19.6984C17.2667 19.7961 17.1513 20.0746 17.2491 20.3105C17.3468 20.5465 17.6256 20.6615 17.8613 20.5641C18.0969 20.4668 18.213 20.1874 18.1149 19.9519Z" fill="white"/>
</g>
<defs>
<clipPath id="clip0_4293_1673">
<rect width="24" height="24" fill="white"/>
</clipPath>
</defs>
</svg>
