<svg width="24" height="24" viewBox="0 0 24 24" fill="none" xmlns="http://www.w3.org/2000/svg">
<g clip-path="url(#clip0_4261_195)">
<path d="M5.52081 8.17251C5.338 7.9897 5.04081 7.9897 4.85804 8.17251C4.67476 8.35579 4.67476 8.65251 4.85804 8.83532C5.04086 9.01861 5.33804 9.01861 5.52081 8.83532C5.70404 8.65251 5.70404 8.35579 5.52081 8.17251Z" fill="#232232"/>
<path d="M11.8687 20.9869C12.0754 20.707 12.1871 20.3697 12.1871 20.0151C12.1871 19.1105 11.4512 18.3745 10.5465 18.3745H2.57804C2.13961 18.3745 1.72763 18.5451 1.41792 18.8549C1.10808 19.1647 0.937455 19.5767 0.937455 20.0151C0.937455 20.3783 1.05633 20.7142 1.25691 20.9863C0.510517 21.3788 0 22.1616 0 23.0618V23.5306C0 23.7895 0.209907 23.9993 0.468751 23.9993H12.6558C12.9146 23.9993 13.1246 23.7895 13.1246 23.5306V23.0618C13.1246 22.162 12.6146 21.3795 11.8687 20.9869ZM2.08079 19.5177C2.21349 19.385 2.39011 19.3119 2.57804 19.3119H10.5465C10.9342 19.3119 11.2496 19.6273 11.2496 20.015C11.2496 20.203 11.1765 20.3795 11.0437 20.5123C10.911 20.645 10.7344 20.7181 10.5465 20.7181H2.57804C2.19033 20.7181 1.87496 20.4027 1.87496 20.015C1.87496 19.8271 1.94804 19.6505 2.08079 19.5177ZM0.937455 23.0618C0.937455 22.2865 1.5683 21.6556 2.34366 21.6556H2.57804H10.5465H10.7809C11.5563 21.6556 12.1871 22.2865 12.1871 23.0618H0.937455Z" fill="#232232"/>
<path d="M23.5638 19.6933C23.4046 19.4466 23.2146 19.2284 22.9992 19.0449L20.8089 17.1346C20.7919 17.1089 20.7721 17.0845 20.7494 17.0619C20.7114 17.0239 20.6683 16.9942 20.6224 16.972L19.2979 15.8167L13.1671 10.4687C13.418 10.2063 13.5562 9.86327 13.5562 9.49844C13.5562 9.1226 13.4099 8.76939 13.144 8.50352C13.028 8.38769 12.8962 8.29661 12.7554 8.22991L13.3225 7.66272C13.4811 7.70486 13.644 7.72642 13.807 7.72642C14.2871 7.72637 14.7671 7.54365 15.1326 7.17822C15.4869 6.82398 15.682 6.35312 15.682 5.85236C15.682 5.35159 15.4869 4.88073 15.1326 4.52649L11.1554 0.549329C10.8011 0.195094 10.3302 0 9.82932 0C9.32865 0 8.85789 0.195094 8.5037 0.549329C8.01413 1.03889 7.85298 1.734 8.0192 2.35941L2.3602 8.01836C2.20382 7.97678 2.04112 7.95484 1.8749 7.95484C1.3739 7.95484 0.903228 8.1498 0.549275 8.5037C-0.181789 9.23477 -0.181789 10.4243 0.549275 11.1554L4.52649 15.1327C4.89206 15.4982 5.37221 15.681 5.85235 15.681C6.33254 15.681 6.81268 15.4982 7.17826 15.1327C7.66782 14.6431 7.82898 13.948 7.66276 13.3226L8.22877 12.7565C8.29679 12.8986 8.38909 13.0296 8.50374 13.1442C8.76934 13.4098 9.12245 13.5561 9.4982 13.5561C9.86265 13.5561 10.2056 13.4182 10.4683 13.1675L16.9983 20.67C17.0163 20.6982 17.0373 20.7249 17.0619 20.7495C17.0703 20.7579 17.0792 20.7655 17.088 20.7731L19.0339 23.0088C19.0822 23.0659 19.1339 23.122 19.1876 23.1757C19.722 23.7099 20.4279 23.9999 21.169 23.9999C21.2997 23.9999 21.4315 23.9909 21.5636 23.9726C22.4462 23.8504 23.209 23.3224 23.6563 22.5238C24.1462 21.6485 24.1098 20.5372 23.5638 19.6933ZM9.16665 1.21224C9.34379 1.0351 9.5792 0.937502 9.82937 0.937502C10.0799 0.937502 10.3154 1.0351 10.4925 1.21224L14.4698 5.18945C14.6469 5.36659 14.7445 5.60204 14.7445 5.8524C14.7445 6.10276 14.6469 6.33821 14.4697 6.51536C14.1043 6.88084 13.5097 6.88084 13.1443 6.51536L9.16689 2.53796C9.16679 2.53786 9.16674 2.53782 9.16665 2.53772C8.80117 2.17229 8.80117 1.57767 9.16665 1.21224ZM6.51535 14.4698C6.14982 14.8353 5.55492 14.8354 5.18939 14.4698L1.21218 10.4926C0.846603 10.127 0.846603 9.53224 1.21218 9.16661C1.38899 8.98975 1.6244 8.89234 1.8749 8.89234C2.12536 8.89234 2.36062 8.9897 2.53739 9.16642L6.5153 13.1443C6.88083 13.5097 6.88083 14.1044 6.51535 14.4698ZM8.48888 11.1707L7.17821 12.4814L3.20058 8.5038L8.5037 3.20058L12.4813 7.17822L11.1682 8.49133C11.164 8.49536 11.1598 8.4993 11.1553 8.50375L8.50506 11.154C8.49957 11.1594 8.49427 11.165 8.48888 11.1707ZM10.1626 12.1486C10.1617 12.1495 10.1608 12.1504 10.1598 12.1513L9.82975 12.4814C9.7412 12.5699 9.6235 12.6187 9.49815 12.6187C9.37285 12.6187 9.25511 12.5699 9.1666 12.4814C9.07796 12.3928 9.02917 12.2749 9.02917 12.1496C9.02917 12.0268 9.076 11.9114 9.16098 11.8243L11.8235 9.16174C12.006 8.98427 12.301 8.98647 12.4814 9.16661C12.57 9.2552 12.6188 9.37305 12.6188 9.49844C12.6188 9.62374 12.5701 9.74125 12.4813 9.8298L12.1532 10.158C12.1509 10.1602 12.1487 10.1624 12.1465 10.1647L10.1626 12.1486ZM11.1333 12.5036L12.5033 11.1337L18.3037 16.1931L16.1871 18.3098L11.1333 12.5036ZM16.804 19.0186L19.0118 16.8108L19.7199 17.4285L17.4209 19.7275L16.804 19.0186ZM22.8383 22.0658C22.5358 22.6059 22.0243 22.9624 21.4351 23.044C20.8472 23.1254 20.2695 22.9317 19.8504 22.5127C19.8143 22.4767 19.7798 22.4392 19.7477 22.4011C19.7462 22.3994 19.7447 22.3976 19.7431 22.3958L18.0378 20.4364L20.428 18.0461L22.3851 19.7532C22.3865 19.7545 22.388 19.7557 22.3896 19.7571C22.536 19.8816 22.666 20.0312 22.7763 20.2021C23.1308 20.7498 23.1556 21.4989 22.8383 22.0658Z" fill="#232232"/>
<path d="M8.83515 4.85799C8.65206 4.67494 8.35534 4.67494 8.17224 4.85799L6.18343 6.8468C6.00038 7.02985 6.00038 7.32667 6.18343 7.50967C6.27498 7.60121 6.39493 7.64696 6.51488 7.64696C6.63484 7.64696 6.75479 7.60117 6.84634 7.50967L8.83515 5.52085C9.0182 5.33785 9.0182 5.04108 8.83515 4.85799Z" fill="#232232"/>
</g>
<defs>
<clipPath id="clip0_4261_195">
<rect width="24" height="24" fill="white"/>
</clipPath>
</defs>
</svg>
