<svg width="14" height="14" viewBox="0 0 14 14" fill="none" xmlns="http://www.w3.org/2000/svg">
<path d="M12.0909 0H1.90909C0.854729 0 0 0.854729 0 1.90909V12.0909C0 13.1453 0.854729 14 1.90909 14H12.0909C13.1453 14 14 13.1453 14 12.0909V1.90909C14 0.854729 13.1453 0 12.0909 0Z" fill="#0077B5"/>
<path d="M5.04261 3.81818C5.04261 4.05417 4.97264 4.28486 4.84153 4.48108C4.71042 4.6773 4.52407 4.83023 4.30604 4.92054C4.08802 5.01085 3.84811 5.03448 3.61665 4.98844C3.3852 4.9424 3.1726 4.82876 3.00573 4.66189C2.83886 4.49502 2.72522 4.28241 2.67918 4.05096C2.63314 3.81951 2.65677 3.5796 2.74708 3.36157C2.83739 3.14355 2.99032 2.9572 3.18654 2.82609C3.38275 2.69498 3.61344 2.625 3.84943 2.625C4.16588 2.625 4.46937 2.75071 4.69314 2.97447C4.9169 3.19824 5.04261 3.50173 5.04261 3.81818Z" fill="#F8F8FF"/>
<path d="M4.77247 5.8069V11.0784C4.77268 11.1173 4.7652 11.1558 4.75046 11.1918C4.73572 11.2278 4.71402 11.2605 4.68659 11.2881C4.65917 11.3157 4.62656 11.3375 4.59066 11.3525C4.55475 11.3674 4.51624 11.3751 4.47735 11.3751H3.21974C3.18085 11.3752 3.14232 11.3676 3.10637 11.3528C3.07043 11.3379 3.03776 11.3161 3.01026 11.2886C2.98277 11.2611 2.96097 11.2285 2.94614 11.1925C2.93131 11.1566 2.92372 11.1181 2.92383 11.0792V5.8069C2.92383 5.72842 2.95501 5.65315 3.0105 5.59766C3.06599 5.54216 3.14126 5.51099 3.21974 5.51099H4.47735C4.55569 5.5112 4.63076 5.54247 4.68608 5.59794C4.7414 5.65341 4.77247 5.72855 4.77247 5.8069Z" fill="#F8F8FF"/>
<path d="M11.3463 8.55107V11.1029C11.3464 11.1386 11.3394 11.1741 11.3258 11.2071C11.3121 11.2402 11.2921 11.2702 11.2668 11.2955C11.2415 11.3208 11.2115 11.3408 11.1785 11.3544C11.1454 11.3681 11.11 11.375 11.0742 11.3749H9.72195C9.68619 11.375 9.65077 11.3681 9.61772 11.3544C9.58466 11.3408 9.55463 11.3208 9.52935 11.2955C9.50407 11.2702 9.48403 11.2402 9.4704 11.2071C9.45676 11.1741 9.4498 11.1386 9.4499 11.1029V8.62982C9.4499 8.26073 9.55808 7.01345 8.48502 7.01345C7.65377 7.01345 7.48433 7.86698 7.45092 8.25039V11.1029C7.45093 11.1744 7.42282 11.243 7.37266 11.2939C7.32249 11.3448 7.25432 11.3739 7.18286 11.3749H5.87672C5.84103 11.3749 5.80569 11.3679 5.77273 11.3542C5.73977 11.3405 5.70983 11.3205 5.68464 11.2952C5.65944 11.2699 5.63947 11.2399 5.62589 11.2069C5.6123 11.1739 5.60537 11.1386 5.60547 11.1029V5.78368C5.60537 5.74799 5.6123 5.71263 5.62589 5.67963C5.63947 5.64663 5.65944 5.61664 5.68464 5.59136C5.70983 5.56609 5.73977 5.54604 5.77273 5.53236C5.80569 5.51868 5.84103 5.51164 5.87672 5.51164H7.18286C7.25501 5.51164 7.3242 5.5403 7.37522 5.59132C7.42624 5.64233 7.4549 5.71153 7.4549 5.78368V6.24345C7.76354 5.7805 8.22092 5.42334 9.19695 5.42334C11.359 5.42334 11.3463 7.4422 11.3463 8.55107Z" fill="#F8F8FF"/>
</svg>
