<svg xmlns="http://www.w3.org/2000/svg" xmlns:xlink="http://www.w3.org/1999/xlink" width="500" zoomAndPan="magnify" viewBox="0 0 375 374.999991" height="500" preserveAspectRatio="xMidYMid meet" version="1.0"><defs><g/></defs><g fill="#090919" fill-opacity="1"><g transform="translate(151.12684, 214.633098)"><g><path d="M 16.46875 0 L 16.46875 -25.460938 L 25.195312 -25.460938 L 39.351562 0 L 52.882812 0 L 37.390625 -26.976562 C 44.070312 -29.734375 48.789062 -36.144531 48.789062 -43.714844 C 48.789062 -54.128906 40.417969 -62.320312 29.824219 -62.320312 L 4.453125 -62.320312 L 4.453125 0 Z M 27.867188 -51.816406 C 33.207031 -51.816406 36.679688 -48.34375 36.679688 -43.714844 C 36.679688 -39.082031 33.207031 -35.523438 27.867188 -35.523438 L 16.46875 -35.523438 L 16.46875 -51.816406 Z M 27.867188 -51.816406 "/></g></g></g><g fill="#090919" fill-opacity="1"><g transform="translate(204.183467, 214.633098)"><g><path d="M 9.792969 -12.464844 C 6.054688 -12.464844 3.027344 -9.527344 3.027344 -5.785156 C 3.027344 -2.046875 6.054688 0.890625 9.792969 0.890625 C 13.53125 0.890625 16.558594 -2.046875 16.558594 -5.785156 C 16.558594 -9.527344 13.53125 -12.464844 9.792969 -12.464844 Z M 9.792969 -12.464844 "/></g></g></g></svg>