<svg xmlns="http://www.w3.org/2000/svg" xmlns:xlink="http://www.w3.org/1999/xlink" width="500" zoomAndPan="magnify" viewBox="0 0 375 374.999991" height="500" preserveAspectRatio="xMidYMid meet" version="1.0"><defs><g/></defs><g fill="#090919" fill-opacity="1"><g transform="translate(69.783773, 214.633098)"><g><path d="M 16.46875 0 L 16.46875 -25.460938 L 25.195312 -25.460938 L 39.351562 0 L 52.882812 0 L 37.390625 -26.976562 C 44.070312 -29.734375 48.789062 -36.144531 48.789062 -43.714844 C 48.789062 -54.128906 40.417969 -62.320312 29.824219 -62.320312 L 4.453125 -62.320312 L 4.453125 0 Z M 27.867188 -51.816406 C 33.207031 -51.816406 36.679688 -48.34375 36.679688 -43.714844 C 36.679688 -39.082031 33.207031 -35.523438 27.867188 -35.523438 L 16.46875 -35.523438 L 16.46875 -51.816406 Z M 27.867188 -51.816406 "/></g></g></g><g fill="#090919" fill-opacity="1"><g transform="translate(122.8404, 214.633098)"><g><path d="M 1.957031 -12.910156 C 1.957031 -4.808594 8.726562 1.15625 17.894531 1.15625 C 24.039062 1.15625 29.113281 -1.335938 32.316406 -5.429688 C 33.921875 -2.046875 37.304688 0 41.753906 0 L 47.183594 0 L 47.183594 -10.058594 L 44.78125 -10.058594 C 43.089844 -10.058594 42.199219 -11.039062 42.199219 -12.730469 L 42.199219 -30.804688 C 42.199219 -40.597656 34.898438 -47.007812 23.859375 -47.007812 C 16.828125 -47.007812 10.683594 -44.78125 5.339844 -40.863281 L 10.238281 -32.585938 C 14.332031 -35.34375 18.25 -36.679688 22.433594 -36.679688 C 27.867188 -36.679688 30.894531 -33.921875 30.894531 -29.378906 L 30.894531 -27.597656 L 17.359375 -26.621094 C 7.566406 -25.90625 1.957031 -21.1875 1.957031 -12.910156 Z M 13.085938 -13 C 13.085938 -16.023438 15.046875 -17.628906 18.964844 -17.984375 L 30.894531 -19.050781 L 30.894531 -16.113281 C 30.894531 -11.484375 26.261719 -7.746094 20.476562 -7.746094 C 16.113281 -7.746094 13.085938 -9.792969 13.085938 -13 Z M 13.085938 -13 "/></g></g></g><g fill="#090919" fill-opacity="1"><g transform="translate(171.356947, 214.633098)"><g><path d="M 17.003906 4.273438 C 15.578125 7.835938 13.886719 8.902344 10.683594 8.902344 L 6.230469 8.902344 L 6.230469 18.695312 L 13.085938 18.695312 C 20.121094 18.695312 24.039062 16.113281 27.066406 8.636719 L 49.5 -46.027344 L 37.390625 -46.027344 L 24.839844 -14.957031 L 12.109375 -46.027344 L -0.445312 -46.027344 L 19.140625 -0.890625 Z M 17.003906 4.273438 "/></g></g></g><g fill="#090919" fill-opacity="1"><g transform="translate(220.407648, 214.633098)"><g><path d="M 9.882812 -50.925781 C 13.53125 -50.925781 16.292969 -53.773438 16.292969 -57.421875 C 16.292969 -61.074219 13.53125 -63.832031 9.882812 -63.832031 C 6.230469 -63.832031 3.292969 -61.074219 3.292969 -57.421875 C 3.292969 -53.773438 6.230469 -50.925781 9.882812 -50.925781 Z M 15.667969 -46.027344 L 4.007812 -46.027344 L 4.007812 0 L 15.667969 0 Z M 15.667969 -46.027344 "/></g></g></g><g fill="#090919" fill-opacity="1"><g transform="translate(240.081325, 214.633098)"><g><path d="M 4.007812 -62.320312 L 4.007812 0 L 15.667969 0 L 15.667969 -20.566406 L 32.140625 0 L 46.382812 0 L 26.441406 -23.859375 L 45.046875 -46.027344 L 31.695312 -46.027344 L 15.667969 -26.175781 L 15.667969 -62.320312 Z M 4.007812 -62.320312 "/></g></g></g><g fill="#090919" fill-opacity="1"><g transform="translate(285.482117, 214.633098)"><g><path d="M 9.792969 -12.464844 C 6.054688 -12.464844 3.027344 -9.527344 3.027344 -5.785156 C 3.027344 -2.046875 6.054688 0.890625 9.792969 0.890625 C 13.53125 0.890625 16.558594 -2.046875 16.558594 -5.785156 C 16.558594 -9.527344 13.53125 -12.464844 9.792969 -12.464844 Z M 9.792969 -12.464844 "/></g></g></g></svg>