<svg width="30" height="30" viewBox="0 0 30 30" fill="none" xmlns="http://www.w3.org/2000/svg">
<path d="M3.01804 15.9869C3.21059 19.5653 4.74118 22.9404 7.30616 25.4429C9.87113 27.9454 13.2831 29.3922 16.865 29.4964C19.0842 29.5472 21.2841 29.0746 23.2867 28.1169C25.2892 27.1592 27.038 25.7433 28.3915 23.9839C28.4597 23.8933 28.4966 23.7829 28.4966 23.6694C28.4966 23.556 28.4597 23.4456 28.3914 23.355C28.3232 23.2643 28.2273 23.1984 28.1183 23.167C28.0093 23.1356 27.893 23.1405 27.787 23.1809C26.1899 23.8262 24.4776 24.1376 22.7555 24.0959C20.2711 24.0268 17.8609 23.2345 15.82 21.8162C13.7791 20.3978 12.1963 18.4149 11.2655 16.1104C10.3347 13.8059 10.0963 11.28 10.5795 8.84208C11.0627 6.40416 12.2466 4.16013 13.986 2.38494C14.0648 2.30131 14.114 2.19415 14.126 2.07989C14.138 1.96564 14.1122 1.8506 14.0525 1.75241C13.9929 1.65423 13.9027 1.57832 13.7957 1.53633C13.6888 1.49434 13.5711 1.48858 13.4605 1.51994C10.3313 2.37931 7.58973 4.28239 5.69045 6.91365C3.79117 9.5449 2.84825 12.7463 3.01804 15.9869Z" fill="#F2C91C"/>
<path d="M17.856 5.73047L18.4135 6.90847L19.66 7.09747C19.7347 7.11156 19.8041 7.14572 19.8609 7.19628C19.9176 7.24684 19.9595 7.3119 19.9821 7.38447C20.0046 7.45704 20.007 7.53438 19.9889 7.6082C19.9709 7.68202 19.933 7.74952 19.8795 7.80347L18.9795 8.72047L19.192 10.0155C19.2073 10.0895 19.2012 10.1662 19.1746 10.2369C19.1481 10.3076 19.102 10.3694 19.0418 10.415C18.9816 10.4606 18.9097 10.4882 18.8344 10.4947C18.7592 10.5012 18.6836 10.4862 18.6165 10.4515L17.5 9.83997L16.385 10.45C16.3179 10.4847 16.2424 10.4997 16.1671 10.4932C16.0918 10.4867 16.02 10.4591 15.9597 10.4135C15.8995 10.3679 15.8535 10.3061 15.8269 10.2354C15.8003 10.1647 15.7943 10.088 15.8095 10.014L16.022 8.71897L15.122 7.80197C15.0696 7.74802 15.0327 7.68093 15.0152 7.60776C14.9976 7.5346 15.0002 7.45806 15.0225 7.38622C15.0448 7.31437 15.0861 7.24986 15.1419 7.19949C15.1978 7.14912 15.2662 7.11474 15.34 7.09997L16.5865 6.91097L17.144 5.73297C17.1745 5.66415 17.2243 5.60562 17.2873 5.56445C17.3503 5.52329 17.4239 5.50124 17.4992 5.50098C17.5745 5.50071 17.6482 5.52224 17.7115 5.56296C17.7749 5.60369 17.825 5.66186 17.856 5.73047Z" fill="#EFB31D"/>
<path d="M3.78452 0.684391L4.23052 1.62689L5.22802 1.77689C5.2877 1.7883 5.34316 1.8157 5.38848 1.85616C5.4338 1.89663 5.46728 1.94864 5.48535 2.00664C5.50342 2.06465 5.5054 2.12648 5.49108 2.18552C5.47675 2.24457 5.44666 2.29861 5.40402 2.34189L4.68202 3.07639L4.85252 4.11189C4.8648 4.17114 4.86005 4.23265 4.83884 4.28931C4.81762 4.34597 4.7808 4.39547 4.73263 4.43208C4.68445 4.4687 4.6269 4.49092 4.56663 4.4962C4.50636 4.50147 4.44582 4.48958 4.39202 4.46189L3.50002 3.97189L2.60802 4.46089C2.55422 4.48858 2.49369 4.50047 2.43341 4.4952C2.37314 4.48992 2.31559 4.4677 2.26742 4.43108C2.21925 4.39447 2.18243 4.34497 2.16121 4.28831C2.13999 4.23165 2.13525 4.17014 2.14752 4.11089L2.31802 3.07539L1.59602 2.34289C1.55338 2.29961 1.52329 2.24557 1.50897 2.18652C1.49464 2.12748 1.49662 2.06565 1.51469 2.00764C1.53276 1.94964 1.56625 1.89763 1.61157 1.85716C1.65689 1.8167 1.71235 1.7893 1.77202 1.77789L2.76952 1.62789L3.21552 0.685391C3.23994 0.630374 3.27977 0.583608 3.3302 0.550751C3.38063 0.517893 3.43951 0.50035 3.4997 0.500245C3.55989 0.500139 3.61882 0.517474 3.66937 0.550154C3.71992 0.582835 3.75991 0.62946 3.78452 0.684391Z" fill="#EFB31D"/>
</svg>
