<svg width="30" height="30" viewBox="0 0 30 30" fill="none" xmlns="http://www.w3.org/2000/svg">
<g clip-path="url(#clip0_4275_1995)">
<path fill-rule="evenodd" clip-rule="evenodd" d="M14.9912 9.8418C19.4376 9.8418 23.0229 13.427 23.0229 17.8734C23.0229 20.2284 22.0035 22.3726 20.3691 23.8313H9.63095C7.99651 22.3726 6.97717 20.2284 6.97717 17.8734C6.97717 13.427 10.5624 9.8418 14.9912 9.8418Z" fill="#F4C534"/>
<path fill-rule="evenodd" clip-rule="evenodd" d="M14.9913 9.8418C19.4377 9.8418 23.0229 13.427 23.0229 17.8734C23.0229 20.2284 22.0036 22.3726 20.3691 23.8313H14.1125C11.4763 22.5307 9.64856 19.7891 9.64856 16.6432C9.64856 13.9191 11.0018 11.529 13.0756 10.0703C13.6907 9.9121 14.341 9.8418 14.9913 9.8418Z" fill="#FFD93B"/>
<path d="M14.7627 3.39199C14.7627 3.11079 14.5343 2.86475 14.2355 2.86475C13.9543 2.86475 13.7083 3.11079 13.7083 3.39199V8.18988C13.7083 8.48865 13.9543 8.71712 14.2355 8.71712C14.5343 8.71712 14.7627 8.48865 14.7627 8.18988V3.39199Z" fill="#F4C534"/>
<path d="M16.2742 5.7997C16.2742 5.50093 16.0457 5.27246 15.747 5.27246C15.4658 5.27246 15.2197 5.50093 15.2197 5.7997V8.18986C15.2197 8.48863 15.4658 8.7171 15.747 8.7171C16.0457 8.7171 16.2742 8.48863 16.2742 8.18986V5.7997Z" fill="#F4C534"/>
<path d="M22.0387 5.21979C22.1793 4.97375 22.0914 4.63983 21.8453 4.49923C21.5993 4.35863 21.2654 4.4465 21.1248 4.69255L18.7346 8.84018C18.5764 9.1038 18.6643 9.42014 18.9104 9.56074C19.174 9.71891 19.4903 9.63104 19.6309 9.36742L22.0387 5.21979Z" fill="#F4C534"/>
<path d="M22.1442 8.04938C22.2848 7.80334 22.1969 7.48699 21.9508 7.32882C21.7048 7.18822 21.3709 7.27609 21.2303 7.52214L20.0352 9.59595C19.877 9.85957 19.9649 10.1759 20.2285 10.3165C20.4746 10.4747 20.7909 10.3868 20.9491 10.1232L22.1442 8.04938Z" fill="#F4C534"/>
<path d="M27.4166 10.4394C27.6626 10.2813 27.7505 9.96492 27.6099 9.71888C27.4693 9.45525 27.1354 9.38496 26.8893 9.52555L22.7417 11.9157C22.4781 12.0739 22.3902 12.3902 22.5484 12.6363C22.689 12.8999 23.0053 12.9702 23.2689 12.8296L27.4166 10.4394Z" fill="#F4C534"/>
<path d="M26.0985 12.9351C26.3445 12.7945 26.4324 12.4781 26.2742 12.2145C26.1336 11.9685 25.8173 11.8806 25.5712 12.0212L23.4798 13.2339C23.2338 13.3745 23.1459 13.6908 23.3041 13.9368C23.4447 14.2005 23.761 14.2883 24.0071 14.1302L26.0985 12.9351Z" fill="#F4C534"/>
<path d="M29.4727 17.6453C29.7539 17.6453 30 17.3993 30 17.1181C30 16.8193 29.7539 16.5908 29.4727 16.5908H24.6748C24.3761 16.5908 24.1476 16.8193 24.1476 17.1181C24.1476 17.3993 24.3761 17.6453 24.6748 17.6453H29.4727Z" fill="#F4C534"/>
<path d="M27.065 19.139C27.3638 19.139 27.5922 18.9105 27.5922 18.6117C27.5922 18.3305 27.3638 18.0845 27.065 18.0845H24.6748C24.3761 18.0845 24.1476 18.3305 24.1476 18.6117C24.1476 18.9105 24.3761 19.139 24.6748 19.139H27.065Z" fill="#F4C534"/>
<path d="M0.527241 18.0845C0.228471 18.0845 0 18.3305 0 18.6117C0 18.9105 0.228471 19.139 0.527241 19.139H5.32513C5.6239 19.139 5.85237 18.9105 5.85237 18.6117C5.85237 18.3305 5.6239 18.0845 5.32513 18.0845H0.527241Z" fill="#F4C534"/>
<path d="M2.91738 16.5908C2.63618 16.5908 2.39014 16.8193 2.39014 17.1181C2.39014 17.3993 2.63618 17.6453 2.91738 17.6453H5.32511C5.62388 17.6453 5.85235 17.3993 5.85235 17.1181C5.85235 16.8193 5.62388 16.5908 5.32511 16.5908H2.91738Z" fill="#F4C534"/>
<path d="M2.35505 10.8259C2.109 10.6853 1.77508 10.7732 1.63448 11.0192C1.49389 11.2653 1.58176 11.5992 1.8278 11.7398L5.97543 14.1299C6.23905 14.2881 6.5554 14.2002 6.69599 13.9366C6.83659 13.6906 6.76629 13.3742 6.50267 13.2336L2.35505 10.8259Z" fill="#F4C534"/>
<path d="M5.18451 10.7204C4.93847 10.5798 4.60455 10.6677 4.46395 10.9137C4.32335 11.1598 4.41123 11.4937 4.65727 11.6343L6.73109 12.8294C6.97713 12.97 7.31105 12.8997 7.45165 12.6361C7.59225 12.39 7.50437 12.0737 7.25833 11.9155L5.18451 10.7204Z" fill="#F4C534"/>
<path d="M7.55711 5.44841C7.41652 5.20236 7.10017 5.11449 6.85413 5.25509C6.59051 5.39569 6.50263 5.7296 6.6608 5.97565L9.05096 10.1233C9.19156 10.3869 9.52548 10.4748 9.77153 10.3166C10.0176 10.176 10.1054 9.85966 9.96485 9.59604L7.55711 5.44841Z" fill="#F4C534"/>
<path d="M10.0703 6.76628C9.92974 6.52024 9.59582 6.43236 9.34978 6.57296C9.10373 6.73113 9.01586 7.04748 9.15646 7.29352L10.3515 9.36734C10.5097 9.63096 10.8261 9.71883 11.0721 9.56066C11.3357 9.42006 11.406 9.10372 11.2654 8.84009L10.0703 6.76628Z" fill="#F4C534"/>
<path d="M2.02114 23.5151C1.72237 23.5151 1.4939 23.7436 1.4939 24.0424C1.4939 24.3236 1.72237 24.5696 2.02114 24.5696H27.979C28.2602 24.5696 28.5062 24.3236 28.5062 24.0424C28.5062 23.7436 28.2602 23.5151 27.979 23.5151H2.02114Z" fill="#6CBFF8"/>
<path d="M7.76796 26.0635C7.46919 26.0635 7.24072 26.3095 7.24072 26.5907C7.24072 26.8895 7.46919 27.118 7.76796 27.118H22.2319C22.5131 27.118 22.7592 26.8895 22.7592 26.5907C22.7592 26.3095 22.5131 26.0635 22.2319 26.0635H7.76796Z" fill="#6CBFF8"/>
</g>
<defs>
<clipPath id="clip0_4275_1995">
<rect width="30" height="30" fill="white"/>
</clipPath>
</defs>
</svg>
