<svg width="30" height="26" viewBox="0 0 30 26" fill="none" xmlns="http://www.w3.org/2000/svg">
<path fill-rule="evenodd" clip-rule="evenodd" d="M14.9912 7.8418C19.4376 7.8418 23.0229 11.427 23.0229 15.8734C23.0229 18.2284 22.0035 20.3726 20.3691 21.8313H9.63095C7.99651 20.3726 6.97717 18.2284 6.97717 15.8734C6.97717 11.427 10.5624 7.8418 14.9912 7.8418Z" fill="white"/>
<path fill-rule="evenodd" clip-rule="evenodd" d="M14.9913 7.8418C19.4377 7.8418 23.0229 11.427 23.0229 15.8734C23.0229 18.2284 22.0036 20.3726 20.3691 21.8313H14.1125C11.4763 20.5307 9.64856 17.7891 9.64856 14.6432C9.64856 11.9191 11.0018 9.52897 13.0756 8.07027C13.6907 7.9121 14.341 7.8418 14.9913 7.8418Z" fill="white"/>
<path d="M14.7627 1.39199C14.7627 1.11079 14.5343 0.864746 14.2355 0.864746C13.9543 0.864746 13.7083 1.11079 13.7083 1.39199V6.18988C13.7083 6.48865 13.9543 6.71712 14.2355 6.71712C14.5343 6.71712 14.7627 6.48865 14.7627 6.18988V1.39199Z" fill="white"/>
<path d="M16.2742 3.7997C16.2742 3.50093 16.0457 3.27246 15.747 3.27246C15.4658 3.27246 15.2197 3.50093 15.2197 3.7997V6.18986C15.2197 6.48863 15.4658 6.7171 15.747 6.7171C16.0457 6.7171 16.2742 6.48863 16.2742 6.18986V3.7997Z" fill="white"/>
<path d="M22.0387 3.21979C22.1793 2.97375 22.0914 2.63983 21.8453 2.49923C21.5993 2.35863 21.2654 2.4465 21.1248 2.69255L18.7346 6.84018C18.5764 7.1038 18.6643 7.42014 18.9104 7.56074C19.174 7.71891 19.4903 7.63104 19.6309 7.36742L22.0387 3.21979Z" fill="white"/>
<path d="M22.1442 6.04938C22.2848 5.80334 22.1969 5.48699 21.9508 5.32882C21.7048 5.18822 21.3709 5.27609 21.2303 5.52214L20.0352 7.59595C19.877 7.85957 19.9649 8.17592 20.2285 8.31652C20.4746 8.47469 20.7909 8.38682 20.9491 8.12319L22.1442 6.04938Z" fill="white"/>
<path d="M27.4166 8.43944C27.6626 8.28127 27.7505 7.96492 27.6099 7.71888C27.4693 7.45525 27.1354 7.38496 26.8893 7.52555L22.7417 9.91571C22.4781 10.0739 22.3902 10.3902 22.5484 10.6363C22.689 10.8999 23.0053 10.9702 23.2689 10.8296L27.4166 8.43944Z" fill="white"/>
<path d="M26.0985 10.9351C26.3445 10.7945 26.4324 10.4781 26.2742 10.2145C26.1336 9.96848 25.8173 9.8806 25.5712 10.0212L23.4798 11.2339C23.2338 11.3745 23.1459 11.6908 23.3041 11.9368C23.4447 12.2005 23.761 12.2883 24.0071 12.1302L26.0985 10.9351Z" fill="white"/>
<path d="M29.4727 15.6451C29.7539 15.6451 30 15.399 30 15.1178C30 14.819 29.7539 14.5906 29.4727 14.5906H24.6748C24.3761 14.5906 24.1476 14.819 24.1476 15.1178C24.1476 15.399 24.3761 15.6451 24.6748 15.6451H29.4727Z" fill="white"/>
<path d="M27.065 17.139C27.3638 17.139 27.5922 16.9105 27.5922 16.6117C27.5922 16.3305 27.3638 16.0845 27.065 16.0845H24.6748C24.3761 16.0845 24.1476 16.3305 24.1476 16.6117C24.1476 16.9105 24.3761 17.139 24.6748 17.139H27.065Z" fill="white"/>
<path d="M0.527241 16.0845C0.228471 16.0845 0 16.3305 0 16.6117C0 16.9105 0.228471 17.139 0.527241 17.139H5.32513C5.6239 17.139 5.85237 16.9105 5.85237 16.6117C5.85237 16.3305 5.6239 16.0845 5.32513 16.0845H0.527241Z" fill="white"/>
<path d="M2.91738 14.5906C2.63618 14.5906 2.39014 14.819 2.39014 15.1178C2.39014 15.399 2.63618 15.6451 2.91738 15.6451H5.32511C5.62388 15.6451 5.85235 15.399 5.85235 15.1178C5.85235 14.819 5.62388 14.5906 5.32511 14.5906H2.91738Z" fill="white"/>
<path d="M2.35505 8.82613C2.109 8.68554 1.77508 8.77341 1.63448 9.01945C1.49389 9.2655 1.58176 9.59942 1.8278 9.74002L5.97543 12.1302C6.23905 12.2883 6.5554 12.2005 6.69599 11.9369C6.83659 11.6908 6.76629 11.3745 6.50267 11.2339L2.35505 8.82613Z" fill="white"/>
<path d="M5.18451 8.72066C4.93847 8.58007 4.60455 8.66794 4.46395 8.91399C4.32335 9.16003 4.41123 9.49395 4.65727 9.63455L6.73109 10.8296C6.97713 10.9702 7.31105 10.8999 7.45165 10.6363C7.59225 10.3903 7.50437 10.0739 7.25833 9.91574L5.18451 8.72066Z" fill="white"/>
<path d="M7.55711 3.44817C7.41652 3.20212 7.10017 3.11425 6.85413 3.25484C6.59051 3.39544 6.50263 3.72936 6.6608 3.97541L9.05096 8.12303C9.19156 8.38665 9.52548 8.47453 9.77153 8.31636C10.0176 8.17576 10.1054 7.85941 9.96485 7.59579L7.55711 3.44817Z" fill="white"/>
<path d="M10.0703 4.76628C9.92974 4.52024 9.59582 4.43236 9.34978 4.57296C9.10373 4.73113 9.01586 5.04748 9.15646 5.29352L10.3515 7.36734C10.5097 7.63096 10.8261 7.71883 11.0721 7.56066C11.3357 7.42006 11.406 7.10372 11.2654 6.84009L10.0703 4.76628Z" fill="white"/>
<path d="M2.02114 21.5151C1.72237 21.5151 1.4939 21.7436 1.4939 22.0424C1.4939 22.3236 1.72237 22.5696 2.02114 22.5696H27.979C28.2602 22.5696 28.5062 22.3236 28.5062 22.0424C28.5062 21.7436 28.2602 21.5151 27.979 21.5151H2.02114Z" fill="white"/>
<path d="M7.76796 24.0635C7.46919 24.0635 7.24072 24.3095 7.24072 24.5907C7.24072 24.8895 7.46919 25.118 7.76796 25.118H22.2319C22.5131 25.118 22.7592 24.8895 22.7592 24.5907C22.7592 24.3095 22.5131 24.0635 22.2319 24.0635H7.76796Z" fill="white"/>
</svg>
