<svg width="30" height="30" viewBox="0 0 30 30" fill="none" xmlns="http://www.w3.org/2000/svg">
<g clip-path="url(#clip0_4330_194)">
<path d="M17.6794 10.4357V10.4413C17.6763 14.167 14.6554 17.186 10.9297 17.186C9.01032 17.186 7.27758 16.385 6.04911 15.0987C4.89106 13.8866 4.17932 12.2444 4.17932 10.4357C4.17932 6.70745 7.20147 3.6853 10.9297 3.6853C14.6572 3.6853 17.6794 6.70745 17.6794 10.4357Z" fill="#FEC007"/>
<path d="M17.6795 10.4411C17.6764 14.1668 14.6555 17.1859 10.9298 17.1859C9.01041 17.1859 7.27767 16.3849 6.04919 15.0986C6.05042 15.0973 6.05236 15.0967 6.05359 15.0961C6.05171 15.0325 6.05107 14.9697 6.05107 14.9068C6.05107 11.2276 9.04433 8.23438 12.7235 8.23438C14.2368 8.23438 15.7186 8.75492 16.8968 9.70051C17.1784 9.92621 17.44 10.1739 17.6795 10.4411Z" fill="#FF9300"/>
<path d="M16.1165 10.4356C16.1165 13.3006 13.7941 15.623 10.9297 15.623C8.95436 15.623 7.23739 14.519 6.36159 12.8944C5.96614 12.1626 5.74231 11.3258 5.74231 10.4356C5.74231 7.5712 8.06473 5.24878 10.9297 5.24878C13.3169 5.24878 15.3275 6.8614 15.9311 9.05685C16.0518 9.49565 16.1165 9.95837 16.1165 10.4356Z" fill="#FF9300"/>
<path d="M16.1165 10.4357C16.1165 13.3007 13.7941 15.6231 10.9297 15.6231C8.95435 15.6231 7.23737 14.5191 6.36157 12.8945C7.21657 10.1955 9.74524 8.23462 12.7234 8.23462C13.8469 8.23462 14.9534 8.5219 15.931 9.05698C16.0517 9.49579 16.1165 9.95851 16.1165 10.4357Z" fill="#FF7400"/>
<path d="M10.9294 2.19891C10.6867 2.19891 10.49 2.00215 10.49 1.75945V0.439453C10.49 0.196758 10.6867 0 10.9294 0C11.1722 0 11.3689 0.196758 11.3689 0.439453V1.75945C11.3689 2.00215 11.1722 2.19891 10.9294 2.19891Z" fill="#FEC007"/>
<path d="M18.4189 6.49429C18.2679 6.49429 18.121 6.41642 18.0392 6.27668C17.9166 6.06714 17.9871 5.79802 18.1967 5.67544L19.336 5.00894C19.5456 4.88636 19.8147 4.95691 19.9373 5.16638C20.0598 5.37591 19.9893 5.64503 19.7798 5.76761L18.6404 6.43412C18.5706 6.4749 18.4943 6.49429 18.4189 6.49429Z" fill="#FEC007"/>
<path d="M2.30136 15.9228C2.15037 15.9228 2.00341 15.8449 1.92167 15.7051C1.7991 15.4956 1.86958 15.2265 2.07912 15.1039L3.21847 14.4374C3.428 14.3148 3.69706 14.3854 3.8197 14.5948C3.94228 14.8044 3.87179 15.0735 3.66226 15.1961L2.5229 15.8626C2.45312 15.9033 2.37671 15.9228 2.30136 15.9228Z" fill="#FEC007"/>
<path d="M15.268 3.36174C15.1934 3.36174 15.1178 3.34275 15.0486 3.30274C14.8384 3.18139 14.7665 2.91262 14.8878 2.70244L15.5479 1.5594C15.6693 1.34922 15.9379 1.27715 16.1483 1.39861C16.3585 1.51996 16.4304 1.78873 16.3091 1.99891L15.649 3.14195C15.5676 3.28293 15.4199 3.36174 15.268 3.36174Z" fill="#FEC007"/>
<path d="M20.9258 10.8752H19.6058C19.3631 10.8752 19.1664 10.6785 19.1664 10.4358C19.1664 10.1931 19.3631 9.99634 19.6058 9.99634H20.9258C21.1686 9.99634 21.3653 10.1931 21.3653 10.4358C21.3653 10.6785 21.1685 10.8752 20.9258 10.8752Z" fill="#FEC007"/>
<path d="M2.25311 10.8752H0.933105C0.690352 10.8752 0.493652 10.6785 0.493652 10.4358C0.493652 10.1931 0.690352 9.99634 0.933105 9.99634H2.25311C2.49586 9.99634 2.69256 10.1931 2.69256 10.4358C2.69256 10.6785 2.49586 10.8752 2.25311 10.8752Z" fill="#FEC007"/>
<path d="M6.54886 3.38633C6.39786 3.38633 6.25091 3.30846 6.16917 3.16872L5.50261 2.02936C5.38003 1.81989 5.45052 1.55071 5.66005 1.42813C5.86952 1.30555 6.1387 1.3761 6.26128 1.58557L6.92778 2.72493C7.05036 2.9344 6.97987 3.20358 6.77034 3.32616C6.70056 3.36688 6.62421 3.38633 6.54886 3.38633Z" fill="#FEC007"/>
<path d="M3.4156 6.53654C3.34107 6.53654 3.26542 6.51756 3.19622 6.4776L2.05312 5.81748C1.84294 5.69607 1.77099 5.4273 1.89234 5.21713C2.01368 5.00695 2.28234 4.93488 2.49269 5.05629L3.63579 5.71641C3.84597 5.83781 3.91792 6.10658 3.79657 6.31676C3.71513 6.45767 3.56747 6.53654 3.4156 6.53654Z" fill="#FEC007"/>
<path d="M28.5551 22.9911H3.02051C3.02051 21.7506 3.77109 20.686 4.84219 20.2254C4.8416 20.2237 4.84102 20.2213 4.84043 20.2196C4.73848 19.9448 4.67227 19.6536 4.64648 19.3506C4.63828 19.2563 4.63418 19.1614 4.63418 19.0647C4.63418 17.4891 5.72637 16.1702 7.19414 15.8198C7.14551 15.5227 7.11973 15.2174 7.11973 14.9069C7.11973 11.812 9.62812 9.30298 12.723 9.30298C15.2221 9.30298 17.3396 10.9389 18.0615 13.1989C18.1061 13.3377 18.1453 13.479 18.1787 13.6219C18.3164 13.5739 18.4564 13.5323 18.6 13.4977C18.9428 13.4139 19.3008 13.3688 19.6693 13.3688C22.1637 13.3688 24.1857 15.3909 24.1857 17.8852C24.1857 18.1014 24.1699 18.3141 24.14 18.5215C24.1195 18.668 24.092 18.8116 24.0574 18.9528C24.1992 18.9223 24.3439 18.8989 24.491 18.8831C24.6369 18.8672 24.7846 18.859 24.9346 18.859C27.0328 18.859 28.766 20.4229 29.0314 22.4491C29.0695 22.7362 28.8451 22.9911 28.5551 22.9911Z" fill="#CAFFFF"/>
<path d="M29.0667 22.9911H28.2894C27.9744 21.0216 26.2675 19.5166 24.2099 19.5166C23.9088 19.5166 23.6155 19.55 23.3327 19.6108C23.4158 19.2684 23.4604 18.911 23.4604 18.543C23.4604 16.0488 21.4385 14.0268 18.9442 14.0268C18.4218 14.0268 17.9204 14.1166 17.4537 14.28C16.8727 11.8047 14.6511 9.96123 11.998 9.96123C10.7249 9.96123 9.5512 10.3856 8.61047 11.101C9.6337 9.99521 11.0974 9.30322 12.7229 9.30322C15.3761 9.30322 17.5976 11.1467 18.1787 13.622C18.6454 13.4586 19.1467 13.3688 19.6692 13.3688C22.1634 13.3688 24.1853 15.3907 24.1853 17.885C24.1853 18.253 24.1407 18.6104 24.0577 18.9528C24.3404 18.892 24.6337 18.8586 24.9348 18.8586C27.2166 18.8586 29.0667 20.7088 29.0667 22.9911Z" fill="#7DF6FF"/>
<path d="M9.10605 20.9724C9.01992 21.0667 8.90156 21.1142 8.7832 21.1142C8.67656 21.1142 8.56992 21.0755 8.48555 20.9982C6.79336 19.439 5.15918 20.0724 4.84043 20.2195C4.73848 19.9447 4.67227 19.6535 4.64648 19.3505C4.90664 19.2509 5.33437 19.1232 5.86523 19.0968C6.66738 19.0564 7.87559 19.241 9.08086 20.3513C9.25957 20.516 9.2707 20.7937 9.10605 20.9724Z" fill="#7DF6FF"/>
<path d="M18.3587 14.0228C18.337 14.0328 16.663 14.8074 16.2751 16.2605C16.2223 16.4574 16.0448 16.5869 15.8508 16.5869C15.8133 16.5869 15.7747 16.5822 15.7372 16.5716C15.5022 16.5095 15.3633 16.2687 15.4255 16.0337C15.9235 14.1693 17.9145 13.2587 17.9989 13.2212C18.0194 13.2119 18.0405 13.2048 18.0616 13.199C18.1061 13.3378 18.1454 13.4791 18.1788 13.622C18.3165 13.574 18.4565 13.5324 18.6001 13.4978C18.6616 13.7052 18.562 13.932 18.3587 14.0228Z" fill="#7DF6FF"/>
<path d="M24.1987 19.3693C24.1858 19.3734 22.9717 19.7994 22.469 20.8623C22.394 21.0211 22.2364 21.1142 22.0717 21.1142C22.009 21.1142 21.9446 21.1008 21.8842 21.072C21.6645 20.9683 21.5707 20.7064 21.6745 20.4867C22.3407 19.0793 23.8536 18.5578 23.9174 18.5361C23.9918 18.5115 24.068 18.5074 24.1401 18.5215C24.1196 18.6679 24.092 18.8115 24.0575 18.9527C24.1993 18.9222 24.344 18.8988 24.4911 18.883C24.525 19.0916 24.4049 19.299 24.1987 19.3693Z" fill="#7DF6FF"/>
<path d="M29.0669 25.7964H3.02039C2.77763 25.7964 2.58093 25.5996 2.58093 25.3569C2.58093 25.1142 2.77763 24.9175 3.02039 24.9175H29.0669C29.3097 24.9175 29.5064 25.1142 29.5064 25.3569C29.5064 25.5996 29.3097 25.7964 29.0669 25.7964Z" fill="#2CD7FF"/>
<path d="M26.754 27.8979H5.33337C5.09062 27.8979 4.89392 27.7012 4.89392 27.4585C4.89392 27.2158 5.09062 27.019 5.33337 27.019H26.754C26.9967 27.019 27.1934 27.2158 27.1934 27.4585C27.1934 27.7012 26.9967 27.8979 26.754 27.8979Z" fill="#2CD7FF"/>
<path d="M22.072 30H10.0154C9.77263 30 9.57593 29.8032 9.57593 29.5605C9.57593 29.3179 9.77263 29.1211 10.0154 29.1211H22.072C22.3148 29.1211 22.5115 29.3179 22.5115 29.5605C22.5115 29.8032 22.3147 30 22.072 30Z" fill="#2CD7FF"/>
<path d="M14.8342 14.4404C14.5915 14.4404 14.3948 14.2437 14.3948 14.001V13.9526C14.3948 13.7099 14.5915 13.5132 14.8342 13.5132C15.077 13.5132 15.2737 13.7099 15.2737 13.9526V14.001C15.2737 14.2437 15.0769 14.4404 14.8342 14.4404Z" fill="#7DF6FF"/>
<path d="M13.0729 15.8547C12.8301 15.8547 12.6334 15.658 12.6334 15.4153V15.3669C12.6334 15.1242 12.8301 14.9275 13.0729 14.9275C13.3156 14.9275 13.5123 15.1242 13.5123 15.3669V15.4153C13.5123 15.658 13.3156 15.8547 13.0729 15.8547Z" fill="#7DF6FF"/>
<path d="M21.9647 18.9583C21.722 18.9583 21.5253 18.7615 21.5253 18.5188V18.4705C21.5253 18.2278 21.722 18.031 21.9647 18.031C22.2075 18.031 22.4042 18.2278 22.4042 18.4705V18.5188C22.4042 18.7615 22.2075 18.9583 21.9647 18.9583Z" fill="#7DF6FF"/>
</g>
<defs>
<clipPath id="clip0_4330_194">
<rect width="30" height="30" fill="white"/>
</clipPath>
</defs>
</svg>
