<svg width="17" height="12" viewBox="0 0 17 12" fill="none" xmlns="http://www.w3.org/2000/svg">
<g clip-path="url(#clip0_4262_638)">
<path d="M8.91449 5.31704C9.70862 5.31704 10.3962 5.07969 10.9581 4.6114C11.5199 4.14318 11.8048 3.57029 11.8048 2.90844C11.8048 2.24682 11.52 1.67386 10.958 1.20549C10.3961 0.73735 9.70853 0.5 8.91449 0.5C8.12027 0.5 7.4328 0.73735 6.87094 1.20557C6.30908 1.67378 6.02417 2.24675 6.02417 2.90844C6.02417 3.57029 6.30908 4.14326 6.87094 4.61147C7.43298 5.07961 8.12054 5.31704 8.91449 5.31704ZM7.36826 1.61992C7.79938 1.26065 8.30511 1.08601 8.91449 1.08601C9.52377 1.08601 10.0296 1.26065 10.4608 1.61992C10.8919 1.97926 11.1016 2.40078 11.1016 2.90844C11.1016 3.41625 10.8919 3.8377 10.4608 4.19704C10.0296 4.55639 9.52377 4.73103 8.91449 4.73103C8.3053 4.73103 7.79956 4.55631 7.36826 4.19704C6.93704 3.83778 6.72739 3.41625 6.72739 2.90844C6.72739 2.40078 6.93704 1.97926 7.36826 1.61992Z" fill="#1FBAD6"/>
<path d="M13.9718 8.18968C13.9556 7.99482 13.9228 7.78227 13.8745 7.55781C13.8258 7.33168 13.7631 7.1179 13.688 6.92251C13.6104 6.72056 13.505 6.52113 13.3746 6.33002C13.2393 6.13165 13.0804 5.95892 12.9021 5.81679C12.7156 5.66809 12.4872 5.54854 12.2232 5.46133C11.9601 5.37459 11.6685 5.33064 11.3566 5.33064C11.2341 5.33064 11.1156 5.37253 10.8868 5.49666C10.746 5.57318 10.5813 5.66168 10.3975 5.75957C10.2403 5.84303 10.0273 5.92123 9.76428 5.99203C9.50766 6.06123 9.2471 6.09633 8.98984 6.09633C8.73276 6.09633 8.4722 6.06123 8.21539 5.99203C7.95264 5.92131 7.73959 5.84311 7.58267 5.75964C7.40057 5.66267 7.23578 5.57417 7.09286 5.49658C6.86426 5.37245 6.74579 5.33057 6.62329 5.33057C6.31128 5.33057 6.01978 5.37459 5.75674 5.46141C5.49289 5.54846 5.26447 5.66801 5.07779 5.81686C4.89944 5.95907 4.74051 6.13173 4.60538 6.33002C4.4751 6.52113 4.36963 6.72049 4.29199 6.92259C4.21701 7.11798 4.1543 7.33168 4.10559 7.55781C4.05725 7.78196 4.02457 7.99459 4.00836 8.18991C3.99243 8.38087 3.98438 8.57961 3.98438 8.78042C3.98438 9.30242 4.1835 9.72501 4.57617 10.0367C4.96399 10.3442 5.47705 10.5002 6.10117 10.5002H11.8792C12.5032 10.5002 13.0162 10.3442 13.4041 10.0367C13.7969 9.72524 13.996 9.3025 13.996 8.78034C13.9959 8.57885 13.9878 8.38011 13.9718 8.18968ZM12.9193 9.6121C12.663 9.81534 12.3228 9.91415 11.8792 9.91415H6.10117C5.65741 9.91415 5.3172 9.81534 5.06104 9.61217C4.80972 9.41282 4.68759 9.14068 4.68759 8.78042C4.68759 8.59304 4.69501 8.40803 4.70984 8.23042C4.7243 8.05616 4.75388 7.86474 4.79773 7.66134C4.84103 7.46046 4.89615 7.27194 4.9617 7.10127C5.0246 6.93762 5.11038 6.77557 5.21677 6.61947C5.3183 6.4707 5.43512 6.34306 5.56403 6.24022C5.6846 6.14401 5.83658 6.06528 6.01566 6.00622C6.18127 5.9516 6.3674 5.92169 6.56946 5.91719C6.59409 5.9281 6.63794 5.94893 6.70898 5.98753C6.85355 6.06604 7.02017 6.15561 7.20438 6.25365C7.41202 6.36397 7.67953 6.46361 7.99915 6.54959C8.3259 6.63763 8.65915 6.68234 8.98993 6.68234C9.32071 6.68234 9.65405 6.63763 9.98062 6.54966C10.3005 6.46353 10.5679 6.36397 10.7758 6.25349C10.9644 6.15309 11.1263 6.06611 11.2709 5.98753C11.3419 5.949 11.3858 5.9281 11.4104 5.91719C11.6125 5.92169 11.7987 5.9516 11.9644 6.00622C12.1434 6.06528 12.2953 6.14409 12.4159 6.24022C12.5448 6.34299 12.6617 6.47062 12.7632 6.61955C12.8697 6.77557 12.9555 6.9377 13.0183 7.10119C13.084 7.27209 13.1392 7.46054 13.1824 7.66127C13.2262 7.86505 13.2558 8.05654 13.2703 8.23049V8.23065C13.2852 8.40757 13.2927 8.59251 13.2928 8.78042C13.2927 9.14076 13.1706 9.41282 12.9193 9.6121Z" fill="#1FBAD6"/>
</g>
<defs>
<clipPath id="clip0_4262_638">
<rect width="16" height="11" fill="white" transform="translate(0.5 0.5)"/>
</clipPath>
</defs>
</svg>
