<svg width="14" height="14" viewBox="0 0 14 14" fill="none" xmlns="http://www.w3.org/2000/svg">
<path d="M13.8673 13.2383L10.2527 9.68153C11.1993 8.65314 11.7808 7.29308 11.7808 5.79648C11.7804 2.59497 9.14339 0 5.89025 0C2.63711 0 0.00012207 2.59497 0.00012207 5.79648C0.00012207 8.99799 2.63711 11.593 5.89025 11.593C7.29583 11.593 8.585 11.1068 9.59763 10.2985L13.2262 13.8694C13.403 14.0435 13.6901 14.0435 13.8669 13.8694C14.0441 13.6952 14.0441 13.4125 13.8673 13.2383ZM5.89025 10.7011C3.13774 10.7011 0.906401 8.50525 0.906401 5.79648C0.906401 3.0877 3.13774 0.891822 5.89025 0.891822C8.64278 0.891822 10.8741 3.0877 10.8741 5.79648C10.8741 8.50525 8.64278 10.7011 5.89025 10.7011Z" fill="#C4C1C1"/>
</svg>
