<svg width="24" height="24" viewBox="0 0 24 24" fill="none" xmlns="http://www.w3.org/2000/svg">
<g clip-path="url(#clip0_4261_176)">
<path d="M11.707 15.4382H11.1598V15.9627H10.7904V15.4382H10.2431V15.9627H9.75514V15.4382H9.2079V15.9627H8.71994V15.4382H8.17266V15.9627H7.76221V16.5099H8.17266V17.007H8.71994V16.5099H9.2079V17.007H9.75514V16.5099H10.2431V17.007H10.7904V16.5099H11.1598V17.007H11.707V16.5099H12.1631V15.9627H11.707V15.4382Z" fill="#232232"/>
<path d="M21.3753 15.6298C21.1382 15.5021 20.8828 15.4018 20.6228 15.3288C21.2977 14.9001 21.8906 14.362 22.3968 13.7235C23.7376 12.0407 24.2757 9.86538 23.8653 7.75389C23.5369 6.03915 22.602 4.49771 21.2385 3.40776C21.2385 3.40776 21.2385 3.40776 21.2339 3.40319C21.2339 3.40319 21.2293 3.40319 21.2293 3.39862C19.8338 2.28587 18.0826 1.72035 16.304 1.80701H16.2994C14.1925 1.91189 12.2315 2.91519 10.9181 4.56152C10.8907 4.59799 10.8634 4.6345 10.836 4.6664C10.4027 4.34261 9.93758 4.07356 9.44505 3.86374C8.51017 3.467 7.4795 3.27999 6.46249 3.33017C5.72824 3.36664 5.01227 3.51714 4.3282 3.78166C4.32363 3.78166 4.32363 3.78166 4.31906 3.78623C3.20631 4.21948 2.22582 4.94002 1.4779 5.87948C1.09026 6.37201 0.771027 6.90558 0.53388 7.4711C0.53388 7.47567 0.529311 7.47566 0.529311 7.48023C0.520173 7.49847 0.515644 7.51671 0.511075 7.53494C0.0231126 8.71611 -0.122815 10.025 0.105195 11.311C0.159903 11.6257 0.237455 11.9313 0.333204 12.2277C0.333204 12.2322 0.333204 12.2322 0.337773 12.2368C0.337773 12.2414 0.337773 12.2414 0.342342 12.246C0.702613 13.345 1.33654 14.3301 2.18934 15.1145C1.91572 15.2422 1.66034 15.4018 1.42776 15.5979C1.42776 15.5979 1.42776 15.5979 1.42319 15.6025C1.42319 15.6025 1.41862 15.6025 1.41862 15.607C0.620531 16.2729 0.164511 17.2488 0.164511 18.2886C0.164511 19.3284 0.62057 20.3043 1.41862 20.9656L1.42776 20.9747C2.05255 21.4946 2.84151 21.7773 3.65327 21.7773C4.47417 21.7773 5.25399 21.4946 5.87878 20.9747L5.89245 20.9611C5.95629 20.9063 6.01557 20.8562 6.07485 20.7969C6.17064 20.7011 6.26182 20.6054 6.34847 20.5005C6.43055 20.5369 6.5081 20.5735 6.60842 20.6145C7.80782 21.1253 9.05284 21.3852 10.3115 21.3852C11.3422 21.3852 12.3729 21.2165 13.367 20.8835C13.3716 20.8835 13.3762 20.8835 13.3762 20.879C14.1423 20.6236 14.8674 20.277 15.5333 19.8529H15.5378H15.5424C15.8024 19.6841 16.0486 19.5108 16.2812 19.3239C16.4226 20.1265 16.8422 20.8562 17.4806 21.3898C18.1054 21.9143 18.8989 22.2015 19.7198 22.2015C20.6273 22.2015 21.4892 21.8549 22.146 21.2211C22.8346 20.5552 23.2131 19.6659 23.2131 18.7082C23.2131 17.7505 22.8346 16.8612 22.146 16.1954C21.9134 15.9673 21.6535 15.7803 21.3753 15.6298ZM16.2265 18.6443C16.0486 18.8039 15.8617 18.9544 15.661 19.1003V13.386C16.7145 14.1613 17.4624 15.1054 17.6403 15.8943C17.5855 15.9353 17.5308 15.9764 17.4806 16.0174C16.6962 16.6742 16.2447 17.6273 16.2265 18.6443ZM5.71462 20.3773C5.58692 20.2541 5.4729 20.1173 5.37258 19.976L5.71462 19.7434L5.40448 19.2919L5.09435 19.5017C5.01227 19.3193 4.94386 19.1232 4.89825 18.927L5.29956 18.8313L5.17187 18.2977L4.82526 18.3798C4.82526 18.3478 4.82069 18.3114 4.82069 18.2794C4.82069 18.1654 4.82983 18.0514 4.83893 17.9374L5.1673 18.0149L5.29499 17.4814L4.96662 17.3993C5.01223 17.2488 5.07151 17.1028 5.14449 16.9615L5.40901 17.1393L5.71914 16.6878L5.43639 16.4963C5.52304 16.3823 5.61426 16.2774 5.71914 16.1771C6.05661 16.51 6.30746 16.9113 6.44882 17.3445C6.45339 17.3673 6.46249 17.3901 6.47163 17.4084C6.55371 17.6866 6.59932 17.9739 6.59932 18.2749C6.59479 19.073 6.28466 19.8163 5.71462 20.3773ZM6.07489 15.762C6.01561 15.7073 5.95633 15.6526 5.89249 15.5979C5.88792 15.5933 5.88335 15.5887 5.87882 15.5887C5.58239 15.3425 5.24493 15.1464 4.88919 15.0096V13.4088C5.35891 13.0577 5.87882 12.7476 6.43976 12.4876V16.1679C6.33027 16.0311 6.21172 15.8943 6.07489 15.762ZM0.821246 11.9495C0.748262 11.7078 0.688985 11.4615 0.643375 11.2107C0.447268 10.1162 0.552155 9.00801 0.921564 7.98647L2.41282 8.75262L2.70925 11.2791C2.67731 11.3019 2.64997 11.3338 2.63174 11.3749L2.06622 12.5287L0.821246 11.9495ZM6.44886 5.25929L8.72455 5.11793L10.4667 6.95123L9.76893 8.82104L7.47044 9.09923L5.71009 7.22032L6.44886 5.25929ZM10.6764 5.23649C11.365 5.7883 11.9305 6.47693 12.3319 7.25222L10.9409 6.65937L9.18514 4.81237L9.43142 4.4612C9.87378 4.67097 10.2888 4.93093 10.6764 5.23649ZM16.2767 9.19041L14.1241 11.8856C13.8915 11.7853 13.6498 11.6895 13.4081 11.6075C13.4811 11.2837 13.5312 10.9599 13.554 10.6315C13.5586 10.5813 13.5632 10.5357 13.5632 10.4856C13.5814 10.1162 13.5723 9.74225 13.5312 9.37285C14.0466 9.01714 14.5163 8.59756 14.9313 8.11416L16.2767 9.19041ZM16.6278 13.4727C16.304 13.1763 15.9346 12.8981 15.5333 12.6381C15.246 12.4512 14.9404 12.2824 14.6349 12.1228L16.7053 9.52787L17.9321 10.5084C17.28 11.3931 16.8376 12.401 16.6278 13.4727ZM10.9364 7.25679L12.6511 7.98647C12.7605 8.29203 12.8518 8.61126 12.911 8.93506C13.0068 9.42302 13.0387 9.92469 13.0159 10.4172L11.5429 11.0146L10.2705 9.03995L10.9364 7.25679ZM13.4355 8.76629C13.3625 8.39688 13.2576 8.03661 13.1208 7.68544C13.1117 7.65806 13.098 7.62616 13.0889 7.59879C12.8289 6.94209 12.4595 6.3264 12.008 5.78373L14.5026 7.77209C14.1834 8.1415 13.8231 8.47443 13.4355 8.76629ZM5.32697 7.62159L7.02348 9.43208L5.82407 11.5527L3.24286 11.1195L2.96467 8.73888L5.32697 7.62159ZM3.10603 11.6531L5.79217 12.1046L5.83778 12.1821C5.34068 12.4374 4.87552 12.7339 4.4514 13.0622C3.86765 13.5137 3.38426 14.0063 3.03309 14.5125L2.49038 12.9117L3.10603 11.6531ZM4.34191 13.8603V14.8545C4.11843 14.8089 3.88585 14.7861 3.6487 14.7861C3.59852 14.7861 3.54838 14.7861 3.49821 14.7907C3.72625 14.4715 4.00901 14.1613 4.34191 13.8603ZM6.61303 11.8218C6.51724 11.8583 6.42606 11.8993 6.33484 11.9403L6.28466 11.8537L7.53424 9.64643L9.82817 9.36824L10.9455 11.1058C10.7357 11.0921 10.5214 11.083 10.3116 11.083C9.04831 11.083 7.80329 11.3293 6.61303 11.8218ZM12.9567 11.0328C12.9384 11.1697 12.911 11.3065 12.8837 11.4433C12.6921 11.3886 12.496 11.343 12.3045 11.2974L12.9567 11.0328ZM13.5632 12.246C14.1059 12.4557 14.6258 12.7157 15.1138 13.0167V19.4652C14.6258 19.7662 14.1059 20.0216 13.5632 20.2268V12.246ZM18.2878 18.5166C18.3015 18.3752 18.3335 18.1928 18.3699 17.983C18.4748 17.3491 18.6071 16.5875 18.4885 16.0266C18.8716 15.8533 19.2911 15.7575 19.7153 15.7575C20.1257 15.7575 20.5362 15.8442 20.9055 16.0083C20.7642 16.5784 20.9147 17.3491 21.0424 17.9876C21.0834 18.1974 21.1199 18.3798 21.1382 18.5212C21.1746 18.8176 21.0378 19.0411 20.9147 19.1824C20.6684 19.4652 20.258 19.6385 19.8521 19.6385H19.5739C19.1726 19.6385 18.7712 19.4652 18.525 19.1916C18.4019 19.0502 18.2559 18.8176 18.2878 18.5166ZM19.7335 15.2102C19.7289 15.2102 19.7244 15.2102 19.7198 15.2102C19.168 15.2102 18.6162 15.3425 18.1282 15.5933C17.9641 15.0597 17.6083 14.4897 17.1112 13.947C17.2663 12.8297 17.695 11.7671 18.3654 10.855L21.8039 13.5958C21.2157 14.2662 20.5225 14.8089 19.7335 15.2102ZM22.1369 13.1671L18.7028 10.4217C19.8886 9.05358 21.5668 8.21444 23.3773 8.09132C23.6555 9.88361 23.2086 11.7078 22.1369 13.1671ZM23.2679 7.55322C21.3342 7.70371 19.542 8.61126 18.2741 10.0843L17.0474 9.10376L21.1108 4.00971C22.1825 4.93549 22.935 6.17594 23.2679 7.55322ZM20.6821 3.66768L16.6187 8.76172L15.2688 7.68544C16.3998 6.15314 16.8923 4.23772 16.6415 2.34968C18.0917 2.34515 19.5101 2.80574 20.6821 3.66768ZM16.0942 2.37252C16.3405 4.1283 15.8936 5.91603 14.8447 7.34344L11.5246 4.69382C12.683 3.35758 14.3248 2.52302 16.0942 2.37252ZM6.48534 3.88202C7.30623 3.84098 8.1408 3.96867 8.91152 4.24686L8.68351 4.57522L6.31207 4.72115L5.12181 4.10093C5.56869 3.97781 6.02475 3.90482 6.48534 3.88202ZM1.90663 6.22612C2.56789 5.39612 3.4344 4.74853 4.41032 4.34721L5.91529 5.1316L5.17195 7.08806L2.67282 8.2738L1.12677 7.48023C1.33654 7.03331 1.5965 6.61376 1.90663 6.22612ZM1.09487 12.6792L1.97504 13.085L2.50404 14.6584C1.90663 14.0975 1.42776 13.4271 1.09487 12.6792ZM0.707221 18.2749C0.707221 17.4814 1.02645 16.7289 1.5874 16.1771C1.70595 16.2956 1.81541 16.4188 1.9112 16.5556L1.71966 16.6878L2.02979 17.1393L2.19395 17.0253C2.25323 17.153 2.30341 17.2898 2.34445 17.4266L2.12554 17.4768L2.25323 18.0104L2.4539 17.9648C2.46304 18.0696 2.47214 18.1745 2.47214 18.2794V18.3478L2.2578 18.2976L2.13011 18.8312L2.4083 18.8951C2.36725 19.0775 2.31251 19.2599 2.23956 19.4332L2.03436 19.2918L1.72423 19.7433L1.97504 19.9166C1.86559 20.0808 1.73332 20.2359 1.59197 20.3772C1.02645 19.8255 0.707221 19.073 0.707221 18.2749ZM2.01608 20.7239C2.17115 20.5688 2.30794 20.4001 2.42653 20.2222L2.72296 20.4229L3.03309 19.9714L2.70019 19.7434C2.80508 19.5108 2.88716 19.2691 2.94191 19.0183L3.31131 19.1049L3.43901 18.5713L3.01946 18.471C3.02403 18.4072 3.02403 18.3388 3.02403 18.2749C3.02403 18.129 3.01489 17.9785 2.99665 17.8371L3.43901 17.7322L3.31131 17.1986L2.88263 17.299C2.82335 17.0983 2.7458 16.9022 2.65462 16.7152L3.03313 16.4553L2.723 16.0038L2.36729 16.2455C2.26241 16.0996 2.14381 15.9582 2.01612 15.8259C2.49951 15.5021 3.06503 15.3288 3.64878 15.3288C4.2371 15.3288 4.80258 15.5021 5.28601 15.8259C5.17655 15.94 5.07167 16.0585 4.97588 16.1862L4.70683 16.0038L4.3967 16.4553L4.67945 16.6468C4.57457 16.8475 4.48792 17.0527 4.42407 17.2716L4.11851 17.1986L3.99081 17.7322L4.30548 17.8052C4.28267 17.9603 4.27353 18.1153 4.27353 18.2749C4.27353 18.3524 4.2781 18.4254 4.28267 18.5029L3.99081 18.5713L4.11851 19.1049L4.36022 19.0456C4.4195 19.3102 4.51072 19.5655 4.62927 19.8072L4.39213 19.9669L4.70226 20.4183L4.90746 20.277C5.01692 20.4321 5.14004 20.5826 5.27687 20.7193C4.79801 21.0431 4.23253 21.2164 3.63964 21.2164C3.06956 21.2209 2.49948 21.0431 2.01608 20.7239ZM6.8228 20.1036C6.76352 20.0763 6.71335 20.058 6.66774 20.0352C6.97787 19.5062 7.14203 18.9042 7.14203 18.2749C7.14203 17.9192 7.08732 17.5726 6.98697 17.2396V12.2596C8.05868 11.8401 9.176 11.6303 10.3116 11.6303C11.2054 11.6303 12.1084 11.7716 12.9886 12.0453C12.9931 12.0453 12.9977 12.0498 13.0022 12.0498C13.0068 12.0498 13.0114 12.0544 13.0159 12.0544V20.4183C12.1312 20.6919 11.2236 20.8333 10.3115 20.8333C9.12586 20.8333 7.95379 20.587 6.8228 20.1036ZM21.7629 20.8196C21.2111 21.3532 20.486 21.645 19.7198 21.645C19.0312 21.645 18.3608 21.4033 17.8318 20.961C17.1614 20.4 16.7737 19.5746 16.7737 18.7035C16.7737 17.8279 17.1614 17.007 17.8318 16.4461C17.882 16.405 17.9321 16.364 17.9823 16.3275C18.0188 16.7881 17.9093 17.4357 17.8318 17.8963C17.7953 18.1152 17.7634 18.3068 17.7451 18.4618C17.7041 18.8541 17.8364 19.2462 18.1191 19.5609C18.4703 19.9532 19.0175 20.1903 19.5785 20.1903H19.8567C20.4267 20.1903 20.974 19.9486 21.3297 19.5518C21.6079 19.2372 21.7356 18.8495 21.6854 18.4619C21.6672 18.3023 21.6261 18.1107 21.5851 17.8918C21.4939 17.4221 21.3616 16.7563 21.4163 16.3048C21.5395 16.3914 21.6581 16.4872 21.7675 16.5921C22.3467 17.1531 22.6659 17.9056 22.6659 18.7127C22.6614 19.5062 22.3421 20.2587 21.7629 20.8196Z" fill="#232232"/>
</g>
<defs>
<clipPath id="clip0_4261_176">
<rect width="24" height="24" fill="white"/>
</clipPath>
</defs>
</svg>
