<svg width="9" height="8" viewBox="0 0 9 8" fill="none" xmlns="http://www.w3.org/2000/svg">
<path d="M8.47913 3.06385C8.42676 2.90186 8.28308 2.7868 8.11309 2.77148L5.80408 2.56182L4.89103 0.42475C4.82371 0.26813 4.67039 0.166748 4.50003 0.166748C4.32968 0.166748 4.17636 0.26813 4.10903 0.425116L3.19599 2.56182L0.886605 2.77148C0.716923 2.78717 0.573609 2.90186 0.520935 3.06385C0.46826 3.22584 0.516906 3.40352 0.645266 3.51552L2.39061 5.0462L1.87595 7.31328C1.83829 7.47997 1.90299 7.65228 2.0413 7.75225C2.11564 7.80597 2.20261 7.83331 2.29032 7.83331C2.36595 7.83331 2.44096 7.81292 2.50829 7.77264L4.50003 6.58224L6.49105 7.77264C6.63674 7.86029 6.8204 7.85229 6.9584 7.75225C7.09677 7.65197 7.16141 7.4796 7.12375 7.31328L6.60909 5.0462L8.35443 3.51583C8.48279 3.40352 8.53181 3.22615 8.47913 3.06385Z" fill="#FFC107"/>
</svg>
