<svg width="15" height="14" viewBox="0 0 15 14" fill="none" xmlns="http://www.w3.org/2000/svg">
<path d="M6.625 10.3906V2.98742L4.14202 5.4704C3.97793 5.63449 3.75537 5.72668 3.5233 5.72668C3.29124 5.72668 3.06868 5.63449 2.90458 5.4704C2.74049 5.3063 2.6483 5.08374 2.6483 4.85167C2.6483 4.61961 2.74049 4.39705 2.90458 4.23295L6.88129 0.25627C7.04539 0.0921828 7.26794 0 7.5 0C7.73206 0 7.95461 0.0921828 8.11871 0.25627L12.0954 4.23295C12.1767 4.31421 12.2411 4.41067 12.2851 4.51683C12.3291 4.62299 12.3517 4.73677 12.3517 4.85167C12.3517 4.96658 12.3291 5.08036 12.2851 5.18652C12.2411 5.29268 12.1767 5.38914 12.0954 5.4704C12.0142 5.55165 11.9177 5.6161 11.8115 5.66007C11.7054 5.70404 11.5916 5.72668 11.4767 5.72668C11.3618 5.72668 11.248 5.70404 11.1418 5.66007C11.0357 5.6161 10.9392 5.55165 10.858 5.4704L8.375 2.98739V10.3906C8.375 10.6227 8.28281 10.8452 8.11872 11.0093C7.95462 11.1734 7.73206 11.2656 7.5 11.2656C7.26794 11.2656 7.04538 11.1734 6.88128 11.0093C6.71719 10.8452 6.625 10.6227 6.625 10.3906ZM13.625 6.64451C13.3929 6.64451 13.1704 6.7367 13.0063 6.90079C12.8422 7.06488 12.75 7.28744 12.75 7.51951V11.0742C12.7496 11.3859 12.6257 11.6848 12.4052 11.9052C12.1848 12.1256 11.8859 12.2496 11.5742 12.25H3.42578C3.11405 12.2496 2.8152 12.1256 2.59477 11.9052C2.37435 11.6848 2.25035 11.3859 2.25 11.0742V7.51951C2.25 7.28744 2.15781 7.06488 1.99372 6.90079C1.82962 6.7367 1.60706 6.64451 1.375 6.64451C1.14294 6.64451 0.920376 6.7367 0.756282 6.90079C0.592187 7.06488 0.5 7.28744 0.5 7.51951L0.5 11.0742C0.500876 11.8499 0.809408 12.5936 1.35791 13.1421C1.90641 13.6906 2.65008 13.9991 3.42578 14H11.5742C12.3499 13.9991 13.0936 13.6906 13.6421 13.1421C14.1906 12.5936 14.4991 11.8499 14.5 11.0742V7.51951C14.5 7.28744 14.4078 7.06488 14.2437 6.90079C14.0796 6.7367 13.8571 6.64451 13.625 6.64451Z" fill="white"/>
</svg>
