<svg width="25" height="16" viewBox="0 0 25 16" fill="none" xmlns="http://www.w3.org/2000/svg">
<path d="M22.964 9.09641C23.7669 5.61751 21.0222 3.53898 19.0062 3.71072C18.2382 3.75476 17.5007 4.041 16.8942 4.521C16.7633 3.49494 16.2833 2.54375 15.5371 1.83036C14.6731 1.02008 13.5429 0.557696 12.3647 0.531274C10.8069 0.469622 9.29272 1.05531 8.17563 2.15623C7.18072 3.2087 6.80544 4.79843 6.80544 6.37054C5.55308 5.52063 4.24835 5.30045 2.75162 6.24724C-0.329103 8.18925 0.630897 12.3507 1.2549 13.2315C2.53344 15.0414 4.12617 15.31 5.43526 15.4333C6.64399 15.5478 9.23599 15.6359 11.4876 15.6711C11.5356 14.623 11.5618 12.7559 11.5749 11.1265C10.7022 11.8575 9.76835 11.7474 9.48472 11.5448C8.93926 11.0781 8.86508 10.259 9.3189 9.69971C9.80326 9.05678 11.7974 7.09274 12.5436 6.6832C13.4164 6.2032 14.0622 7.17641 16.4404 9.66889C16.9204 10.0916 16.9684 10.8271 16.5494 11.3071C16.4884 11.3775 16.4185 11.4392 16.3444 11.4964C15.7771 11.9368 14.8651 11.6593 14.132 10.9812C14.132 12.6105 14.0971 14.5305 14.0447 15.6843C16.1829 15.6843 19.7174 15.6843 21.4629 15.3672C22.964 15.1206 24.1378 13.9228 24.3604 12.4036C24.5611 11.1265 24.02 9.84063 22.964 9.09641Z" fill="#1E1E1E"/>
</svg>
