<?xml version="1.0" standalone="no"?>
<!DOCTYPE svg PUBLIC "-//W3C//DTD SVG 20010904//EN"
 "http://www.w3.org/TR/2001/REC-SVG-20010904/DTD/svg10.dtd">
<svg version="1.0" xmlns="http://www.w3.org/2000/svg"
 width="512.000000pt" height="512.000000pt" viewBox="0 0 512.000000 512.000000"
 preserveAspectRatio="xMidYMid meet">

<g transform="translate(0.000000,512.000000) scale(0.100000,-0.100000)"
fill="#000000" stroke="none">
<path d="M2453 4675 c-88 -24 -121 -47 -308 -210 -208 -182 -231 -198 -322
-233 -65 -24 -80 -26 -338 -31 -266 -6 -271 -6 -327 -33 -77 -36 -121 -70
-164 -130 -41 -56 -68 -122 -78 -190 l-7 -48 1647 0 1647 0 -6 57 c-13 122
-112 254 -234 311 -57 26 -62 27 -328 33 -371 9 -350 0 -648 256 -106 91 -212
175 -237 188 -89 44 -201 56 -297 30z"/>
</g>
</svg>
