<svg width="24" height="24" viewBox="0 0 24 24" fill="none" xmlns="http://www.w3.org/2000/svg">
<g clip-path="url(#clip0_6210_2544)">
<path fill-rule="evenodd" clip-rule="evenodd" d="M3.02783 3.82812C1.35931 3.82812 0 5.18744 0 6.85596V17.1441C0 18.8126 1.35931 20.172 3.02783 20.172H12.0397C13.7083 20.172 15.0677 18.8126 15.0677 17.1441V6.85596C15.0677 5.18744 13.7083 3.82812 12.0397 3.82812H3.02783ZM7.53388 8.93237C8.51728 8.93237 9.32557 9.74058 9.32557 10.724C9.32557 11.1416 9.17381 11.5225 8.93079 11.8285C9.47682 12.1093 9.93208 12.5432 10.2264 13.081C10.4903 13.5631 10.3795 14.1447 10.0749 14.5034C9.7703 14.8622 9.31154 15.0678 8.80994 15.0678H6.25772C5.75612 15.0678 5.29735 14.8622 4.99274 14.5034C4.68813 14.1447 4.57743 13.563 4.84131 13.0809C5.13566 12.5432 5.59091 12.1093 6.13688 11.8285C5.89386 11.5225 5.7421 11.1415 5.7421 10.724C5.7421 9.74058 6.55047 8.93237 7.53388 8.93237Z" fill="#44B1C2"/>
<path fill-rule="evenodd" clip-rule="evenodd" d="M22.711 4.42353C22.4897 4.41971 22.264 4.47414 22.0557 4.59913L17.9323 7.07325C17.0987 7.57336 16.5878 8.47601 16.5879 9.44803L16.5883 14.5523C16.5884 15.5243 17.0994 16.4268 17.9329 16.927L22.0557 19.401C22.8889 19.901 23.9993 19.2723 23.9993 18.3006V5.6995C23.9993 4.97072 23.3747 4.43497 22.711 4.42353Z" fill="#44B1C2"/>
</g>
<defs>
<clipPath id="clip0_6210_2544">
<rect width="24" height="24" fill="white"/>
</clipPath>
</defs>
</svg>
