<svg width="24" height="24" viewBox="0 0 24 24" fill="none" xmlns="http://www.w3.org/2000/svg">
<g clip-path="url(#clip0_6210_2533)">
<path fill-rule="evenodd" clip-rule="evenodd" d="M3.02783 3.82812C1.35931 3.82812 0 5.18743 0 6.85596V17.1442C0 18.8127 1.35931 20.172 3.02783 20.172H12.0397C13.7083 20.172 15.0677 18.8127 15.0677 17.1442V6.85596C15.0677 5.18743 13.7083 3.82812 12.0397 3.82812H3.02783ZM7.53378 8.93237C8.51717 8.93237 9.32547 9.74059 9.32547 10.724C9.32547 11.1406 9.17444 11.5208 8.93243 11.8264C9.9209 12.337 10.6014 13.3674 10.6014 14.552C10.6014 14.6197 10.5881 14.6867 10.5622 14.7493C10.5363 14.8119 10.4983 14.8687 10.4504 14.9166C10.4025 14.9645 10.3456 15.0025 10.2831 15.0284C10.2205 15.0543 10.1534 15.0676 10.0857 15.0676C9.94897 15.0676 9.81782 15.0133 9.72112 14.9166C9.62442 14.8199 9.5701 14.6887 9.5701 14.552C9.5701 13.4211 8.66452 12.5156 7.53378 12.5156C6.40305 12.5156 5.49747 13.4211 5.49747 14.552C5.49747 14.6887 5.44314 14.8199 5.34644 14.9166C5.24974 15.0133 5.11859 15.0676 4.98184 15.0676C4.84509 15.0676 4.71394 15.0133 4.61724 14.9166C4.52054 14.8199 4.46622 14.6887 4.46622 14.552C4.46622 13.3674 5.14667 12.337 6.13513 11.8264C5.89312 11.5208 5.7421 11.1406 5.7421 10.724C5.7421 9.74059 6.5504 8.93237 7.53378 8.93237ZM7.53378 9.96362C7.10767 9.96362 6.77335 10.298 6.77335 10.724C6.77335 11.15 7.10767 11.4843 7.53378 11.4843C7.9599 11.4843 8.29422 11.15 8.29422 10.724C8.29422 10.298 7.9599 9.96362 7.53378 9.96362Z" fill="#44B1C2"/>
<path fill-rule="evenodd" clip-rule="evenodd" d="M22.7109 4.42353C22.4896 4.41971 22.264 4.47414 22.0557 4.59912L17.9323 7.07325H17.9323C17.9322 7.07331 17.9322 7.07337 17.9322 7.07343C17.0988 7.57355 16.5878 8.47604 16.5879 9.44794L16.5884 14.5522C16.5885 15.5242 17.0994 16.4267 17.9329 16.9269L22.0557 19.4009C22.8889 19.9009 23.9993 19.2722 23.9993 18.3005V5.6995C23.9993 4.97072 23.3746 4.43497 22.7109 4.42353Z" fill="#44B1C2"/>
</g>
<defs>
<clipPath id="clip0_6210_2533">
<rect width="24" height="24" fill="white"/>
</clipPath>
</defs>
</svg>
