<svg width="25" height="24" viewBox="0 0 25 24" fill="none" xmlns="http://www.w3.org/2000/svg">
<g clip-path="url(#clip0_4261_347)">
<path d="M24.2509 5.77268C24.0964 5.68111 23.9053 5.67754 23.7476 5.76354L18.241 8.77029V6.9662C18.2394 5.56273 17.1021 4.42542 15.6986 4.42383H3.04237C1.6389 4.42542 0.501589 5.56273 0.5 6.9662V17.0046C0.501589 18.4081 1.6389 19.5454 3.04237 19.547H15.6986C17.1021 19.5454 18.2394 18.4081 18.241 17.0046V15.2333L23.7478 18.24C23.9053 18.326 24.0966 18.3227 24.2509 18.2311C24.4055 18.1393 24.5 17.9731 24.5 17.7937V6.20985C24.5 6.03029 24.4053 5.86424 24.2509 5.77268ZM17.2237 17.0048C17.2229 17.847 16.5404 18.5292 15.6982 18.5302H3.04237C2.20021 18.5292 1.51794 17.847 1.51695 17.0048V6.9662C1.51794 6.12424 2.20021 5.44177 3.04237 5.44078H15.6986C16.5406 5.44177 17.2231 6.12424 17.224 6.9662L17.2237 17.0048ZM23.4831 16.9369L18.241 14.0747V9.92886L23.4831 7.0669V16.9369Z" fill="#716E6E"/>
</g>
<defs>
<clipPath id="clip0_4261_347">
<rect width="24" height="24" fill="white" transform="translate(0.5)"/>
</clipPath>
</defs>
</svg>
