<svg width="14" height="14" viewBox="0 0 14 14" fill="none" xmlns="http://www.w3.org/2000/svg">
<path d="M7 14C3.13403 14 0 10.866 0 7C0 3.13399 3.13403 -9.53674e-07 7 -9.53674e-07C10.866 -9.53674e-07 14 3.13399 14 7C14 10.866 10.866 14 7 14ZM4.29061 12.3603C4.16522 12.1866 4.04514 12.0001 3.93138 11.8003C3.7576 11.495 3.60256 11.1665 3.46669 10.8192C3.17721 10.8989 2.88913 10.9884 2.60285 11.0878C3.08395 11.605 3.65483 12.0376 4.29061 12.3603ZM1.87736 10.1341C2.28796 9.97995 2.70214 9.84487 3.11909 9.72867C2.9475 9.04899 2.8411 8.32214 2.80517 7.5717H1.02035C1.1088 8.50382 1.41095 9.37454 1.87736 10.1341ZM1.87736 3.86594C1.41091 4.62549 1.10876 5.49618 1.02035 6.4283H2.80517C2.84114 5.67786 2.9475 4.95101 3.11909 4.27133C2.70214 4.15513 2.28796 4.02005 1.87736 3.86594ZM2.60285 2.91214C2.88913 3.01158 3.17721 3.10114 3.46665 3.18076C3.60256 2.83349 3.7576 2.50492 3.93138 2.19969C4.0451 1.99988 4.16522 1.81336 4.29061 1.63969C3.65483 1.9624 3.08395 2.39497 2.60285 2.91214ZM6.4283 1.28979C5.69624 1.56434 5.04775 2.35211 4.59573 3.43984C5.20351 3.55202 5.81542 3.62144 6.4283 3.64804V1.28979ZM6.4283 4.79396C5.69427 4.76459 4.96146 4.67833 4.23435 4.53582C4.08502 5.12292 3.98637 5.761 3.95023 6.42833H6.4283V4.79396ZM6.4283 7.5717H3.95023C3.98637 8.23904 4.08502 8.87711 4.23435 9.46422C4.96142 9.32167 5.69427 9.23544 6.4283 9.20608V7.5717ZM6.4283 10.352C5.81542 10.3786 5.20355 10.448 4.59573 10.5602C5.04775 11.6479 5.69624 12.4357 6.4283 12.7102V10.352ZM12.1227 10.134C12.5891 9.37447 12.8912 8.50378 12.9796 7.5717H11.1948C11.1589 8.32207 11.0525 9.04892 10.8809 9.72853C11.2979 9.84473 11.7121 9.97977 12.1227 10.134ZM11.3973 11.0877C11.111 10.9883 10.8229 10.8987 10.5334 10.8191C10.3975 11.1664 10.2424 11.495 10.0686 11.8003C9.95486 12.0001 9.83478 12.1866 9.70943 12.3603C10.3452 12.0376 10.9161 11.6049 11.3973 11.0877ZM7.5717 12.7102C8.30376 12.4357 8.95228 11.6478 9.4043 10.56C8.79652 10.4479 8.18462 10.3785 7.5717 10.3519V12.7102ZM7.5717 9.20601C8.30581 9.23533 9.03865 9.32156 9.76568 9.46404C9.91502 8.87697 10.0136 8.23893 10.0498 7.57167H7.5717V9.20601ZM7.5717 6.4283H10.0498C10.0136 5.76104 9.91502 5.12299 9.76568 4.53593C9.03865 4.67844 8.30581 4.76463 7.5717 4.79399V6.4283ZM7.5717 1.28979V3.64804C8.18465 3.62144 8.79656 3.55209 9.4043 3.43991C8.95228 2.35218 8.30376 1.56434 7.5717 1.28979ZM9.70943 1.63972C9.83482 1.81339 9.9549 1.99988 10.0686 2.19972C10.2424 2.505 10.3975 2.83364 10.5334 3.18094C10.8229 3.10125 11.1109 3.01172 11.3973 2.91229C10.9161 2.39508 10.3452 1.96244 9.70943 1.63972ZM12.1227 3.86601C11.7121 4.02023 11.2979 4.15527 10.8809 4.27151C11.0525 4.95112 11.1589 5.67793 11.1948 6.4283H12.9797C12.8912 5.49622 12.5891 4.62553 12.1227 3.86601Z" fill="#F8F8FF"/>
</svg>
